{"glyphs":{"0":{"ha":884,"x_min":82,"x_max":802,"o":"m 442 -13 q 175 97 268 -13 q 82 413 82 207 l 82 592 q 176 912 82 801 q 443 1023 269 1023 q 710 912 617 1023 q 802 592 802 801 l 802 413 q 709 97 802 207 q 442 -13 616 -13 m 442 133 q 583 199 542 133 q 625 426 625 266 l 625 580 q 583 809 625 741 q 442 878 542 878 q 301 809 343 878 q 259 580 259 741 l 259 426 q 301 199 259 266 q 442 133 343 133 m 442 400 q 376 414 402 400 q 351 467 351 428 l 351 542 q 376 594 351 580 q 442 609 402 609 q 507 594 482 609 q 532 542 532 580 l 532 467 q 506 414 532 428 q 442 400 481 400 z "},"1":{"ha":884,"x_min":101,"x_max":821,"o":"m 133 0 l 133 152 l 398 152 l 398 821 l 361 821 q 264 700 330 741 q 114 664 198 659 l 101 819 q 278 870 199 819 q 402 1010 357 920 l 587 1010 l 587 152 l 821 152 l 821 0 l 133 0 z "},"2":{"ha":884,"x_min":82,"x_max":802,"o":"m 82 0 l 82 212 q 136 397 82 331 q 321 511 189 463 l 467 562 q 568 612 537 586 q 600 702 600 639 l 600 737 q 564 847 600 816 q 442 878 529 878 q 326 840 360 878 q 284 693 293 803 l 95 706 q 184 949 105 876 q 441 1023 264 1023 q 705 952 621 1023 q 789 744 789 881 l 789 677 q 729 515 789 572 q 556 419 668 458 l 408 369 q 301 312 330 340 q 271 215 271 284 l 271 152 l 802 152 l 802 0 l 82 0 z "},"3":{"ha":884,"x_min":69,"x_max":802,"o":"m 438 -13 q 160 62 241 -13 q 69 284 78 136 l 259 297 q 306 165 270 194 q 441 136 342 136 q 574 170 535 136 q 612 279 612 203 l 612 313 q 573 425 612 393 q 442 457 533 457 l 309 457 l 309 607 l 442 607 q 555 630 523 607 q 587 715 587 653 l 587 755 q 552 847 587 819 q 434 874 518 874 q 326 845 359 874 q 284 736 293 816 l 95 749 q 184 959 104 895 q 429 1023 264 1023 q 689 963 602 1023 q 777 769 777 904 l 777 737 q 723 609 777 655 q 585 554 670 563 l 585 518 q 741 452 681 510 q 802 303 802 394 l 802 275 q 713 56 802 125 q 438 -13 624 -13 z "},"4":{"ha":884,"x_min":69,"x_max":865,"o":"m 246 402 l 524 402 l 524 818 l 246 402 m 865 256 l 713 256 l 713 0 l 524 0 l 524 256 l 69 256 l 69 402 l 467 1010 l 713 1010 l 713 402 l 865 402 l 865 256 z "},"5":{"ha":884,"x_min":69,"x_max":802,"o":"m 441 -13 q 160 54 242 -13 q 69 298 78 121 l 259 311 q 305 166 269 199 q 442 133 341 133 q 576 171 539 133 q 612 292 612 210 l 612 340 q 577 456 612 419 q 447 492 542 492 l 107 492 l 107 1010 l 758 1010 l 758 865 l 297 865 l 297 646 l 492 646 q 724 578 646 646 q 802 367 802 509 l 802 266 q 713 66 802 144 q 441 -13 625 -13 z "},"6":{"ha":884,"x_min":82,"x_max":802,"o":"m 442 -13 q 170 81 258 -13 q 82 348 82 176 l 82 654 q 174 930 82 837 q 444 1023 265 1023 q 683 965 604 1023 q 790 771 763 907 l 590 742 q 544 848 573 819 q 433 878 514 878 q 309 826 346 878 q 271 654 271 775 l 271 540 l 290 540 q 374 606 323 581 q 515 631 426 631 q 729 552 655 631 q 802 331 802 473 l 802 303 q 711 68 802 148 q 442 -13 620 -13 m 441 133 q 571 177 532 133 q 610 303 610 221 l 610 319 q 571 452 610 407 q 441 497 532 497 q 311 452 350 497 q 271 319 271 407 l 271 303 q 311 174 271 216 q 441 133 350 133 z "},"7":{"ha":884,"x_min":82,"x_max":802,"o":"m 284 0 q 409 470 347 298 q 612 852 471 643 l 82 852 l 82 1010 l 802 1010 l 802 852 q 598 439 664 624 q 492 0 533 254 l 284 0 z "},"8":{"ha":884,"x_min":82,"x_max":802,"o":"m 442 -13 q 170 54 258 -13 q 82 261 82 120 l 82 289 q 136 444 82 384 q 287 514 191 505 l 287 551 q 159 608 211 558 q 107 740 107 658 l 107 780 q 189 964 107 905 q 442 1023 270 1023 q 696 964 615 1023 q 777 780 777 905 l 777 740 q 725 608 777 658 q 597 551 673 558 l 597 514 q 747 444 693 505 q 802 289 802 383 l 802 261 q 715 54 802 120 q 442 -13 628 -13 m 442 604 q 553 630 519 604 q 587 725 587 657 l 587 755 q 553 848 587 822 q 442 874 519 874 q 331 848 365 874 q 297 755 297 822 l 297 725 q 331 630 297 657 q 442 604 365 604 m 442 136 q 576 173 540 136 q 612 287 612 210 l 612 306 q 576 422 612 385 q 442 458 540 458 q 307 422 343 458 q 271 306 271 385 l 271 287 q 307 173 271 210 q 442 136 343 136 z "},"9":{"ha":884,"x_min":82,"x_max":802,"o":"m 443 513 q 573 559 534 513 q 612 691 612 605 l 612 707 q 573 836 612 794 q 443 878 534 878 q 314 833 354 878 q 274 707 274 789 l 274 691 q 314 559 274 605 q 443 513 354 513 m 439 -13 q 201 47 282 -13 q 93 239 121 106 l 294 268 q 344 160 312 187 q 452 133 376 133 q 576 184 539 133 q 612 357 612 236 l 612 470 l 593 470 q 507 403 559 427 q 367 380 455 380 q 155 458 229 380 q 82 679 82 537 l 82 707 q 174 943 82 864 q 442 1023 265 1023 q 714 929 626 1023 q 802 662 802 836 l 802 356 q 714 83 802 179 q 439 -13 626 -13 z "},"\u0000":{"ha":0,"x_min":0,"x_max":0,"o":""},"\r":{"ha":0,"x_min":0,"x_max":0,"o":""}," ":{"ha":884,"x_min":0,"x_max":0,"o":""}," ":{"ha":884,"x_min":0,"x_max":0,"o":""},"A":{"ha":884,"x_min":32,"x_max":854,"o":"m 559 410 l 444 847 l 323 410 l 559 410 m 668 0 l 600 259 l 282 259 l 210 0 l 32 0 l 332 1010 l 553 1010 l 854 0 l 668 0 z "},"À":{"ha":884,"x_min":32,"x_max":854,"o":"m 559 410 l 444 847 l 323 410 l 559 410 m 668 0 l 600 259 l 282 259 l 210 0 l 32 0 l 332 1010 l 553 1010 l 854 0 l 668 0 m 432 1136 l 167 1389 l 419 1389 l 572 1136 l 432 1136 z "},"Á":{"ha":884,"x_min":32,"x_max":854,"o":"m 559 410 l 444 847 l 323 410 l 559 410 m 668 0 l 600 259 l 282 259 l 210 0 l 32 0 l 332 1010 l 553 1010 l 854 0 l 668 0 m 287 1136 l 439 1389 l 692 1389 l 427 1136 l 287 1136 z "},"Â":{"ha":884,"x_min":32,"x_max":854,"o":"m 559 410 l 444 847 l 323 410 l 559 410 m 668 0 l 600 259 l 282 259 l 210 0 l 32 0 l 332 1010 l 553 1010 l 854 0 l 668 0 m 208 1129 l 145 1222 l 371 1417 l 513 1417 l 741 1222 l 679 1130 l 442 1269 l 208 1129 z "},"Ã":{"ha":884,"x_min":32,"x_max":854,"o":"m 559 410 l 444 847 l 323 410 l 559 410 m 668 0 l 600 259 l 282 259 l 210 0 l 32 0 l 332 1010 l 553 1010 l 854 0 l 668 0 m 554 1149 q 470 1170 501 1149 q 417 1216 439 1192 q 377 1261 395 1240 q 335 1282 359 1282 q 296 1261 313 1282 q 280 1174 279 1240 l 280 1162 l 152 1162 l 152 1181 q 199 1347 152 1280 q 333 1414 246 1414 q 420 1393 388 1414 q 473 1348 452 1372 q 513 1303 495 1324 q 552 1282 530 1282 q 592 1302 574 1282 q 607 1389 609 1323 l 607 1402 l 736 1402 l 736 1383 q 688 1216 736 1283 q 554 1149 640 1149 z "},"Ä":{"ha":884,"x_min":32,"x_max":854,"o":"m 559 410 l 444 847 l 323 410 l 559 410 m 668 0 l 600 259 l 282 259 l 210 0 l 32 0 l 332 1010 l 553 1010 l 854 0 l 668 0 m 288 1136 q 214 1155 242 1136 q 186 1221 186 1174 l 186 1235 q 214 1302 186 1283 q 288 1322 242 1322 q 363 1302 335 1322 q 391 1235 391 1283 l 391 1221 q 362 1155 391 1174 q 288 1136 333 1136 m 598 1136 q 523 1155 552 1136 q 495 1221 495 1174 l 495 1235 q 523 1302 495 1283 q 598 1322 552 1322 q 673 1302 645 1322 q 701 1235 701 1283 l 701 1221 q 672 1155 701 1174 q 598 1136 643 1136 z "},"Å":{"ha":884,"x_min":32,"x_max":854,"o":"m 559 410 l 444 847 l 323 410 l 559 410 m 668 0 l 600 259 l 282 259 l 210 0 l 32 0 l 332 1010 l 553 1010 l 854 0 l 668 0 m 443 1111 q 274 1158 338 1111 q 210 1301 210 1205 l 210 1341 q 274 1487 210 1439 q 443 1534 338 1534 q 613 1487 549 1534 q 677 1341 677 1439 l 677 1301 q 612 1158 677 1205 q 443 1111 548 1111 m 443 1213 q 516 1234 491 1213 q 540 1301 540 1254 l 540 1341 q 516 1410 540 1388 q 443 1432 491 1432 q 370 1410 394 1432 q 346 1341 346 1388 l 346 1301 q 370 1234 346 1254 q 443 1213 394 1213 z "},"Ā":{"ha":884,"x_min":32,"x_max":854,"o":"m 559 410 l 444 847 l 323 410 l 559 410 m 668 0 l 600 259 l 282 259 l 210 0 l 32 0 l 332 1010 l 553 1010 l 854 0 l 668 0 m 174 1187 l 174 1338 l 712 1338 l 712 1187 l 174 1187 z "},"Ă":{"ha":884,"x_min":32,"x_max":854,"o":"m 559 410 l 444 847 l 323 410 l 559 410 m 668 0 l 600 259 l 282 259 l 210 0 l 32 0 l 332 1010 l 553 1010 l 854 0 l 668 0 m 443 1128 q 213 1194 297 1128 q 128 1412 129 1261 l 292 1412 q 329 1289 293 1324 q 443 1253 365 1253 q 557 1289 521 1253 q 595 1412 593 1324 l 759 1412 q 674 1194 758 1261 q 443 1128 590 1128 z "},"Ą":{"ha":884,"x_min":32,"x_max":933,"o":"m 559 410 l 444 847 l 323 410 l 559 410 m 668 0 l 600 259 l 282 259 l 210 0 l 32 0 l 332 1010 l 553 1010 l 854 0 l 668 0 m 789 -278 q 637 -237 694 -278 q 580 -121 580 -197 q 636 4 580 -49 q 759 78 692 58 l 793 29 q 737 -25 750 3 q 725 -77 725 -53 q 747 -128 725 -111 q 817 -145 770 -145 q 872 -141 840 -145 q 933 -133 905 -138 l 933 -263 q 860 -274 899 -270 q 789 -278 821 -278 z "},"Ǻ":{"ha":884,"x_min":32,"x_max":854,"o":"m 559 410 l 444 847 l 323 410 l 559 410 m 668 0 l 600 259 l 282 259 l 210 0 l 32 0 l 332 1010 l 553 1010 l 854 0 l 668 0 m 443 1111 q 274 1158 338 1111 q 210 1301 210 1205 l 210 1341 q 274 1487 210 1439 q 443 1534 338 1534 q 613 1487 549 1534 q 677 1341 677 1439 l 677 1301 q 612 1158 677 1205 q 443 1111 548 1111 m 443 1213 q 516 1234 491 1213 q 540 1301 540 1254 l 540 1341 q 516 1410 540 1388 q 443 1432 491 1432 q 370 1410 394 1432 q 346 1341 346 1388 l 346 1301 q 370 1234 346 1254 q 443 1213 394 1213 m 367 1515 l 520 1768 l 773 1768 l 508 1515 l 367 1515 z "},"B":{"ha":884,"x_min":95,"x_max":804,"o":"m 95 0 l 95 1010 l 449 1010 q 692 952 614 1010 q 770 773 770 894 l 770 723 q 734 608 770 650 q 626 553 698 566 l 626 516 q 757 456 710 509 q 804 323 804 404 l 804 263 q 718 64 804 129 q 452 0 633 0 l 95 0 m 284 593 l 443 593 q 551 620 518 593 q 583 706 583 646 l 583 754 q 551 839 583 813 q 443 865 518 865 l 284 865 l 284 593 m 284 145 l 453 145 q 578 176 540 145 q 615 275 615 206 l 615 328 q 578 427 615 396 q 453 457 540 457 l 284 457 l 284 145 z "},"":{"ha":884,"x_min":95,"x_max":804,"o":"m 95 0 l 95 1010 l 449 1010 q 692 952 614 1010 q 770 773 770 894 l 770 723 q 734 608 770 650 q 626 553 698 566 l 626 516 q 757 456 710 509 q 804 323 804 404 l 804 263 q 718 64 804 129 q 452 0 633 0 l 95 0 m 284 593 l 443 593 q 551 620 518 593 q 583 706 583 646 l 583 754 q 551 839 583 813 q 443 865 518 865 l 284 865 l 284 593 m 284 145 l 453 145 q 578 176 540 145 q 615 275 615 206 l 615 328 q 578 427 615 396 q 453 457 540 457 l 284 457 l 284 145 z "},"C":{"ha":884,"x_min":82,"x_max":827,"o":"m 455 -13 q 175 73 268 -13 q 82 331 82 159 l 82 674 q 176 936 82 848 q 456 1023 269 1023 q 731 939 644 1023 q 827 668 818 856 l 638 655 q 590 827 629 783 q 455 871 552 871 q 313 823 355 871 q 271 662 271 775 l 271 343 q 313 186 271 232 q 455 139 355 139 q 590 182 552 139 q 638 350 628 226 l 827 337 q 730 70 818 153 q 455 -13 643 -13 z "},"Ç":{"ha":884,"x_min":82,"x_max":827,"o":"m 455 -13 q 175 73 268 -13 q 82 331 82 159 l 82 674 q 176 936 82 848 q 456 1023 269 1023 q 731 939 644 1023 q 827 668 818 856 l 638 655 q 590 827 629 783 q 455 871 552 871 q 313 823 355 871 q 271 662 271 775 l 271 343 q 313 186 271 232 q 455 139 355 139 q 590 182 552 139 q 638 350 628 226 l 827 337 q 730 70 818 153 q 455 -13 643 -13 m 420 0 l 446 53 q 587 6 528 43 q 646 -114 646 -30 q 576 -240 646 -201 q 418 -279 505 -279 q 251 -244 316 -279 q 181 -126 186 -210 l 342 -114 q 359 -147 345 -138 q 409 -157 374 -157 q 463 -142 444 -157 q 482 -85 482 -128 q 469 -28 482 -47 q 420 0 456 -10 z "},"Ć":{"ha":884,"x_min":82,"x_max":827,"o":"m 455 -13 q 175 73 268 -13 q 82 331 82 159 l 82 674 q 176 936 82 848 q 456 1023 269 1023 q 731 939 644 1023 q 827 668 818 856 l 638 655 q 590 827 629 783 q 455 871 552 871 q 313 823 355 871 q 271 662 271 775 l 271 343 q 313 186 271 232 q 455 139 355 139 q 590 182 552 139 q 638 350 628 226 l 827 337 q 730 70 818 153 q 455 -13 643 -13 m 340 1136 l 492 1389 l 745 1389 l 480 1136 l 340 1136 z "},"Ĉ":{"ha":884,"x_min":82,"x_max":827,"o":"m 455 -13 q 175 73 268 -13 q 82 331 82 159 l 82 674 q 176 936 82 848 q 456 1023 269 1023 q 731 939 644 1023 q 827 668 818 856 l 638 655 q 590 827 629 783 q 455 871 552 871 q 313 823 355 871 q 271 662 271 775 l 271 343 q 313 186 271 232 q 455 139 355 139 q 590 182 552 139 q 638 350 628 226 l 827 337 q 730 70 818 153 q 455 -13 643 -13 m 223 1129 l 160 1222 l 386 1417 l 528 1417 l 756 1222 l 694 1130 l 457 1269 l 223 1129 z "},"Ċ":{"ha":884,"x_min":82,"x_max":827,"o":"m 455 -13 q 175 73 268 -13 q 82 331 82 159 l 82 674 q 176 936 82 848 q 456 1023 269 1023 q 731 939 644 1023 q 827 668 818 856 l 638 655 q 590 827 629 783 q 455 871 552 871 q 313 823 355 871 q 271 662 271 775 l 271 343 q 313 186 271 232 q 455 139 355 139 q 590 182 552 139 q 638 350 628 226 l 827 337 q 730 70 818 153 q 455 -13 643 -13 m 458 1136 q 360 1155 398 1136 q 323 1221 323 1174 l 323 1235 q 360 1302 323 1283 q 458 1322 398 1322 q 556 1302 519 1322 q 593 1235 593 1283 l 593 1221 q 556 1155 593 1174 q 458 1136 518 1136 z "},"Č":{"ha":884,"x_min":82,"x_max":827,"o":"m 455 -13 q 175 73 268 -13 q 82 331 82 159 l 82 674 q 176 936 82 848 q 456 1023 269 1023 q 731 939 644 1023 q 827 668 818 856 l 638 655 q 590 827 629 783 q 455 871 552 871 q 313 823 355 871 q 271 662 271 775 l 271 343 q 313 186 271 232 q 455 139 355 139 q 590 182 552 139 q 638 350 628 226 l 827 337 q 730 70 818 153 q 455 -13 643 -13 m 389 1141 l 160 1336 l 222 1429 l 460 1289 l 693 1429 l 756 1336 l 530 1141 l 389 1141 z "},"D":{"ha":884,"x_min":95,"x_max":802,"o":"m 95 0 l 95 1010 l 424 1010 q 701 910 601 1010 q 802 643 802 809 l 802 362 q 701 98 802 197 q 423 0 601 0 l 95 0 m 284 152 l 410 152 q 565 208 518 152 q 612 375 612 264 l 612 630 q 565 801 612 744 q 410 859 518 859 l 284 859 l 284 152 z "},"Ď":{"ha":884,"x_min":95,"x_max":802,"o":"m 95 0 l 95 1010 l 424 1010 q 701 910 601 1010 q 802 643 802 809 l 802 362 q 701 98 802 197 q 423 0 601 0 l 95 0 m 284 152 l 410 152 q 565 208 518 152 q 612 375 612 264 l 612 630 q 565 801 612 744 q 410 859 518 859 l 284 859 l 284 152 m 372 1141 l 144 1336 l 206 1429 l 443 1289 l 677 1429 l 740 1336 l 514 1141 l 372 1141 z "},"E":{"ha":884,"x_min":95,"x_max":802,"o":"m 95 0 l 95 1010 l 802 1010 l 802 859 l 284 859 l 284 619 l 739 619 l 739 467 l 284 467 l 284 152 l 802 152 l 802 0 l 95 0 z "},"":{"ha":884,"x_min":95,"x_max":802,"o":"m 95 0 l 95 1010 l 802 1010 l 802 859 l 284 859 l 284 619 l 739 619 l 739 467 l 284 467 l 284 152 l 802 152 l 802 0 l 95 0 z "},"È":{"ha":884,"x_min":95,"x_max":802,"o":"m 95 0 l 95 1010 l 802 1010 l 802 859 l 284 859 l 284 619 l 739 619 l 739 467 l 284 467 l 284 152 l 802 152 l 802 0 l 95 0 m 456 1136 l 191 1389 l 443 1389 l 596 1136 l 456 1136 z "},"É":{"ha":884,"x_min":95,"x_max":802,"o":"m 95 0 l 95 1010 l 802 1010 l 802 859 l 284 859 l 284 619 l 739 619 l 739 467 l 284 467 l 284 152 l 802 152 l 802 0 l 95 0 m 323 1135 l 476 1388 l 729 1388 l 463 1135 l 323 1135 z "},"Ê":{"ha":884,"x_min":95,"x_max":802,"o":"m 95 0 l 95 1010 l 802 1010 l 802 859 l 284 859 l 284 619 l 739 619 l 739 467 l 284 467 l 284 152 l 802 152 l 802 0 l 95 0 m 226 1129 l 163 1222 l 389 1417 l 530 1417 l 759 1222 l 697 1130 l 460 1269 l 226 1129 z "},"Ë":{"ha":884,"x_min":95,"x_max":802,"o":"m 95 0 l 95 1010 l 802 1010 l 802 859 l 284 859 l 284 619 l 739 619 l 739 467 l 284 467 l 284 152 l 802 152 l 802 0 l 95 0 m 311 1136 q 237 1155 265 1136 q 208 1221 208 1174 l 208 1235 q 237 1302 208 1283 q 311 1322 265 1322 q 386 1302 357 1322 q 414 1235 414 1283 l 414 1221 q 385 1155 414 1174 q 311 1136 356 1136 m 621 1136 q 546 1155 574 1136 q 518 1221 518 1174 l 518 1235 q 546 1302 518 1283 q 621 1322 574 1322 q 696 1302 668 1322 q 723 1235 723 1283 l 723 1221 q 694 1155 723 1174 q 621 1136 665 1136 z "},"Ē":{"ha":884,"x_min":95,"x_max":802,"o":"m 95 0 l 95 1010 l 802 1010 l 802 859 l 284 859 l 284 619 l 739 619 l 739 467 l 284 467 l 284 152 l 802 152 l 802 0 l 95 0 m 192 1187 l 192 1338 l 730 1338 l 730 1187 l 192 1187 z "},"Ĕ":{"ha":884,"x_min":95,"x_max":802,"o":"m 95 0 l 95 1010 l 802 1010 l 802 859 l 284 859 l 284 619 l 739 619 l 739 467 l 284 467 l 284 152 l 802 152 l 802 0 l 95 0 m 461 1128 q 230 1194 314 1128 q 145 1412 146 1261 l 309 1412 q 347 1289 311 1324 q 461 1253 383 1253 q 575 1289 539 1253 q 612 1412 611 1324 l 777 1412 q 691 1194 775 1261 q 461 1128 607 1128 z "},"Ė":{"ha":884,"x_min":95,"x_max":802,"o":"m 95 0 l 95 1010 l 802 1010 l 802 859 l 284 859 l 284 619 l 739 619 l 739 467 l 284 467 l 284 152 l 802 152 l 802 0 l 95 0 m 461 1136 q 363 1155 400 1136 q 326 1221 326 1174 l 326 1235 q 363 1302 326 1283 q 461 1322 400 1322 q 559 1302 521 1322 q 596 1235 596 1283 l 596 1221 q 558 1155 596 1174 q 461 1136 520 1136 z "},"Ę":{"ha":884,"x_min":95,"x_max":802,"o":"m 657 -278 q 504 -237 562 -278 q 447 -121 447 -197 q 503 4 447 -49 q 626 78 559 58 l 660 29 q 605 -25 617 3 q 592 -77 592 -53 q 615 -128 592 -111 q 684 -145 638 -145 q 740 -141 707 -145 q 801 -133 773 -138 l 801 -263 q 727 -274 766 -270 q 657 -278 688 -278 m 95 0 l 95 1010 l 802 1010 l 802 859 l 284 859 l 284 619 l 739 619 l 739 467 l 284 467 l 284 152 l 802 152 l 802 0 l 95 0 z "},"Ě":{"ha":884,"x_min":95,"x_max":802,"o":"m 95 0 l 95 1010 l 802 1010 l 802 859 l 284 859 l 284 619 l 739 619 l 739 467 l 284 467 l 284 152 l 802 152 l 802 0 l 95 0 m 398 1141 l 169 1336 l 231 1429 l 468 1289 l 702 1429 l 765 1336 l 539 1141 l 398 1141 z "},"F":{"ha":884,"x_min":126,"x_max":814,"o":"m 126 0 l 126 1010 l 814 1010 l 814 859 l 316 859 l 316 537 l 726 537 l 726 385 l 316 385 l 316 0 l 126 0 z "},"G":{"ha":884,"x_min":82,"x_max":814,"o":"m 456 -13 q 179 80 275 -13 q 82 343 82 172 l 82 662 q 177 929 82 836 q 449 1023 273 1023 q 706 943 619 1023 q 802 706 793 862 l 612 693 q 567 831 604 792 q 451 871 530 871 q 312 821 352 871 q 271 649 271 771 l 271 356 q 313 188 271 236 q 455 139 355 139 q 588 191 549 139 q 625 370 626 242 l 442 370 l 442 521 l 814 521 l 814 350 q 722 81 814 176 q 456 -13 629 -13 z "},"Ĝ":{"ha":884,"x_min":82,"x_max":814,"o":"m 456 -13 q 179 80 275 -13 q 82 343 82 172 l 82 662 q 177 929 82 836 q 449 1023 273 1023 q 706 943 619 1023 q 802 706 793 862 l 612 693 q 567 831 604 792 q 451 871 530 871 q 312 821 352 871 q 271 649 271 771 l 271 356 q 313 188 271 236 q 455 139 355 139 q 588 191 549 139 q 625 370 626 242 l 442 370 l 442 521 l 814 521 l 814 350 q 722 81 814 176 q 456 -13 629 -13 m 220 1129 l 157 1222 l 383 1417 l 524 1417 l 753 1222 l 691 1130 l 453 1269 l 220 1129 z "},"Ğ":{"ha":884,"x_min":82,"x_max":814,"o":"m 456 -13 q 179 80 275 -13 q 82 343 82 172 l 82 662 q 177 929 82 836 q 449 1023 273 1023 q 706 943 619 1023 q 802 706 793 862 l 612 693 q 567 831 604 792 q 451 871 530 871 q 312 821 352 871 q 271 649 271 771 l 271 356 q 313 188 271 236 q 455 139 355 139 q 588 191 549 139 q 625 370 626 242 l 442 370 l 442 521 l 814 521 l 814 350 q 722 81 814 176 q 456 -13 629 -13 m 455 1128 q 224 1194 308 1128 q 139 1412 140 1261 l 303 1412 q 340 1289 304 1324 q 455 1253 376 1253 q 569 1289 533 1253 q 606 1412 605 1324 l 770 1412 q 685 1194 769 1261 q 455 1128 601 1128 z "},"Ġ":{"ha":884,"x_min":82,"x_max":814,"o":"m 456 -13 q 179 80 275 -13 q 82 343 82 172 l 82 662 q 177 929 82 836 q 449 1023 273 1023 q 706 943 619 1023 q 802 706 793 862 l 612 693 q 567 831 604 792 q 451 871 530 871 q 312 821 352 871 q 271 649 271 771 l 271 356 q 313 188 271 236 q 455 139 355 139 q 588 191 549 139 q 625 370 626 242 l 442 370 l 442 521 l 814 521 l 814 350 q 722 81 814 176 q 456 -13 629 -13 m 455 1136 q 357 1155 394 1136 q 319 1221 319 1174 l 319 1235 q 357 1302 319 1283 q 455 1322 394 1322 q 552 1302 515 1322 q 590 1235 590 1283 l 590 1221 q 552 1155 590 1174 q 455 1136 514 1136 z "},"Ģ":{"ha":884,"x_min":82,"x_max":814,"o":"m 260 -379 l 362 -126 l 615 -126 l 400 -379 l 260 -379 m 456 -13 q 179 80 275 -13 q 82 343 82 172 l 82 662 q 177 929 82 836 q 449 1023 273 1023 q 706 943 619 1023 q 802 706 793 862 l 612 693 q 567 831 604 792 q 451 871 530 871 q 312 821 352 871 q 271 649 271 771 l 271 356 q 313 188 271 236 q 455 139 355 139 q 588 191 549 139 q 625 370 626 242 l 442 370 l 442 521 l 814 521 l 814 350 q 722 81 814 176 q 456 -13 629 -13 z "},"H":{"ha":884,"x_min":95,"x_max":789,"o":"m 95 0 l 95 1010 l 284 1010 l 284 631 l 600 631 l 600 1010 l 789 1010 l 789 0 l 600 0 l 600 480 l 284 480 l 284 0 l 95 0 z "},"Ĥ":{"ha":884,"x_min":95,"x_max":789,"o":"m 95 0 l 95 1010 l 284 1010 l 284 631 l 600 631 l 600 1010 l 789 1010 l 789 0 l 600 0 l 600 480 l 284 480 l 284 0 l 95 0 m 207 1129 l 144 1222 l 370 1417 l 511 1417 l 740 1222 l 678 1130 l 441 1269 l 207 1129 z "},"I":{"ha":884,"x_min":95,"x_max":789,"o":"m 95 0 l 95 152 l 347 152 l 347 859 l 95 859 l 95 1010 l 789 1010 l 789 859 l 537 859 l 537 152 l 789 152 l 789 0 l 95 0 z "},"Ì":{"ha":884,"x_min":95,"x_max":789,"o":"m 95 0 l 95 152 l 347 152 l 347 859 l 95 859 l 95 1010 l 789 1010 l 789 859 l 537 859 l 537 152 l 789 152 l 789 0 l 95 0 m 431 1136 l 165 1389 l 418 1389 l 571 1136 l 431 1136 z "},"Í":{"ha":884,"x_min":95,"x_max":789,"o":"m 95 0 l 95 152 l 347 152 l 347 859 l 95 859 l 95 1010 l 789 1010 l 789 859 l 537 859 l 537 152 l 789 152 l 789 0 l 95 0 m 285 1136 l 438 1389 l 691 1389 l 426 1136 l 285 1136 z "},"Î":{"ha":884,"x_min":95,"x_max":789,"o":"m 95 0 l 95 152 l 347 152 l 347 859 l 95 859 l 95 1010 l 789 1010 l 789 859 l 537 859 l 537 152 l 789 152 l 789 0 l 95 0 m 207 1129 l 144 1222 l 370 1417 l 511 1417 l 740 1222 l 678 1130 l 441 1269 l 207 1129 z "},"Ï":{"ha":884,"x_min":95,"x_max":789,"o":"m 95 0 l 95 152 l 347 152 l 347 859 l 95 859 l 95 1010 l 789 1010 l 789 859 l 537 859 l 537 152 l 789 152 l 789 0 l 95 0 m 287 1136 q 213 1155 241 1136 q 184 1221 184 1174 l 184 1235 q 213 1302 184 1283 q 287 1322 241 1322 q 362 1302 333 1322 q 390 1235 390 1283 l 390 1221 q 361 1155 390 1174 q 287 1136 332 1136 m 597 1136 q 522 1155 551 1136 q 494 1221 494 1174 l 494 1235 q 522 1302 494 1283 q 597 1322 551 1322 q 672 1302 644 1322 q 699 1235 699 1283 l 699 1221 q 670 1155 699 1174 q 597 1136 641 1136 z "},"Ĩ":{"ha":884,"x_min":95,"x_max":789,"o":"m 95 0 l 95 152 l 347 152 l 347 859 l 95 859 l 95 1010 l 789 1010 l 789 859 l 537 859 l 537 152 l 789 152 l 789 0 l 95 0 m 553 1149 q 469 1170 500 1149 q 415 1216 438 1192 q 376 1261 394 1240 q 333 1282 357 1282 q 295 1261 312 1282 q 279 1174 278 1240 l 279 1162 l 150 1162 l 150 1181 q 198 1347 150 1280 q 332 1414 245 1414 q 419 1393 386 1414 q 472 1348 451 1372 q 511 1303 494 1324 q 551 1282 529 1282 q 590 1302 573 1282 q 606 1389 607 1323 l 606 1402 l 735 1402 l 735 1383 q 687 1216 735 1283 q 553 1149 639 1149 z "},"Ī":{"ha":884,"x_min":95,"x_max":789,"o":"m 95 0 l 95 152 l 347 152 l 347 859 l 95 859 l 95 1010 l 789 1010 l 789 859 l 537 859 l 537 152 l 789 152 l 789 0 l 95 0 m 173 1187 l 173 1338 l 711 1338 l 711 1187 l 173 1187 z "},"Ĭ":{"ha":884,"x_min":95,"x_max":789,"o":"m 95 0 l 95 152 l 347 152 l 347 859 l 95 859 l 95 1010 l 789 1010 l 789 859 l 537 859 l 537 152 l 789 152 l 789 0 l 95 0 m 442 1128 q 211 1194 295 1128 q 126 1412 128 1261 l 290 1412 q 328 1289 292 1324 q 442 1253 364 1253 q 556 1289 520 1253 q 593 1412 592 1324 l 758 1412 q 672 1194 756 1261 q 442 1128 588 1128 z "},"Į":{"ha":884,"x_min":95,"x_max":789,"o":"m 95 0 l 95 152 l 347 152 l 347 859 l 95 859 l 95 1010 l 789 1010 l 789 859 l 537 859 l 537 152 l 789 152 l 789 0 l 95 0 m 551 -278 q 398 -237 456 -278 q 341 -121 341 -197 q 397 4 341 -49 q 520 78 453 58 l 554 29 q 499 -25 511 3 q 486 -77 486 -53 q 509 -128 486 -111 q 578 -145 532 -145 q 634 -141 601 -145 q 694 -133 667 -138 l 694 -263 q 621 -274 660 -270 q 551 -278 582 -278 z "},"İ":{"ha":884,"x_min":95,"x_max":789,"o":"m 95 0 l 95 152 l 347 152 l 347 859 l 95 859 l 95 1010 l 789 1010 l 789 859 l 537 859 l 537 152 l 789 152 l 789 0 l 95 0 m 442 1136 q 344 1155 381 1136 q 307 1221 307 1174 l 307 1235 q 344 1302 307 1283 q 442 1322 381 1322 q 540 1302 503 1322 q 577 1235 577 1283 l 577 1221 q 539 1155 577 1174 q 442 1136 501 1136 z "},"J":{"ha":884,"x_min":57,"x_max":777,"o":"m 422 -13 q 153 73 240 -13 q 57 343 66 158 l 246 357 q 292 182 255 226 q 422 139 328 139 q 547 184 506 139 q 587 335 587 229 l 587 859 l 316 859 l 316 1010 l 777 1010 l 777 328 q 689 77 777 167 q 422 -13 601 -13 z "},"Ĵ":{"ha":884,"x_min":57,"x_max":835,"o":"m 422 -13 q 153 73 240 -13 q 57 343 66 158 l 246 357 q 292 182 255 226 q 422 139 328 139 q 547 184 506 139 q 587 335 587 229 l 587 859 l 316 859 l 316 1010 l 777 1010 l 777 328 q 689 77 777 167 q 422 -13 601 -13 m 302 1129 l 239 1222 l 465 1417 l 606 1417 l 835 1222 l 773 1130 l 535 1269 l 302 1129 z "},"K":{"ha":884,"x_min":95,"x_max":848,"o":"m 284 452 l 284 0 l 95 0 l 95 1010 l 284 1010 l 284 604 l 331 604 l 646 1010 l 848 1010 l 479 544 l 845 0 l 641 0 l 335 452 l 284 452 z "},"Ķ":{"ha":884,"x_min":95,"x_max":848,"o":"m 284 452 l 284 0 l 95 0 l 95 1010 l 284 1010 l 284 604 l 331 604 l 646 1010 l 848 1010 l 479 544 l 845 0 l 641 0 l 335 452 l 284 452 m 269 -379 l 371 -126 l 624 -126 l 409 -379 l 269 -379 z "},"L":{"ha":884,"x_min":158,"x_max":789,"o":"m 158 0 l 158 1010 l 347 1010 l 347 152 l 789 152 l 789 0 l 158 0 z "},"Ĺ":{"ha":884,"x_min":158,"x_max":789,"o":"m 158 0 l 158 1010 l 347 1010 l 347 152 l 789 152 l 789 0 l 158 0 m 182 1136 l 335 1389 l 587 1389 l 322 1136 l 182 1136 z "},"Ļ":{"ha":884,"x_min":158,"x_max":789,"o":"m 158 0 l 158 1010 l 347 1010 l 347 152 l 789 152 l 789 0 l 158 0 m 292 -379 l 394 -126 l 646 -126 l 432 -379 l 292 -379 z "},"Ľ":{"ha":884,"x_min":158,"x_max":826,"o":"m 158 0 l 158 1010 l 347 1010 l 347 152 l 789 152 l 789 0 l 158 0 m 494 638 l 577 1010 l 826 1010 l 610 638 l 494 638 z "},"M":{"ha":884,"x_min":69,"x_max":814,"o":"m 372 284 l 223 725 l 237 0 l 69 0 l 69 1010 l 271 1010 l 447 475 l 619 1010 l 814 1010 l 814 0 l 648 0 l 660 721 l 513 284 l 372 284 z "},"N":{"ha":884,"x_min":95,"x_max":789,"o":"m 552 0 l 259 759 l 259 0 l 95 0 l 95 1010 l 318 1010 l 625 217 l 625 1010 l 789 1010 l 789 0 l 552 0 z "},"Ñ":{"ha":884,"x_min":95,"x_max":789,"o":"m 552 0 l 259 759 l 259 0 l 95 0 l 95 1010 l 318 1010 l 625 217 l 625 1010 l 789 1010 l 789 0 l 552 0 m 566 1149 q 482 1170 513 1149 q 428 1216 451 1192 q 388 1261 407 1240 q 346 1282 370 1282 q 307 1261 324 1282 q 292 1174 290 1240 l 292 1162 l 163 1162 l 163 1181 q 210 1347 163 1280 q 345 1414 258 1414 q 431 1393 399 1414 q 485 1348 463 1372 q 524 1303 506 1324 q 563 1282 542 1282 q 603 1302 586 1282 q 619 1389 620 1323 l 619 1402 l 747 1402 l 747 1383 q 699 1216 747 1283 q 566 1149 652 1149 z "},"Ń":{"ha":884,"x_min":95,"x_max":789,"o":"m 552 0 l 259 759 l 259 0 l 95 0 l 95 1010 l 318 1010 l 625 217 l 625 1010 l 789 1010 l 789 0 l 552 0 m 317 1136 l 470 1389 l 722 1389 l 457 1136 l 317 1136 z "},"Ņ":{"ha":884,"x_min":95,"x_max":789,"o":"m 241 -379 l 343 -126 l 596 -126 l 381 -379 l 241 -379 m 552 0 l 259 759 l 259 0 l 95 0 l 95 1010 l 318 1010 l 625 217 l 625 1010 l 789 1010 l 789 0 l 552 0 z "},"Ň":{"ha":884,"x_min":95,"x_max":789,"o":"m 552 0 l 259 759 l 259 0 l 95 0 l 95 1010 l 318 1010 l 625 217 l 625 1010 l 789 1010 l 789 0 l 552 0 m 385 1141 l 157 1336 l 218 1429 l 456 1289 l 689 1429 l 753 1336 l 527 1141 l 385 1141 z "},"O":{"ha":884,"x_min":82,"x_max":802,"o":"m 442 -13 q 174 76 265 -13 q 82 331 82 165 l 82 674 q 174 932 82 841 q 443 1023 266 1023 q 711 932 620 1023 q 802 674 802 841 l 802 331 q 710 76 802 165 q 442 -13 619 -13 m 442 139 q 573 186 534 139 q 612 343 612 232 l 612 662 q 573 823 612 775 q 442 871 534 871 q 311 823 351 871 q 271 662 271 775 l 271 343 q 311 186 271 232 q 442 139 351 139 z "},"Ò":{"ha":884,"x_min":82,"x_max":802,"o":"m 442 -13 q 174 76 265 -13 q 82 331 82 165 l 82 674 q 174 932 82 841 q 443 1023 266 1023 q 711 932 620 1023 q 802 674 802 841 l 802 331 q 710 76 802 165 q 442 -13 619 -13 m 442 139 q 573 186 534 139 q 612 343 612 232 l 612 662 q 573 823 612 775 q 442 871 534 871 q 311 823 351 871 q 271 662 271 775 l 271 343 q 311 186 271 232 q 442 139 351 139 m 431 1136 l 165 1389 l 418 1389 l 571 1136 l 431 1136 z "},"Ó":{"ha":884,"x_min":82,"x_max":802,"o":"m 442 -13 q 174 76 265 -13 q 82 331 82 165 l 82 674 q 174 932 82 841 q 443 1023 266 1023 q 711 932 620 1023 q 802 674 802 841 l 802 331 q 710 76 802 165 q 442 -13 619 -13 m 442 139 q 573 186 534 139 q 612 343 612 232 l 612 662 q 573 823 612 775 q 442 871 534 871 q 311 823 351 871 q 271 662 271 775 l 271 343 q 311 186 271 232 q 442 139 351 139 m 330 1136 l 482 1389 l 735 1389 l 470 1136 l 330 1136 z "},"Ô":{"ha":884,"x_min":82,"x_max":802,"o":"m 442 -13 q 174 76 265 -13 q 82 331 82 165 l 82 674 q 174 932 82 841 q 443 1023 266 1023 q 711 932 620 1023 q 802 674 802 841 l 802 331 q 710 76 802 165 q 442 -13 619 -13 m 442 139 q 573 186 534 139 q 612 343 612 232 l 612 662 q 573 823 612 775 q 442 871 534 871 q 311 823 351 871 q 271 662 271 775 l 271 343 q 311 186 271 232 q 442 139 351 139 m 207 1129 l 144 1222 l 370 1417 l 511 1417 l 740 1222 l 678 1130 l 441 1269 l 207 1129 z "},"Õ":{"ha":884,"x_min":82,"x_max":802,"o":"m 442 -13 q 174 76 265 -13 q 82 331 82 165 l 82 674 q 174 932 82 841 q 443 1023 266 1023 q 711 932 620 1023 q 802 674 802 841 l 802 331 q 710 76 802 165 q 442 -13 619 -13 m 442 139 q 573 186 534 139 q 612 343 612 232 l 612 662 q 573 823 612 775 q 442 871 534 871 q 311 823 351 871 q 271 662 271 775 l 271 343 q 311 186 271 232 q 442 139 351 139 m 553 1149 q 469 1170 500 1149 q 415 1216 438 1192 q 376 1261 394 1240 q 333 1282 357 1282 q 295 1261 312 1282 q 279 1174 278 1240 l 279 1162 l 150 1162 l 150 1181 q 198 1347 150 1280 q 332 1414 245 1414 q 419 1393 386 1414 q 472 1348 451 1372 q 511 1303 494 1324 q 551 1282 529 1282 q 590 1302 573 1282 q 606 1389 607 1323 l 606 1402 l 735 1402 l 735 1383 q 687 1216 735 1283 q 553 1149 639 1149 z "},"Ö":{"ha":884,"x_min":82,"x_max":802,"o":"m 442 -13 q 174 76 265 -13 q 82 331 82 165 l 82 674 q 174 932 82 841 q 443 1023 266 1023 q 711 932 620 1023 q 802 674 802 841 l 802 331 q 710 76 802 165 q 442 -13 619 -13 m 442 139 q 573 186 534 139 q 612 343 612 232 l 612 662 q 573 823 612 775 q 442 871 534 871 q 311 823 351 871 q 271 662 271 775 l 271 343 q 311 186 271 232 q 442 139 351 139 m 287 1136 q 213 1155 241 1136 q 184 1221 184 1174 l 184 1235 q 213 1302 184 1283 q 287 1322 241 1322 q 362 1302 333 1322 q 390 1235 390 1283 l 390 1221 q 361 1155 390 1174 q 287 1136 332 1136 m 597 1136 q 522 1155 551 1136 q 494 1221 494 1174 l 494 1235 q 522 1302 494 1283 q 597 1322 551 1322 q 672 1302 644 1322 q 699 1235 699 1283 l 699 1221 q 670 1155 699 1174 q 597 1136 641 1136 z "},"Ō":{"ha":884,"x_min":82,"x_max":802,"o":"m 442 -13 q 174 76 265 -13 q 82 331 82 165 l 82 674 q 174 932 82 841 q 443 1023 266 1023 q 711 932 620 1023 q 802 674 802 841 l 802 331 q 710 76 802 165 q 442 -13 619 -13 m 442 139 q 573 186 534 139 q 612 343 612 232 l 612 662 q 573 823 612 775 q 442 871 534 871 q 311 823 351 871 q 271 662 271 775 l 271 343 q 311 186 271 232 q 442 139 351 139 m 173 1187 l 173 1338 l 711 1338 l 711 1187 l 173 1187 z "},"Ŏ":{"ha":884,"x_min":82,"x_max":802,"o":"m 442 -13 q 174 76 265 -13 q 82 331 82 165 l 82 674 q 174 932 82 841 q 443 1023 266 1023 q 711 932 620 1023 q 802 674 802 841 l 802 331 q 710 76 802 165 q 442 -13 619 -13 m 442 139 q 573 186 534 139 q 612 343 612 232 l 612 662 q 573 823 612 775 q 442 871 534 871 q 311 823 351 871 q 271 662 271 775 l 271 343 q 311 186 271 232 q 442 139 351 139 m 442 1128 q 211 1194 295 1128 q 126 1412 128 1261 l 290 1412 q 328 1289 292 1324 q 442 1253 364 1253 q 556 1289 520 1253 q 593 1412 592 1324 l 758 1412 q 672 1194 756 1261 q 442 1128 588 1128 z "},"Ő":{"ha":884,"x_min":82,"x_max":802,"o":"m 442 -13 q 174 76 265 -13 q 82 331 82 165 l 82 674 q 174 932 82 841 q 443 1023 266 1023 q 711 932 620 1023 q 802 674 802 841 l 802 331 q 710 76 802 165 q 442 -13 619 -13 m 442 139 q 573 186 534 139 q 612 343 612 232 l 612 662 q 573 823 612 775 q 442 871 534 871 q 311 823 351 871 q 271 662 271 775 l 271 343 q 311 186 271 232 q 442 139 351 139 m 513 1136 l 577 1389 l 785 1389 l 621 1136 l 513 1136 m 222 1136 l 287 1389 l 495 1389 l 331 1136 l 222 1136 z "},"P":{"ha":884,"x_min":95,"x_max":808,"o":"m 95 0 l 95 1010 l 470 1010 q 720 943 633 1010 q 808 732 808 875 l 808 601 q 721 396 808 462 q 470 330 634 330 l 284 330 l 284 0 l 95 0 m 284 479 l 461 479 q 581 508 544 479 q 619 612 619 537 l 619 722 q 581 829 619 799 q 461 859 544 859 l 284 859 l 284 479 z "},"Q":{"ha":884,"x_min":82,"x_max":802,"o":"m 795 -254 q 481 -227 583 -292 q 379 11 379 -162 q 157 112 232 25 q 82 350 82 199 l 82 674 q 174 932 82 842 q 443 1023 266 1023 q 711 932 620 1023 q 802 674 802 842 l 802 350 q 735 123 802 210 q 537 15 668 37 q 596 -93 540 -67 q 774 -96 652 -119 l 795 -254 m 442 158 q 573 206 534 158 q 612 362 612 255 l 612 662 q 573 818 612 771 q 442 865 534 865 q 311 818 351 865 q 271 662 271 771 l 271 362 q 311 206 271 255 q 442 158 351 158 z "},"R":{"ha":884,"x_min":95,"x_max":838,"o":"m 284 523 l 473 523 q 596 552 561 523 q 631 657 631 582 l 631 730 q 596 830 631 801 q 473 859 561 859 l 284 859 l 284 523 m 284 0 l 95 0 l 95 1010 l 494 1010 q 736 941 658 1010 q 814 737 814 872 l 814 653 q 762 473 814 540 q 605 385 710 405 l 838 0 l 635 0 l 409 372 l 284 372 l 284 0 z "},"Ŕ":{"ha":884,"x_min":95,"x_max":838,"o":"m 284 523 l 473 523 q 596 552 561 523 q 631 657 631 582 l 631 730 q 596 830 631 801 q 473 859 561 859 l 284 859 l 284 523 m 284 0 l 95 0 l 95 1010 l 494 1010 q 736 941 658 1010 q 814 737 814 872 l 814 653 q 762 473 814 540 q 605 385 710 405 l 838 0 l 635 0 l 409 372 l 284 372 l 284 0 m 348 1136 l 501 1389 l 754 1389 l 489 1136 l 348 1136 z "},"Ŗ":{"ha":884,"x_min":95,"x_max":838,"o":"m 284 523 l 473 523 q 596 552 561 523 q 631 657 631 582 l 631 730 q 596 830 631 801 q 473 859 561 859 l 284 859 l 284 523 m 284 0 l 95 0 l 95 1010 l 494 1010 q 736 941 658 1010 q 814 737 814 872 l 814 653 q 762 473 814 540 q 605 385 710 405 l 838 0 l 635 0 l 409 372 l 284 372 l 284 0 m 229 -379 l 331 -126 l 583 -126 l 369 -379 l 229 -379 z "},"Ř":{"ha":884,"x_min":95,"x_max":838,"o":"m 284 523 l 473 523 q 596 552 561 523 q 631 657 631 582 l 631 730 q 596 830 631 801 q 473 859 561 859 l 284 859 l 284 523 m 284 0 l 95 0 l 95 1010 l 494 1010 q 736 941 658 1010 q 814 737 814 872 l 814 653 q 762 473 814 540 q 605 385 710 405 l 838 0 l 635 0 l 409 372 l 284 372 l 284 0 m 366 1141 l 138 1336 l 199 1429 l 437 1289 l 670 1429 l 734 1336 l 508 1141 l 366 1141 z "},"S":{"ha":884,"x_min":61,"x_max":812,"o":"m 444 -10 q 232 23 327 -10 q 61 126 136 57 l 134 264 q 274 174 198 206 q 448 141 350 141 q 577 177 532 141 q 622 274 622 213 q 577 369 622 338 q 408 432 532 399 q 161 542 230 477 q 92 729 92 607 q 181 939 92 860 q 428 1019 270 1019 q 621 984 527 1019 q 778 886 715 949 l 712 754 q 577 837 649 808 q 429 866 505 866 q 321 838 360 866 q 282 749 282 811 q 326 659 282 692 q 505 592 370 626 q 745 483 678 549 q 812 292 812 417 q 708 68 812 146 q 444 -10 604 -10 z "},"":{"ha":884,"x_min":61,"x_max":812,"o":"m 444 -10 q 232 23 327 -10 q 61 126 136 57 l 134 264 q 274 174 198 206 q 448 141 350 141 q 577 177 532 141 q 622 274 622 213 q 577 369 622 338 q 408 432 532 399 q 161 542 230 477 q 92 729 92 607 q 181 939 92 860 q 428 1019 270 1019 q 621 984 527 1019 q 778 886 715 949 l 712 754 q 577 837 649 808 q 429 866 505 866 q 321 838 360 866 q 282 749 282 811 q 326 659 282 692 q 505 592 370 626 q 745 483 678 549 q 812 292 812 417 q 708 68 812 146 q 444 -10 604 -10 z "},"Ś":{"ha":884,"x_min":61,"x_max":812,"o":"m 444 -10 q 232 23 327 -10 q 61 126 136 57 l 134 264 q 274 174 198 206 q 448 141 350 141 q 577 177 532 141 q 622 274 622 213 q 577 369 622 338 q 408 432 532 399 q 161 542 230 477 q 92 729 92 607 q 181 939 92 860 q 428 1019 270 1019 q 621 984 527 1019 q 778 886 715 949 l 712 754 q 577 837 649 808 q 429 866 505 866 q 321 838 360 866 q 282 749 282 811 q 326 659 282 692 q 505 592 370 626 q 745 483 678 549 q 812 292 812 417 q 708 68 812 146 q 444 -10 604 -10 m 285 1136 l 438 1389 l 691 1389 l 426 1136 l 285 1136 z "},"Ŝ":{"ha":884,"x_min":61,"x_max":812,"o":"m 444 -10 q 232 23 327 -10 q 61 126 136 57 l 134 264 q 274 174 198 206 q 448 141 350 141 q 577 177 532 141 q 622 274 622 213 q 577 369 622 338 q 408 432 532 399 q 161 542 230 477 q 92 729 92 607 q 181 939 92 860 q 428 1019 270 1019 q 621 984 527 1019 q 778 886 715 949 l 712 754 q 577 837 649 808 q 429 866 505 866 q 321 838 360 866 q 282 749 282 811 q 326 659 282 692 q 505 592 370 626 q 745 483 678 549 q 812 292 812 417 q 708 68 812 146 q 444 -10 604 -10 m 207 1129 l 144 1222 l 370 1417 l 511 1417 l 740 1222 l 678 1130 l 441 1269 l 207 1129 z "},"Ş":{"ha":884,"x_min":61,"x_max":812,"o":"m 444 -10 q 232 23 327 -10 q 61 126 136 57 l 134 264 q 274 174 198 206 q 448 141 350 141 q 577 177 532 141 q 622 274 622 213 q 577 369 622 338 q 408 432 532 399 q 161 542 230 477 q 92 729 92 607 q 181 939 92 860 q 428 1019 270 1019 q 621 984 527 1019 q 778 886 715 949 l 712 754 q 577 837 649 808 q 429 866 505 866 q 321 838 360 866 q 282 749 282 811 q 326 659 282 692 q 505 592 370 626 q 745 483 678 549 q 812 292 812 417 q 708 68 812 146 q 444 -10 604 -10 m 404 0 l 429 53 q 571 6 511 43 q 630 -114 630 -30 q 559 -240 630 -201 q 402 -279 489 -279 q 234 -244 299 -279 q 164 -126 169 -210 l 326 -114 q 343 -147 328 -138 q 393 -157 357 -157 q 447 -142 428 -157 q 466 -85 466 -128 q 453 -28 466 -47 q 404 0 439 -10 z "},"Š":{"ha":884,"x_min":61,"x_max":812,"o":"m 444 -10 q 232 23 327 -10 q 61 126 136 57 l 134 264 q 274 174 198 206 q 448 141 350 141 q 577 177 532 141 q 622 274 622 213 q 577 369 622 338 q 408 432 532 399 q 161 542 230 477 q 92 729 92 607 q 181 939 92 860 q 428 1019 270 1019 q 621 984 527 1019 q 778 886 715 949 l 712 754 q 577 837 649 808 q 429 866 505 866 q 321 838 360 866 q 282 749 282 811 q 326 659 282 692 q 505 592 370 626 q 745 483 678 549 q 812 292 812 417 q 708 68 812 146 q 444 -10 604 -10 m 372 1141 l 144 1336 l 206 1429 l 443 1289 l 677 1429 l 740 1336 l 514 1141 l 372 1141 z "},"Ș":{"ha":884,"x_min":61,"x_max":812,"o":"m 444 -10 q 232 23 327 -10 q 61 126 136 57 l 134 264 q 274 174 198 206 q 448 141 350 141 q 577 177 532 141 q 622 274 622 213 q 577 369 622 338 q 408 432 532 399 q 161 542 230 477 q 92 729 92 607 q 181 939 92 860 q 428 1019 270 1019 q 621 984 527 1019 q 778 886 715 949 l 712 754 q 577 837 649 808 q 429 866 505 866 q 321 838 360 866 q 282 749 282 811 q 326 659 282 692 q 505 592 370 626 q 745 483 678 549 q 812 292 812 417 q 708 68 812 146 q 444 -10 604 -10 m 229 -379 l 331 -126 l 583 -126 l 369 -379 l 229 -379 z "},"T":{"ha":884,"x_min":51,"x_max":833,"o":"m 347 0 l 347 859 l 51 859 l 51 1010 l 833 1010 l 833 859 l 537 859 l 537 0 l 347 0 z "},"Ţ":{"ha":884,"x_min":51,"x_max":833,"o":"m 347 0 l 347 859 l 51 859 l 51 1010 l 833 1010 l 833 859 l 537 859 l 537 0 l 347 0 m 390 0 l 415 53 q 557 6 497 43 q 616 -114 616 -30 q 545 -240 616 -201 q 388 -279 475 -279 q 220 -244 285 -279 q 150 -126 155 -210 l 312 -114 q 329 -147 314 -138 q 379 -157 343 -157 q 433 -142 414 -157 q 452 -85 452 -128 q 439 -28 452 -47 q 390 0 426 -10 z "},"Ť":{"ha":884,"x_min":51,"x_max":833,"o":"m 347 0 l 347 859 l 51 859 l 51 1010 l 833 1010 l 833 859 l 537 859 l 537 0 l 347 0 m 372 1141 l 144 1336 l 206 1429 l 443 1289 l 677 1429 l 740 1336 l 514 1141 l 372 1141 z "},"Ț":{"ha":884,"x_min":51,"x_max":833,"o":"m 347 0 l 347 859 l 51 859 l 51 1010 l 833 1010 l 833 859 l 537 859 l 537 0 l 347 0 m 235 -379 l 337 -126 l 590 -126 l 375 -379 l 235 -379 z "},"U":{"ha":884,"x_min":95,"x_max":789,"o":"m 442 -13 q 180 76 265 -13 q 95 350 95 165 l 95 1010 l 284 1010 l 284 356 q 321 192 284 239 q 442 145 357 145 q 564 192 528 145 q 600 356 600 239 l 600 1010 l 789 1010 l 789 350 q 704 76 789 165 q 442 -13 619 -13 z "},"Ù":{"ha":884,"x_min":95,"x_max":789,"o":"m 442 -13 q 180 76 265 -13 q 95 350 95 165 l 95 1010 l 284 1010 l 284 356 q 321 192 284 239 q 442 145 357 145 q 564 192 528 145 q 600 356 600 239 l 600 1010 l 789 1010 l 789 350 q 704 76 789 165 q 442 -13 619 -13 m 431 1136 l 165 1389 l 418 1389 l 571 1136 l 431 1136 z "},"Ú":{"ha":884,"x_min":95,"x_max":789,"o":"m 442 -13 q 180 76 265 -13 q 95 350 95 165 l 95 1010 l 284 1010 l 284 356 q 321 192 284 239 q 442 145 357 145 q 564 192 528 145 q 600 356 600 239 l 600 1010 l 789 1010 l 789 350 q 704 76 789 165 q 442 -13 619 -13 m 285 1136 l 438 1389 l 691 1389 l 426 1136 l 285 1136 z "},"Û":{"ha":884,"x_min":95,"x_max":789,"o":"m 442 -13 q 180 76 265 -13 q 95 350 95 165 l 95 1010 l 284 1010 l 284 356 q 321 192 284 239 q 442 145 357 145 q 564 192 528 145 q 600 356 600 239 l 600 1010 l 789 1010 l 789 350 q 704 76 789 165 q 442 -13 619 -13 m 207 1129 l 144 1222 l 370 1417 l 511 1417 l 740 1222 l 678 1130 l 441 1269 l 207 1129 z "},"Ü":{"ha":884,"x_min":95,"x_max":789,"o":"m 442 -13 q 180 76 265 -13 q 95 350 95 165 l 95 1010 l 284 1010 l 284 356 q 321 192 284 239 q 442 145 357 145 q 564 192 528 145 q 600 356 600 239 l 600 1010 l 789 1010 l 789 350 q 704 76 789 165 q 442 -13 619 -13 m 287 1136 q 213 1155 241 1136 q 184 1221 184 1174 l 184 1235 q 213 1302 184 1283 q 287 1322 241 1322 q 362 1302 333 1322 q 390 1235 390 1283 l 390 1221 q 361 1155 390 1174 q 287 1136 332 1136 m 597 1136 q 522 1155 551 1136 q 494 1221 494 1174 l 494 1235 q 522 1302 494 1283 q 597 1322 551 1322 q 672 1302 644 1322 q 699 1235 699 1283 l 699 1221 q 670 1155 699 1174 q 597 1136 641 1136 z "},"Ũ":{"ha":884,"x_min":95,"x_max":789,"o":"m 442 -13 q 180 76 265 -13 q 95 350 95 165 l 95 1010 l 284 1010 l 284 356 q 321 192 284 239 q 442 145 357 145 q 564 192 528 145 q 600 356 600 239 l 600 1010 l 789 1010 l 789 350 q 704 76 789 165 q 442 -13 619 -13 m 553 1149 q 469 1170 500 1149 q 415 1216 438 1192 q 376 1261 394 1240 q 333 1282 357 1282 q 295 1261 312 1282 q 279 1174 278 1240 l 279 1162 l 150 1162 l 150 1181 q 198 1347 150 1280 q 332 1414 245 1414 q 419 1393 386 1414 q 472 1348 451 1372 q 511 1303 494 1324 q 551 1282 529 1282 q 590 1302 573 1282 q 606 1389 607 1323 l 606 1402 l 735 1402 l 735 1383 q 687 1216 735 1283 q 553 1149 639 1149 z "},"Ū":{"ha":884,"x_min":95,"x_max":789,"o":"m 442 -13 q 180 76 265 -13 q 95 350 95 165 l 95 1010 l 284 1010 l 284 356 q 321 192 284 239 q 442 145 357 145 q 564 192 528 145 q 600 356 600 239 l 600 1010 l 789 1010 l 789 350 q 704 76 789 165 q 442 -13 619 -13 m 173 1187 l 173 1338 l 711 1338 l 711 1187 l 173 1187 z "},"Ŭ":{"ha":884,"x_min":95,"x_max":789,"o":"m 442 -13 q 180 76 265 -13 q 95 350 95 165 l 95 1010 l 284 1010 l 284 356 q 321 192 284 239 q 442 145 357 145 q 564 192 528 145 q 600 356 600 239 l 600 1010 l 789 1010 l 789 350 q 704 76 789 165 q 442 -13 619 -13 m 442 1128 q 211 1194 295 1128 q 126 1412 128 1261 l 290 1412 q 328 1289 292 1324 q 442 1253 364 1253 q 556 1289 520 1253 q 593 1412 592 1324 l 758 1412 q 672 1194 756 1261 q 442 1128 588 1128 z "},"Ů":{"ha":884,"x_min":95,"x_max":789,"o":"m 442 -13 q 180 76 265 -13 q 95 350 95 165 l 95 1010 l 284 1010 l 284 356 q 321 192 284 239 q 442 145 357 145 q 564 192 528 145 q 600 356 600 239 l 600 1010 l 789 1010 l 789 350 q 704 76 789 165 q 442 -13 619 -13 m 442 1111 q 273 1158 337 1111 q 208 1301 208 1205 l 208 1341 q 273 1487 208 1439 q 442 1534 337 1534 q 612 1487 548 1534 q 676 1341 676 1439 l 676 1301 q 611 1158 676 1205 q 442 1111 547 1111 m 442 1213 q 515 1234 490 1213 q 539 1301 539 1254 l 539 1341 q 515 1410 539 1388 q 442 1432 490 1432 q 369 1410 393 1432 q 345 1341 345 1388 l 345 1301 q 369 1234 345 1254 q 442 1213 393 1213 z "},"Ű":{"ha":884,"x_min":95,"x_max":798,"o":"m 442 -13 q 180 76 265 -13 q 95 350 95 165 l 95 1010 l 284 1010 l 284 356 q 321 192 284 239 q 442 145 357 145 q 564 192 528 145 q 600 356 600 239 l 600 1010 l 789 1010 l 789 350 q 704 76 789 165 q 442 -13 619 -13 m 525 1136 l 590 1389 l 798 1389 l 634 1136 l 525 1136 m 235 1136 l 299 1389 l 508 1389 l 343 1136 l 235 1136 z "},"Ų":{"ha":884,"x_min":95,"x_max":789,"o":"m 532 -278 q 379 -237 437 -278 q 322 -121 322 -197 q 378 4 322 -49 q 501 78 434 58 l 535 29 q 480 -25 492 3 q 467 -77 467 -53 q 490 -128 467 -111 q 559 -145 513 -145 q 615 -141 582 -145 q 676 -133 648 -138 l 676 -263 q 602 -274 641 -270 q 532 -278 563 -278 m 442 -13 q 180 76 265 -13 q 95 350 95 165 l 95 1010 l 284 1010 l 284 356 q 321 192 284 239 q 442 145 357 145 q 564 192 528 145 q 600 356 600 239 l 600 1010 l 789 1010 l 789 350 q 704 76 789 165 q 442 -13 619 -13 z "},"V":{"ha":884,"x_min":32,"x_max":854,"o":"m 559 0 l 326 0 l 32 1010 l 225 1010 l 443 168 l 668 1010 l 854 1010 l 559 0 z "},"W":{"ha":884,"x_min":21,"x_max":864,"o":"m 559 0 l 443 525 l 327 0 l 154 0 l 21 1010 l 191 1010 l 260 226 l 367 758 l 519 758 l 629 236 l 697 1010 l 864 1010 l 730 0 l 559 0 z "},"Ŵ":{"ha":884,"x_min":21,"x_max":864,"o":"m 559 0 l 443 525 l 327 0 l 154 0 l 21 1010 l 191 1010 l 260 226 l 367 758 l 519 758 l 629 236 l 697 1010 l 864 1010 l 730 0 l 559 0 m 207 1129 l 144 1222 l 370 1417 l 511 1417 l 740 1222 l 678 1130 l 441 1269 l 207 1129 z "},"Ẁ":{"ha":884,"x_min":21,"x_max":864,"o":"m 559 0 l 443 525 l 327 0 l 154 0 l 21 1010 l 191 1010 l 260 226 l 367 758 l 519 758 l 629 236 l 697 1010 l 864 1010 l 730 0 l 559 0 m 437 1136 l 172 1389 l 424 1389 l 577 1136 l 437 1136 z "},"Ẃ":{"ha":884,"x_min":21,"x_max":864,"o":"m 559 0 l 443 525 l 327 0 l 154 0 l 21 1010 l 191 1010 l 260 226 l 367 758 l 519 758 l 629 236 l 697 1010 l 864 1010 l 730 0 l 559 0 m 292 1136 l 444 1389 l 697 1389 l 432 1136 l 292 1136 z "},"Ẅ":{"ha":884,"x_min":21,"x_max":864,"o":"m 559 0 l 443 525 l 327 0 l 154 0 l 21 1010 l 191 1010 l 260 226 l 367 758 l 519 758 l 629 236 l 697 1010 l 864 1010 l 730 0 l 559 0 m 293 1136 q 219 1155 247 1136 q 191 1221 191 1174 l 191 1235 q 219 1302 191 1283 q 293 1322 247 1322 q 368 1302 340 1322 q 396 1235 396 1283 l 396 1221 q 367 1155 396 1174 q 293 1136 338 1136 m 604 1136 q 528 1155 557 1136 q 500 1221 500 1174 l 500 1235 q 528 1302 500 1283 q 604 1322 557 1322 q 678 1302 650 1322 q 706 1235 706 1283 l 706 1221 q 677 1155 706 1174 q 604 1136 648 1136 z "},"X":{"ha":884,"x_min":28,"x_max":857,"o":"m 659 0 l 439 365 l 222 0 l 28 0 l 352 518 l 59 1010 l 261 1010 l 462 674 l 664 1010 l 857 1010 l 549 519 l 854 0 l 659 0 z "},"Y":{"ha":884,"x_min":18,"x_max":865,"o":"m 537 0 l 347 0 l 347 379 l 18 1010 l 215 1010 l 444 538 l 670 1010 l 865 1010 l 537 379 l 537 0 z "},"Ý":{"ha":884,"x_min":18,"x_max":865,"o":"m 537 0 l 347 0 l 347 379 l 18 1010 l 215 1010 l 444 538 l 670 1010 l 865 1010 l 537 379 l 537 0 m 285 1136 l 438 1389 l 691 1389 l 426 1136 l 285 1136 z "},"Ŷ":{"ha":884,"x_min":18,"x_max":865,"o":"m 537 0 l 347 0 l 347 379 l 18 1010 l 215 1010 l 444 538 l 670 1010 l 865 1010 l 537 379 l 537 0 m 207 1129 l 144 1222 l 370 1417 l 511 1417 l 740 1222 l 678 1130 l 441 1269 l 207 1129 z "},"Ÿ":{"ha":884,"x_min":18,"x_max":865,"o":"m 537 0 l 347 0 l 347 379 l 18 1010 l 215 1010 l 444 538 l 670 1010 l 865 1010 l 537 379 l 537 0 m 287 1136 q 213 1155 241 1136 q 184 1221 184 1174 l 184 1235 q 213 1302 184 1283 q 287 1322 241 1322 q 362 1302 333 1322 q 390 1235 390 1283 l 390 1221 q 361 1155 390 1174 q 287 1136 332 1136 m 597 1136 q 522 1155 551 1136 q 494 1221 494 1174 l 494 1235 q 522 1302 494 1283 q 597 1322 551 1322 q 672 1302 644 1322 q 699 1235 699 1283 l 699 1221 q 670 1155 699 1174 q 597 1136 641 1136 z "},"Ỳ":{"ha":884,"x_min":18,"x_max":865,"o":"m 537 0 l 347 0 l 347 379 l 18 1010 l 215 1010 l 444 538 l 670 1010 l 865 1010 l 537 379 l 537 0 m 431 1136 l 165 1389 l 418 1389 l 571 1136 l 431 1136 z "},"Z":{"ha":884,"x_min":82,"x_max":802,"o":"m 802 0 l 82 0 l 82 152 l 596 859 l 82 859 l 82 1010 l 802 1010 l 802 859 l 290 152 l 802 152 l 802 0 z "},"Ź":{"ha":884,"x_min":82,"x_max":802,"o":"m 802 0 l 82 0 l 82 152 l 596 859 l 82 859 l 82 1010 l 802 1010 l 802 859 l 290 152 l 802 152 l 802 0 m 323 1136 l 476 1389 l 729 1389 l 463 1136 l 323 1136 z "},"Ż":{"ha":884,"x_min":82,"x_max":802,"o":"m 802 0 l 82 0 l 82 152 l 596 859 l 82 859 l 82 1010 l 802 1010 l 802 859 l 290 152 l 802 152 l 802 0 m 442 1136 q 344 1155 381 1136 q 307 1221 307 1174 l 307 1235 q 344 1302 307 1283 q 442 1322 381 1322 q 540 1302 503 1322 q 577 1235 577 1283 l 577 1221 q 539 1155 577 1174 q 442 1136 501 1136 z "},"Ž":{"ha":884,"x_min":82,"x_max":802,"o":"m 802 0 l 82 0 l 82 152 l 596 859 l 82 859 l 82 1010 l 802 1010 l 802 859 l 290 152 l 802 152 l 802 0 m 372 1141 l 144 1336 l 206 1429 l 443 1289 l 677 1429 l 740 1336 l 514 1141 l 372 1141 z "},"Æ":{"ha":884,"x_min":6,"x_max":865,"o":"m 383 871 l 255 398 l 436 398 l 436 871 l 383 871 m 436 259 l 218 259 l 149 0 l 6 0 l 288 1010 l 865 1010 l 865 871 l 600 871 l 600 612 l 846 612 l 846 473 l 600 473 l 600 139 l 865 139 l 865 0 l 436 0 l 436 259 z "},"Ǽ":{"ha":884,"x_min":6,"x_max":865,"o":"m 383 871 l 255 398 l 436 398 l 436 871 l 383 871 m 436 259 l 218 259 l 149 0 l 6 0 l 288 1010 l 865 1010 l 865 871 l 600 871 l 600 612 l 846 612 l 846 473 l 600 473 l 600 139 l 865 139 l 865 0 l 436 0 l 436 259 m 443 1136 l 596 1389 l 848 1389 l 583 1136 l 443 1136 z "},"Ð":{"ha":884,"x_min":0,"x_max":802,"o":"m 95 0 l 95 490 l 0 490 l 0 622 l 95 622 l 95 1010 l 424 1010 q 701 910 601 1010 q 802 643 802 809 l 802 362 q 701 98 802 197 q 423 0 601 0 l 95 0 m 284 152 l 410 152 q 565 208 518 152 q 612 375 612 264 l 612 630 q 565 801 612 744 q 410 859 518 859 l 284 859 l 284 622 l 442 622 l 442 490 l 284 490 l 284 152 z "},"Ø":{"ha":884,"x_min":82,"x_max":802,"o":"m 273 255 l 515 864 q 481 869 499 867 q 442 871 463 871 q 300 821 341 871 q 259 649 259 770 l 259 356 q 262 300 259 324 q 273 255 265 275 m 442 139 q 585 188 544 139 q 625 356 625 237 l 625 649 q 620 717 625 688 q 604 766 615 746 l 357 152 q 396 142 375 145 q 442 139 418 139 m 442 -13 q 373 -8 407 -13 q 312 5 340 -4 l 259 -126 l 107 -126 l 186 69 q 109 184 135 115 q 82 343 82 254 l 82 662 q 174 929 82 835 q 443 1023 266 1023 q 505 1020 475 1023 q 562 1010 535 1016 l 612 1136 l 764 1136 l 689 949 q 773 831 745 904 q 802 662 802 759 l 802 343 q 710 80 802 173 q 442 -13 619 -13 z "},"Ǿ":{"ha":884,"x_min":82,"x_max":802,"o":"m 273 255 l 515 864 q 481 869 499 867 q 442 871 463 871 q 300 821 341 871 q 259 649 259 770 l 259 356 q 262 300 259 324 q 273 255 265 275 m 442 139 q 585 188 544 139 q 625 356 625 237 l 625 649 q 620 717 625 688 q 604 766 615 746 l 357 152 q 396 142 375 145 q 442 139 418 139 m 442 -13 q 373 -8 407 -13 q 312 5 340 -4 l 259 -126 l 107 -126 l 186 69 q 109 184 135 115 q 82 343 82 254 l 82 662 q 174 929 82 835 q 443 1023 266 1023 q 505 1020 475 1023 q 562 1010 535 1016 l 612 1136 l 764 1136 l 689 949 q 773 831 745 904 q 802 662 802 759 l 802 343 q 710 80 802 173 q 442 -13 619 -13 m 330 1136 l 482 1389 l 735 1389 l 470 1136 l 330 1136 z "},"Þ":{"ha":884,"x_min":95,"x_max":808,"o":"m 95 0 l 95 1010 l 284 1010 l 284 852 l 470 852 q 722 781 635 852 q 808 573 808 710 l 808 446 q 722 242 808 312 q 470 172 635 172 l 284 172 l 284 0 l 95 0 m 284 321 l 455 321 q 581 351 543 321 q 619 451 619 381 l 619 573 q 581 671 619 641 q 455 701 543 701 l 284 701 l 284 321 z "},"Đ":{"ha":884,"x_min":0,"x_max":802,"o":"m 95 0 l 95 490 l 0 490 l 0 622 l 95 622 l 95 1010 l 424 1010 q 701 910 601 1010 q 802 643 802 809 l 802 362 q 701 98 802 197 q 423 0 601 0 l 95 0 m 284 152 l 410 152 q 565 208 518 152 q 612 375 612 264 l 612 630 q 565 801 612 744 q 410 859 518 859 l 284 859 l 284 622 l 442 622 l 442 490 l 284 490 l 284 152 z "},"Ħ":{"ha":884,"x_min":0,"x_max":884,"o":"m 290 537 l 593 537 l 593 701 l 290 701 l 290 537 m 290 385 l 290 0 l 101 0 l 101 701 l 0 701 l 0 833 l 101 833 l 101 1010 l 290 1010 l 290 833 l 593 833 l 593 1010 l 783 1010 l 783 833 l 884 833 l 884 701 l 783 701 l 783 0 l 593 0 l 593 385 l 290 385 z "},"Ĳ":{"ha":884,"x_min":63,"x_max":822,"o":"m 221 0 l 63 0 l 63 1010 l 221 1010 l 221 0 m 574 -13 q 387 64 453 -13 q 317 331 321 140 l 475 345 q 497 170 480 213 q 572 126 514 126 q 645 169 625 126 q 664 290 664 211 l 664 871 l 462 871 l 462 1010 l 822 1010 l 822 284 q 761 66 822 145 q 574 -13 701 -13 z "},"Ŀ":{"ha":884,"x_min":158,"x_max":880,"o":"m 158 0 l 158 1010 l 347 1010 l 347 152 l 789 152 l 789 0 l 158 0 m 745 499 q 647 518 684 499 q 610 583 610 537 l 610 597 q 647 665 610 645 q 745 684 684 684 q 843 665 806 684 q 880 597 880 645 l 880 583 q 842 518 880 537 q 745 499 804 499 z "},"Ł":{"ha":884,"x_min":51,"x_max":789,"o":"m 158 0 l 158 432 l 51 398 l 51 524 l 158 558 l 158 1010 l 347 1010 l 347 617 l 650 713 l 650 587 l 347 491 l 347 152 l 789 152 l 789 0 l 158 0 z "},"Ŋ":{"ha":884,"x_min":95,"x_max":789,"o":"m 484 -264 q 393 -254 439 -264 q 298 -230 347 -245 l 323 -90 q 400 -112 366 -104 q 466 -121 434 -121 q 564 -83 528 -121 q 600 45 600 -44 l 600 712 q 566 831 600 793 q 482 869 533 869 q 382 830 424 869 q 284 722 340 792 l 284 0 l 95 0 l 95 1010 l 284 1010 l 284 852 l 322 852 q 420 979 357 934 q 561 1023 484 1023 q 725 955 660 1023 q 789 763 789 888 l 789 27 q 699 -194 789 -124 q 484 -264 609 -264 z "},"Œ":{"ha":884,"x_min":25,"x_max":871,"o":"m 347 0 q 110 100 196 0 q 25 365 25 199 l 25 645 q 110 910 25 811 q 347 1010 196 1010 l 871 1010 l 871 871 l 600 871 l 600 619 l 840 619 l 840 480 l 600 480 l 600 139 l 871 139 l 871 0 l 347 0 m 360 145 l 436 145 l 436 865 l 360 865 q 228 804 266 865 q 189 633 189 742 l 189 378 q 228 206 189 268 q 360 145 266 145 z "},"Ŧ":{"ha":884,"x_min":51,"x_max":833,"o":"m 347 0 l 347 379 l 120 379 l 120 511 l 347 511 l 347 859 l 51 859 l 51 1010 l 833 1010 l 833 859 l 537 859 l 537 511 l 764 511 l 764 379 l 537 379 l 537 0 l 347 0 z "},"Α":{"ha":884,"x_min":32,"x_max":854,"o":"m 559 410 l 444 847 l 323 410 l 559 410 m 668 0 l 600 259 l 282 259 l 210 0 l 32 0 l 332 1010 l 553 1010 l 854 0 l 668 0 z "},"Ά":{"ha":884,"x_min":-4,"x_max":854,"o":"m 559 410 l 444 847 l 323 410 l 559 410 m 668 0 l 600 259 l 282 259 l 210 0 l 32 0 l 332 1010 l 553 1010 l 854 0 l 668 0 m -4 884 l 73 1136 l 313 1136 l 124 884 l -4 884 z "},"Β":{"ha":884,"x_min":95,"x_max":804,"o":"m 95 0 l 95 1010 l 449 1010 q 692 952 614 1010 q 770 773 770 894 l 770 723 q 734 608 770 650 q 626 553 698 566 l 626 516 q 757 456 710 509 q 804 323 804 404 l 804 263 q 718 64 804 129 q 452 0 633 0 l 95 0 m 284 593 l 443 593 q 551 620 518 593 q 583 706 583 646 l 583 754 q 551 839 583 813 q 443 865 518 865 l 284 865 l 284 593 m 284 145 l 453 145 q 578 176 540 145 q 615 275 615 206 l 615 328 q 578 427 615 396 q 453 457 540 457 l 284 457 l 284 145 z "},"Γ":{"ha":884,"x_min":126,"x_max":814,"o":"m 126 0 l 126 1010 l 814 1010 l 814 859 l 316 859 l 316 0 l 126 0 z "},"Δ":{"ha":884,"x_min":44,"x_max":840,"o":"m 44 0 l 44 152 l 319 1010 l 566 1010 l 840 152 l 840 0 l 44 0 m 657 152 l 442 867 l 221 152 l 657 152 z "},"Ε":{"ha":884,"x_min":95,"x_max":802,"o":"m 95 0 l 95 1010 l 802 1010 l 802 859 l 284 859 l 284 619 l 739 619 l 739 467 l 284 467 l 284 152 l 802 152 l 802 0 l 95 0 z "},"Έ":{"ha":884,"x_min":-187,"x_max":802,"o":"m 95 0 l 95 1010 l 802 1010 l 802 859 l 284 859 l 284 619 l 739 619 l 739 467 l 284 467 l 284 152 l 802 152 l 802 0 l 95 0 m -187 884 l -110 1136 l 130 1136 l -59 884 l -187 884 z "},"Ζ":{"ha":884,"x_min":82,"x_max":802,"o":"m 802 0 l 82 0 l 82 152 l 596 859 l 82 859 l 82 1010 l 802 1010 l 802 859 l 290 152 l 802 152 l 802 0 z "},"Η":{"ha":884,"x_min":95,"x_max":789,"o":"m 95 0 l 95 1010 l 284 1010 l 284 631 l 600 631 l 600 1010 l 789 1010 l 789 0 l 600 0 l 600 480 l 284 480 l 284 0 l 95 0 z "},"Ή":{"ha":884,"x_min":-206,"x_max":789,"o":"m 95 0 l 95 1010 l 284 1010 l 284 631 l 600 631 l 600 1010 l 789 1010 l 789 0 l 600 0 l 600 480 l 284 480 l 284 0 l 95 0 m -206 884 l -129 1136 l 111 1136 l -78 884 l -206 884 z "},"Θ":{"ha":884,"x_min":63,"x_max":821,"o":"m 442 -13 q 160 79 258 -13 q 63 343 63 170 l 63 662 q 161 930 63 837 q 443 1023 259 1023 q 724 930 628 1023 q 821 662 821 837 l 821 343 q 723 79 821 170 q 442 -13 626 -13 m 442 139 q 601 189 552 139 q 650 356 650 239 l 650 649 q 601 820 650 769 q 442 871 552 871 q 283 820 332 871 q 234 649 234 769 l 234 356 q 283 189 234 239 q 442 139 332 139 m 328 442 l 328 581 l 556 581 l 556 442 l 328 442 z "},"Ι":{"ha":884,"x_min":95,"x_max":789,"o":"m 95 0 l 95 152 l 347 152 l 347 859 l 95 859 l 95 1010 l 789 1010 l 789 859 l 537 859 l 537 152 l 789 152 l 789 0 l 95 0 z "},"Ί":{"ha":884,"x_min":-206,"x_max":789,"o":"m 95 0 l 95 152 l 347 152 l 347 859 l 95 859 l 95 1010 l 789 1010 l 789 859 l 537 859 l 537 152 l 789 152 l 789 0 l 95 0 m -206 884 l -129 1136 l 111 1136 l -78 884 l -206 884 z "},"Ϊ":{"ha":884,"x_min":95,"x_max":789,"o":"m 95 0 l 95 152 l 347 152 l 347 859 l 95 859 l 95 1010 l 789 1010 l 789 859 l 537 859 l 537 152 l 789 152 l 789 0 l 95 0 m 287 1136 q 213 1155 241 1136 q 184 1221 184 1174 l 184 1235 q 213 1302 184 1283 q 287 1322 241 1322 q 362 1302 333 1322 q 390 1235 390 1283 l 390 1221 q 361 1155 390 1174 q 287 1136 332 1136 m 597 1136 q 522 1155 551 1136 q 494 1221 494 1174 l 494 1235 q 522 1302 494 1283 q 597 1322 551 1322 q 672 1302 644 1322 q 699 1235 699 1283 l 699 1221 q 670 1155 699 1174 q 597 1136 641 1136 z "},"Κ":{"ha":884,"x_min":95,"x_max":848,"o":"m 284 452 l 284 0 l 95 0 l 95 1010 l 284 1010 l 284 604 l 331 604 l 646 1010 l 848 1010 l 479 544 l 845 0 l 641 0 l 335 452 l 284 452 z "},"Λ":{"ha":884,"x_min":32,"x_max":854,"o":"m 668 0 l 444 847 l 210 0 l 32 0 l 332 1010 l 553 1010 l 854 0 l 668 0 z "},"Μ":{"ha":884,"x_min":69,"x_max":814,"o":"m 372 284 l 223 725 l 237 0 l 69 0 l 69 1010 l 271 1010 l 447 475 l 619 1010 l 814 1010 l 814 0 l 648 0 l 660 721 l 513 284 l 372 284 z "},"Ν":{"ha":884,"x_min":95,"x_max":789,"o":"m 552 0 l 259 759 l 259 0 l 95 0 l 95 1010 l 318 1010 l 625 217 l 625 1010 l 789 1010 l 789 0 l 552 0 z "},"Ξ":{"ha":884,"x_min":82,"x_max":802,"o":"m 82 859 l 82 1010 l 802 1010 l 802 859 l 82 859 m 114 467 l 114 619 l 770 619 l 770 467 l 114 467 m 82 0 l 82 152 l 802 152 l 802 0 l 82 0 z "},"Ο":{"ha":884,"x_min":82,"x_max":802,"o":"m 442 -13 q 174 76 265 -13 q 82 331 82 165 l 82 674 q 174 932 82 841 q 443 1023 266 1023 q 711 932 620 1023 q 802 674 802 841 l 802 331 q 710 76 802 165 q 442 -13 619 -13 m 442 139 q 573 186 534 139 q 612 343 612 232 l 612 662 q 573 823 612 775 q 442 871 534 871 q 311 823 351 871 q 271 662 271 775 l 271 343 q 311 186 271 232 q 442 139 351 139 z "},"Ό":{"ha":884,"x_min":-76,"x_max":806,"o":"m 446 -13 q 177 76 269 -13 q 86 331 86 165 l 86 674 q 178 932 86 841 q 447 1023 270 1023 q 715 932 624 1023 q 806 674 806 841 l 806 331 q 714 76 806 165 q 446 -13 622 -13 m 446 139 q 577 186 538 139 q 616 343 616 232 l 616 662 q 577 823 616 775 q 446 871 538 871 q 315 823 355 871 q 275 662 275 775 l 275 343 q 315 186 275 232 q 446 139 355 139 m -76 884 l 1 1136 l 241 1136 l 52 884 l -76 884 z "},"Π":{"ha":884,"x_min":95,"x_max":789,"o":"m 95 0 l 95 1010 l 789 1010 l 789 0 l 600 0 l 600 859 l 284 859 l 284 0 l 95 0 z "},"Ρ":{"ha":884,"x_min":95,"x_max":808,"o":"m 95 0 l 95 1010 l 470 1010 q 720 943 633 1010 q 808 732 808 875 l 808 601 q 721 396 808 462 q 470 330 634 330 l 284 330 l 284 0 l 95 0 m 284 479 l 461 479 q 581 508 544 479 q 619 612 619 537 l 619 722 q 581 829 619 799 q 461 859 544 859 l 284 859 l 284 479 z "},"Σ":{"ha":884,"x_min":88,"x_max":783,"o":"m 783 0 l 88 0 l 88 152 l 500 519 l 88 859 l 88 1010 l 783 1010 l 783 859 l 299 859 l 631 587 l 631 463 l 284 152 l 783 152 l 783 0 z "},"Τ":{"ha":884,"x_min":51,"x_max":833,"o":"m 347 0 l 347 859 l 51 859 l 51 1010 l 833 1010 l 833 859 l 537 859 l 537 0 l 347 0 z "},"Υ":{"ha":884,"x_min":18,"x_max":865,"o":"m 537 0 l 347 0 l 347 379 l 18 1010 l 215 1010 l 444 538 l 670 1010 l 865 1010 l 537 379 l 537 0 z "},"Ύ":{"ha":884,"x_min":-225,"x_max":865,"o":"m 537 0 l 347 0 l 347 379 l 18 1010 l 215 1010 l 444 538 l 670 1010 l 865 1010 l 537 379 l 537 0 m -225 884 l -148 1136 l 92 1136 l -97 884 l -225 884 z "},"Ϋ":{"ha":884,"x_min":18,"x_max":865,"o":"m 537 0 l 347 0 l 347 379 l 18 1010 l 215 1010 l 444 538 l 670 1010 l 865 1010 l 537 379 l 537 0 m 287 1136 q 213 1155 241 1136 q 184 1221 184 1174 l 184 1235 q 213 1302 184 1283 q 287 1322 241 1322 q 362 1302 333 1322 q 390 1235 390 1283 l 390 1221 q 361 1155 390 1174 q 287 1136 332 1136 m 597 1136 q 522 1155 551 1136 q 494 1221 494 1174 l 494 1235 q 522 1302 494 1283 q 597 1322 551 1322 q 672 1302 644 1322 q 699 1235 699 1283 l 699 1221 q 670 1155 699 1174 q 597 1136 641 1136 z "},"Φ":{"ha":884,"x_min":56,"x_max":830,"o":"m 549 114 l 524 114 l 524 -13 l 360 -13 l 360 114 l 336 114 q 126 205 196 114 q 56 451 56 295 l 56 554 q 126 804 56 712 q 337 896 197 896 l 360 896 l 360 1023 l 524 1023 l 524 896 l 549 896 q 759 804 688 896 q 830 554 830 712 l 830 451 q 759 205 830 295 q 549 114 688 114 m 556 751 l 518 751 l 518 259 l 556 259 q 638 306 614 259 q 663 451 663 352 l 663 554 q 638 702 663 653 q 556 751 614 751 m 333 259 l 366 259 l 366 751 l 333 751 q 246 702 270 751 q 221 554 221 653 l 221 451 q 246 306 221 352 q 333 259 270 259 z "},"Χ":{"ha":884,"x_min":28,"x_max":857,"o":"m 659 0 l 439 365 l 222 0 l 28 0 l 352 518 l 59 1010 l 261 1010 l 462 674 l 664 1010 l 857 1010 l 549 519 l 854 0 l 659 0 z "},"Ψ":{"ha":884,"x_min":74,"x_max":809,"o":"m 524 0 l 360 0 l 360 240 q 146 347 217 259 q 74 577 74 434 l 74 1010 l 237 1010 l 237 583 q 266 449 237 495 q 360 393 295 403 l 360 1010 l 524 1010 l 524 393 q 618 449 588 403 q 648 583 648 495 l 648 1010 l 809 1010 l 809 577 q 738 347 809 434 q 524 240 667 259 l 524 0 z "},"Ω":{"ha":884,"x_min":69,"x_max":814,"o":"m 391 0 l 69 0 l 69 133 l 221 133 l 221 246 q 107 350 144 278 q 69 519 69 423 l 69 662 q 165 931 69 838 q 442 1023 260 1023 q 720 931 625 1023 q 814 662 814 838 l 814 519 q 778 350 814 423 q 663 246 741 278 l 663 133 l 814 133 l 814 0 l 492 0 l 492 290 q 595 366 566 307 q 625 519 625 424 l 625 668 q 581 825 625 779 q 442 871 537 871 q 303 825 347 871 q 259 668 259 779 l 259 519 q 289 366 259 424 q 391 290 319 307 l 391 0 z "},"Ώ":{"ha":884,"x_min":-117,"x_max":814,"o":"m 391 0 l 69 0 l 69 133 l 221 133 l 221 246 q 107 350 144 278 q 69 519 69 423 l 69 662 q 165 931 69 838 q 442 1023 260 1023 q 720 931 625 1023 q 814 662 814 838 l 814 519 q 778 350 814 423 q 663 246 741 278 l 663 133 l 814 133 l 814 0 l 492 0 l 492 290 q 595 366 566 307 q 625 519 625 424 l 625 668 q 581 825 625 779 q 442 871 537 871 q 303 825 347 871 q 259 668 259 779 l 259 519 q 289 366 259 424 q 391 290 319 307 l 391 0 m -117 884 l -40 1136 l 199 1136 l 10 884 l -117 884 z "},"Ω":{"ha":884,"x_min":69,"x_max":814,"o":"m 391 0 l 69 0 l 69 133 l 221 133 l 221 246 q 107 350 144 278 q 69 519 69 423 l 69 662 q 165 931 69 838 q 442 1023 260 1023 q 720 931 625 1023 q 814 662 814 838 l 814 519 q 778 350 814 423 q 663 246 741 278 l 663 133 l 814 133 l 814 0 l 492 0 l 492 290 q 595 366 566 307 q 625 519 625 424 l 625 668 q 581 825 625 779 q 442 871 537 871 q 303 825 347 871 q 259 668 259 779 l 259 519 q 289 366 259 424 q 391 290 319 307 l 391 0 z "},"Ђ":{"ha":884,"x_min":25,"x_max":821,"o":"m 189 0 l 189 859 l 25 859 l 25 1010 l 631 1010 l 631 859 l 379 859 l 379 657 l 505 657 q 741 587 662 657 q 821 371 821 518 l 821 284 q 741 69 821 139 q 505 0 662 0 l 505 149 q 602 179 567 149 q 638 287 638 210 l 638 369 q 602 477 638 447 q 505 508 567 508 l 379 508 l 379 0 l 189 0 z "},"Є":{"ha":884,"x_min":82,"x_max":827,"o":"m 827 337 q 729 72 818 157 q 455 -13 639 -13 q 176 74 270 -13 q 82 331 82 160 l 82 674 q 176 935 82 847 q 456 1023 270 1023 q 727 939 636 1023 q 827 668 818 856 l 638 655 q 590 824 629 777 q 455 871 551 871 q 314 823 356 871 q 271 662 271 775 l 271 619 l 510 619 l 510 467 l 271 467 l 271 343 q 314 186 271 232 q 455 139 356 139 q 590 184 552 139 q 638 350 629 230 l 827 337 z "},"Ѕ":{"ha":884,"x_min":61,"x_max":812,"o":"m 444 -10 q 232 23 327 -10 q 61 126 136 57 l 134 264 q 274 174 198 206 q 448 141 350 141 q 577 177 532 141 q 622 274 622 213 q 577 369 622 338 q 408 432 532 399 q 161 542 230 477 q 92 729 92 607 q 181 939 92 860 q 428 1019 270 1019 q 621 984 527 1019 q 778 886 715 949 l 712 754 q 577 837 649 808 q 429 866 505 866 q 321 838 360 866 q 282 749 282 811 q 326 659 282 692 q 505 592 370 626 q 745 483 678 549 q 812 292 812 417 q 708 68 812 146 q 444 -10 604 -10 z "},"І":{"ha":884,"x_min":95,"x_max":789,"o":"m 95 0 l 95 152 l 347 152 l 347 859 l 95 859 l 95 1010 l 789 1010 l 789 859 l 537 859 l 537 152 l 789 152 l 789 0 l 95 0 z "},"Ї":{"ha":884,"x_min":95,"x_max":789,"o":"m 95 0 l 95 152 l 347 152 l 347 859 l 95 859 l 95 1010 l 789 1010 l 789 859 l 537 859 l 537 152 l 789 152 l 789 0 l 95 0 m 287 1136 q 213 1155 241 1136 q 184 1221 184 1174 l 184 1235 q 213 1302 184 1283 q 287 1322 241 1322 q 362 1302 333 1322 q 390 1235 390 1283 l 390 1221 q 361 1155 390 1174 q 287 1136 332 1136 m 597 1136 q 522 1155 551 1136 q 494 1221 494 1174 l 494 1235 q 522 1302 494 1283 q 597 1322 551 1322 q 672 1302 644 1322 q 699 1235 699 1283 l 699 1221 q 670 1155 699 1174 q 597 1136 641 1136 z "},"Ј":{"ha":884,"x_min":57,"x_max":777,"o":"m 422 -13 q 153 73 240 -13 q 57 343 66 158 l 246 357 q 292 182 255 226 q 422 139 328 139 q 547 184 506 139 q 587 335 587 229 l 587 859 l 316 859 l 316 1010 l 777 1010 l 777 328 q 689 77 777 167 q 422 -13 601 -13 z "},"Љ":{"ha":884,"x_min":-23,"x_max":823,"o":"m 244 188 q 194 40 242 88 q 66 -8 145 -8 q 22 -4 44 -8 q -23 5 0 -1 l 4 152 q 23 146 13 149 q 43 145 34 144 q 78 161 63 144 q 93 230 92 178 l 105 1010 l 527 1010 l 527 681 l 591 681 q 763 617 703 681 q 823 436 823 554 l 823 254 q 763 66 823 131 q 591 0 703 0 l 374 0 l 374 871 l 254 871 l 244 188 m 527 139 l 571 139 q 644 168 617 139 q 670 269 670 197 l 670 418 q 644 516 670 487 q 571 544 617 544 l 527 544 l 527 139 z "},"Њ":{"ha":884,"x_min":62,"x_max":823,"o":"m 527 139 l 577 139 q 646 168 622 139 q 670 269 670 197 l 670 418 q 646 516 670 489 q 577 544 622 544 l 527 544 l 527 139 m 215 480 l 215 0 l 62 0 l 62 1010 l 215 1010 l 215 631 l 374 631 l 374 1010 l 527 1010 l 527 681 l 597 681 q 766 619 708 681 q 823 436 823 557 l 823 254 q 766 64 823 129 q 597 0 708 0 l 374 0 l 374 480 l 215 480 z "},"Ћ":{"ha":884,"x_min":19,"x_max":821,"o":"m 372 0 l 183 0 l 183 859 l 19 859 l 19 1010 l 631 1010 l 631 859 l 372 859 l 372 625 l 505 625 q 742 556 664 625 q 821 346 821 486 l 821 0 l 631 0 l 631 343 q 602 445 631 414 q 505 476 573 476 l 372 476 l 372 0 z "},"Џ":{"ha":884,"x_min":95,"x_max":789,"o":"m 347 -189 l 347 0 l 95 0 l 95 1010 l 284 1010 l 284 152 l 600 152 l 600 1010 l 789 1010 l 789 0 l 537 0 l 537 -189 l 347 -189 z "},"А":{"ha":884,"x_min":32,"x_max":854,"o":"m 559 410 l 444 847 l 323 410 l 559 410 m 668 0 l 600 259 l 282 259 l 210 0 l 32 0 l 332 1010 l 553 1010 l 854 0 l 668 0 z "},"Б":{"ha":884,"x_min":95,"x_max":807,"o":"m 95 0 l 95 1010 l 749 1010 l 749 859 l 284 859 l 284 612 l 485 612 q 723 544 640 612 q 807 348 807 476 l 807 282 q 723 73 807 146 q 486 0 640 0 l 95 0 m 284 152 l 460 152 q 582 184 547 152 q 617 289 617 217 l 617 330 q 582 431 617 399 q 460 463 547 463 l 284 463 l 284 152 z "},"В":{"ha":884,"x_min":95,"x_max":804,"o":"m 95 0 l 95 1010 l 449 1010 q 692 952 614 1010 q 770 773 770 894 l 770 723 q 734 608 770 650 q 626 553 698 566 l 626 516 q 757 456 710 509 q 804 323 804 404 l 804 263 q 718 64 804 129 q 452 0 633 0 l 95 0 m 284 593 l 443 593 q 551 620 518 593 q 583 706 583 646 l 583 754 q 551 839 583 813 q 443 865 518 865 l 284 865 l 284 593 m 284 145 l 453 145 q 578 176 540 145 q 615 275 615 206 l 615 328 q 578 427 615 396 q 453 457 540 457 l 284 457 l 284 145 z "},"Г":{"ha":884,"x_min":126,"x_max":814,"o":"m 126 0 l 126 1010 l 814 1010 l 814 859 l 316 859 l 316 0 l 126 0 z "},"Ѓ":{"ha":884,"x_min":126,"x_max":814,"o":"m 126 0 l 126 1010 l 814 1010 l 814 859 l 316 859 l 316 0 l 126 0 m 336 1136 l 489 1389 l 741 1389 l 476 1136 l 336 1136 z "},"Д":{"ha":884,"x_min":6,"x_max":859,"o":"m 279 179 l 279 152 l 568 152 l 568 859 l 341 859 l 337 384 q 324 261 336 312 q 279 179 313 210 m 183 0 l 183 -189 l 6 -189 l 6 152 l 96 152 q 146 232 129 177 q 164 390 163 287 l 169 1010 l 745 1010 l 745 152 l 859 152 l 859 -189 l 682 -189 l 682 0 l 183 0 z "},"Е":{"ha":884,"x_min":95,"x_max":802,"o":"m 95 0 l 95 1010 l 802 1010 l 802 859 l 284 859 l 284 619 l 739 619 l 739 467 l 284 467 l 284 152 l 802 152 l 802 0 l 95 0 z "},"Ѐ":{"ha":884,"x_min":95,"x_max":802,"o":"m 95 0 l 95 1010 l 802 1010 l 802 859 l 284 859 l 284 619 l 739 619 l 739 467 l 284 467 l 284 152 l 802 152 l 802 0 l 95 0 m 437 1136 l 172 1389 l 424 1389 l 577 1136 l 437 1136 z "},"Ё":{"ha":884,"x_min":95,"x_max":802,"o":"m 95 0 l 95 1010 l 802 1010 l 802 859 l 284 859 l 284 619 l 739 619 l 739 467 l 284 467 l 284 152 l 802 152 l 802 0 l 95 0 m 312 1136 q 238 1155 266 1136 q 210 1221 210 1174 l 210 1235 q 238 1302 210 1283 q 312 1322 266 1322 q 387 1302 359 1322 q 415 1235 415 1283 l 415 1221 q 386 1155 415 1174 q 312 1136 357 1136 m 622 1136 q 547 1155 576 1136 q 519 1221 519 1174 l 519 1235 q 547 1302 519 1283 q 622 1322 576 1322 q 697 1302 669 1322 q 725 1235 725 1283 l 725 1221 q 696 1155 725 1174 q 622 1136 667 1136 z "},"Ж":{"ha":884,"x_min":14,"x_max":871,"o":"m 317 461 l 173 0 l 14 0 l 198 558 l 14 1010 l 172 1010 l 321 593 l 370 593 l 370 1010 l 515 1010 l 515 593 l 564 593 l 713 1010 l 871 1010 l 691 556 l 871 0 l 712 0 l 569 461 l 515 461 l 515 0 l 370 0 l 370 461 l 317 461 z "},"З":{"ha":884,"x_min":69,"x_max":802,"o":"m 438 -13 q 167 59 255 -13 q 69 284 78 131 l 259 297 q 310 171 269 206 q 437 136 351 136 q 573 170 533 136 q 612 279 612 203 l 612 313 q 572 424 612 391 q 442 457 532 457 l 309 457 l 309 607 l 442 607 q 553 631 519 607 q 587 715 587 655 l 587 755 q 551 847 587 819 q 436 874 515 874 q 328 843 364 874 q 284 736 293 812 l 95 749 q 186 956 104 890 q 429 1023 269 1023 q 689 963 602 1023 q 777 769 777 904 l 777 737 q 726 611 777 659 q 585 554 676 563 l 585 518 q 746 449 691 509 q 802 303 802 390 l 802 275 q 718 59 802 131 q 438 -13 635 -13 z "},"И":{"ha":884,"x_min":95,"x_max":789,"o":"m 622 0 l 622 758 l 332 0 l 95 0 l 95 1010 l 263 1010 l 263 217 l 566 1010 l 789 1010 l 789 0 l 622 0 z "},"Ѝ":{"ha":884,"x_min":95,"x_max":789,"o":"m 622 0 l 622 758 l 332 0 l 95 0 l 95 1010 l 263 1010 l 263 217 l 566 1010 l 789 1010 l 789 0 l 622 0 m 412 1136 l 146 1389 l 399 1389 l 552 1136 l 412 1136 z "},"Й":{"ha":884,"x_min":95,"x_max":789,"o":"m 622 0 l 622 758 l 332 0 l 95 0 l 95 1010 l 263 1010 l 263 217 l 566 1010 l 789 1010 l 789 0 l 622 0 m 448 1128 q 237 1188 326 1128 q 149 1399 148 1249 l 319 1412 q 347 1289 319 1326 q 448 1253 375 1253 q 549 1289 521 1253 q 577 1412 577 1326 l 747 1399 q 660 1188 749 1249 q 448 1128 571 1128 z "},"К":{"ha":884,"x_min":95,"x_max":848,"o":"m 284 452 l 284 0 l 95 0 l 95 1010 l 284 1010 l 284 604 l 331 604 l 646 1010 l 848 1010 l 479 544 l 845 0 l 641 0 l 335 452 l 284 452 z "},"Ќ":{"ha":884,"x_min":95,"x_max":848,"o":"m 284 452 l 284 0 l 95 0 l 95 1010 l 284 1010 l 284 604 l 331 604 l 646 1010 l 848 1010 l 479 544 l 845 0 l 641 0 l 335 452 l 284 452 m 372 1136 l 525 1389 l 778 1389 l 513 1136 l 372 1136 z "},"Л":{"ha":884,"x_min":-1,"x_max":789,"o":"m 600 0 l 600 859 l 369 859 l 366 298 q 301 62 365 139 q 119 -15 236 -15 q 58 -10 88 -15 q -1 4 28 -5 l 23 155 q 57 146 42 150 q 88 143 73 143 q 156 181 133 143 q 181 314 179 220 l 184 1010 l 789 1010 l 789 0 l 600 0 z "},"М":{"ha":884,"x_min":69,"x_max":814,"o":"m 372 284 l 223 725 l 237 0 l 69 0 l 69 1010 l 271 1010 l 447 475 l 619 1010 l 814 1010 l 814 0 l 648 0 l 660 721 l 513 284 l 372 284 z "},"Н":{"ha":884,"x_min":95,"x_max":789,"o":"m 95 0 l 95 1010 l 284 1010 l 284 631 l 600 631 l 600 1010 l 789 1010 l 789 0 l 600 0 l 600 480 l 284 480 l 284 0 l 95 0 z "},"О":{"ha":884,"x_min":82,"x_max":802,"o":"m 442 -13 q 174 76 265 -13 q 82 331 82 165 l 82 674 q 174 932 82 841 q 443 1023 266 1023 q 711 932 620 1023 q 802 674 802 841 l 802 331 q 710 76 802 165 q 442 -13 619 -13 m 442 139 q 573 186 534 139 q 612 343 612 232 l 612 662 q 573 823 612 775 q 442 871 534 871 q 311 823 351 871 q 271 662 271 775 l 271 343 q 311 186 271 232 q 442 139 351 139 z "},"П":{"ha":884,"x_min":95,"x_max":789,"o":"m 95 0 l 95 1010 l 789 1010 l 789 0 l 600 0 l 600 859 l 284 859 l 284 0 l 95 0 z "},"Р":{"ha":884,"x_min":95,"x_max":808,"o":"m 95 0 l 95 1010 l 470 1010 q 720 943 633 1010 q 808 732 808 875 l 808 601 q 721 396 808 462 q 470 330 634 330 l 284 330 l 284 0 l 95 0 m 284 479 l 461 479 q 581 508 544 479 q 619 612 619 537 l 619 722 q 581 829 619 799 q 461 859 544 859 l 284 859 l 284 479 z "},"С":{"ha":884,"x_min":82,"x_max":827,"o":"m 455 -13 q 175 73 268 -13 q 82 331 82 159 l 82 674 q 176 936 82 848 q 456 1023 269 1023 q 731 939 644 1023 q 827 668 818 856 l 638 655 q 590 827 629 783 q 455 871 552 871 q 313 823 355 871 q 271 662 271 775 l 271 343 q 313 186 271 232 q 455 139 355 139 q 590 182 552 139 q 638 350 628 226 l 827 337 q 730 70 818 153 q 455 -13 643 -13 z "},"Т":{"ha":884,"x_min":51,"x_max":833,"o":"m 347 0 l 347 859 l 51 859 l 51 1010 l 833 1010 l 833 859 l 537 859 l 537 0 l 347 0 z "},"У":{"ha":884,"x_min":43,"x_max":840,"o":"m 234 -5 q 161 -1 198 -5 q 86 11 124 4 l 107 163 q 176 152 145 155 q 232 148 207 148 q 325 174 290 148 q 384 265 360 201 l 390 284 l 318 284 l 43 1010 l 230 1010 l 442 429 l 655 1010 l 840 1010 l 540 220 q 418 47 494 100 q 234 -5 342 -5 z "},"Ў":{"ha":884,"x_min":43,"x_max":840,"o":"m 234 -5 q 161 -1 198 -5 q 86 11 124 4 l 107 163 q 176 152 145 155 q 232 148 207 148 q 325 174 290 148 q 384 265 360 201 l 390 284 l 318 284 l 43 1010 l 230 1010 l 442 429 l 655 1010 l 840 1010 l 540 220 q 418 47 494 100 q 234 -5 342 -5 m 442 1128 q 230 1188 319 1128 q 143 1399 141 1249 l 313 1412 q 341 1289 313 1326 q 442 1253 369 1253 q 543 1289 515 1253 q 571 1412 571 1326 l 741 1399 q 653 1188 742 1249 q 442 1128 564 1128 z "},"Ф":{"ha":884,"x_min":56,"x_max":830,"o":"m 549 114 l 524 114 l 524 -13 l 360 -13 l 360 114 l 336 114 q 126 205 196 114 q 56 451 56 295 l 56 554 q 126 804 56 712 q 337 896 197 896 l 360 896 l 360 1023 l 524 1023 l 524 896 l 549 896 q 759 804 688 896 q 830 554 830 712 l 830 451 q 759 205 830 295 q 549 114 688 114 m 556 751 l 518 751 l 518 259 l 556 259 q 638 306 614 259 q 663 451 663 352 l 663 554 q 638 702 663 653 q 556 751 614 751 m 333 259 l 366 259 l 366 751 l 333 751 q 246 702 270 751 q 221 554 221 653 l 221 451 q 246 306 221 352 q 333 259 270 259 z "},"Х":{"ha":884,"x_min":28,"x_max":857,"o":"m 659 0 l 439 365 l 222 0 l 28 0 l 352 518 l 59 1010 l 261 1010 l 462 674 l 664 1010 l 857 1010 l 549 519 l 854 0 l 659 0 z "},"Ц":{"ha":884,"x_min":95,"x_max":852,"o":"m 663 -189 l 663 0 l 95 0 l 95 1010 l 284 1010 l 284 152 l 549 152 l 549 1010 l 739 1010 l 739 152 l 852 152 l 852 -189 l 663 -189 z "},"Ч":{"ha":884,"x_min":92,"x_max":787,"o":"m 787 1010 l 787 0 l 597 0 l 597 335 l 439 335 q 175 405 258 335 q 92 633 92 476 l 92 1010 l 282 1010 l 282 635 q 319 520 282 556 q 439 484 356 484 l 597 484 l 597 1010 l 787 1010 z "},"Ш":{"ha":884,"x_min":62,"x_max":823,"o":"m 62 0 l 62 1010 l 222 1010 l 222 143 l 364 143 l 364 1010 l 520 1010 l 520 143 l 662 143 l 662 1010 l 823 1010 l 823 0 l 62 0 z "},"Щ":{"ha":884,"x_min":62,"x_max":878,"o":"m 878 -221 l 711 -221 l 711 0 l 62 0 l 62 1010 l 222 1010 l 222 143 l 364 143 l 364 1010 l 520 1010 l 520 143 l 662 143 l 662 1010 l 823 1010 l 823 143 l 878 143 l 878 -221 z "},"Ъ":{"ha":884,"x_min":6,"x_max":827,"o":"m 520 0 l 208 0 l 208 859 l 6 859 l 6 1010 l 395 1010 l 395 681 l 520 681 q 751 616 676 681 q 827 417 827 552 l 827 273 q 752 67 827 134 q 520 0 677 0 m 395 152 l 503 152 q 610 183 578 152 q 641 288 641 215 l 641 399 q 610 501 641 471 q 503 532 578 532 l 395 532 l 395 152 z "},"Ы":{"ha":884,"x_min":74,"x_max":811,"o":"m 74 0 l 74 1010 l 235 1010 l 235 681 l 287 681 q 484 617 419 681 q 549 423 549 554 l 549 266 q 484 66 549 131 q 287 0 419 0 l 74 0 m 649 0 l 649 1010 l 811 1010 l 811 0 l 649 0 m 235 143 l 284 143 q 364 174 337 143 q 391 282 391 205 l 391 405 q 364 511 391 481 q 284 540 337 540 l 235 540 l 235 143 z "},"Ь":{"ha":884,"x_min":95,"x_max":827,"o":"m 95 0 l 95 1010 l 284 1010 l 284 681 l 489 681 q 742 615 658 681 q 827 417 827 549 l 827 273 q 742 68 827 136 q 489 0 658 0 l 95 0 m 284 152 l 467 152 q 594 182 551 152 q 638 288 638 212 l 638 399 q 594 502 638 472 q 467 532 551 532 l 284 532 l 284 152 z "},"Э":{"ha":884,"x_min":69,"x_max":814,"o":"m 442 -13 q 170 71 261 -13 q 69 337 78 154 l 259 350 q 307 184 269 230 q 442 139 346 139 q 587 189 549 139 q 625 343 625 239 l 625 467 l 362 467 l 362 619 l 625 619 l 625 662 q 584 823 625 775 q 442 871 543 871 q 307 824 346 871 q 259 655 268 777 l 69 668 q 169 938 78 854 q 441 1023 260 1023 q 722 937 629 1023 q 814 674 814 851 l 814 331 q 722 73 814 158 q 442 -13 630 -13 z "},"Ю":{"ha":884,"x_min":62,"x_max":823,"o":"m 574 -13 q 389 68 449 -13 q 328 287 328 149 l 328 470 l 222 470 l 222 0 l 62 0 l 62 1010 l 222 1010 l 222 616 l 328 616 l 328 718 q 390 941 328 859 q 576 1023 451 1023 q 762 941 701 1023 q 823 718 823 859 l 823 287 q 762 68 823 149 q 574 -13 701 -13 m 574 136 q 643 172 625 136 q 662 287 662 208 l 662 718 q 643 836 662 798 q 574 874 625 874 q 506 836 525 874 q 487 718 487 798 l 487 287 q 506 172 487 208 q 574 136 525 136 z "},"Я":{"ha":884,"x_min":45,"x_max":789,"o":"m 410 523 l 600 523 l 600 859 l 410 859 q 288 830 323 859 q 253 730 253 802 l 253 658 q 288 553 253 583 q 410 523 323 523 m 600 372 l 468 372 l 254 0 l 45 0 l 275 388 q 121 475 172 409 q 69 653 69 542 l 69 737 q 150 942 69 874 q 390 1010 230 1010 l 789 1010 l 789 0 l 600 0 l 600 372 z "},"Ґ":{"ha":884,"x_min":126,"x_max":814,"o":"m 126 0 l 126 1010 l 625 1010 l 625 1199 l 814 1199 l 814 859 l 316 859 l 316 0 l 126 0 z "},"a":{"ha":884,"x_min":69,"x_max":852,"o":"m 355 117 q 453 134 408 117 q 537 188 499 152 l 537 311 l 347 311 q 273 290 301 311 q 246 212 246 270 q 271 142 246 167 q 355 117 297 117 m 313 -13 q 140 43 210 -13 q 69 206 69 98 q 140 366 69 309 q 321 422 211 422 l 537 422 l 537 519 q 503 602 537 576 q 400 629 468 629 q 297 605 331 629 q 245 510 263 582 l 87 542 q 187 717 112 663 q 404 770 261 770 q 636 711 552 770 q 720 527 720 652 l 720 221 q 754 149 720 163 q 852 144 788 135 l 852 1 q 694 7 760 -18 q 611 120 628 32 l 580 120 q 471 27 542 66 q 313 -13 400 -13 z "},"à":{"ha":884,"x_min":69,"x_max":852,"o":"m 355 117 q 453 134 408 117 q 537 188 499 152 l 537 311 l 347 311 q 273 290 301 311 q 246 212 246 270 q 271 142 246 167 q 355 117 297 117 m 313 -13 q 140 43 210 -13 q 69 206 69 98 q 140 366 69 309 q 321 422 211 422 l 537 422 l 537 519 q 503 602 537 576 q 400 629 468 629 q 297 605 331 629 q 245 510 263 582 l 87 542 q 187 717 112 663 q 404 770 261 770 q 636 711 552 770 q 720 527 720 652 l 720 221 q 754 149 720 163 q 852 144 788 135 l 852 1 q 694 7 760 -18 q 611 120 628 32 l 580 120 q 471 27 542 66 q 313 -13 400 -13 m 412 884 l 146 1136 l 399 1136 l 552 884 l 412 884 z "},"á":{"ha":884,"x_min":69,"x_max":852,"o":"m 355 117 q 453 134 408 117 q 537 188 499 152 l 537 311 l 347 311 q 273 290 301 311 q 246 212 246 270 q 271 142 246 167 q 355 117 297 117 m 313 -13 q 140 43 210 -13 q 69 206 69 98 q 140 366 69 309 q 321 422 211 422 l 537 422 l 537 519 q 503 602 537 576 q 400 629 468 629 q 297 605 331 629 q 245 510 263 582 l 87 542 q 187 717 112 663 q 404 770 261 770 q 636 711 552 770 q 720 527 720 652 l 720 221 q 754 149 720 163 q 852 144 788 135 l 852 1 q 694 7 760 -18 q 611 120 628 32 l 580 120 q 471 27 542 66 q 313 -13 400 -13 m 266 884 l 419 1136 l 672 1136 l 407 884 l 266 884 z "},"â":{"ha":884,"x_min":69,"x_max":852,"o":"m 355 117 q 453 134 408 117 q 537 188 499 152 l 537 311 l 347 311 q 273 290 301 311 q 246 212 246 270 q 271 142 246 167 q 355 117 297 117 m 313 -13 q 140 43 210 -13 q 69 206 69 98 q 140 366 69 309 q 321 422 211 422 l 537 422 l 537 519 q 503 602 537 576 q 400 629 468 629 q 297 605 331 629 q 245 510 263 582 l 87 542 q 187 717 112 663 q 404 770 261 770 q 636 711 552 770 q 720 527 720 652 l 720 221 q 754 149 720 163 q 852 144 788 135 l 852 1 q 694 7 760 -18 q 611 120 628 32 l 580 120 q 471 27 542 66 q 313 -13 400 -13 m 194 876 l 131 970 l 357 1164 l 499 1164 l 727 970 l 665 878 l 428 1016 l 194 876 z "},"ã":{"ha":884,"x_min":69,"x_max":852,"o":"m 355 117 q 453 134 408 117 q 537 188 499 152 l 537 311 l 347 311 q 273 290 301 311 q 246 212 246 270 q 271 142 246 167 q 355 117 297 117 m 313 -13 q 140 43 210 -13 q 69 206 69 98 q 140 366 69 309 q 321 422 211 422 l 537 422 l 537 519 q 503 602 537 576 q 400 629 468 629 q 297 605 331 629 q 245 510 263 582 l 87 542 q 187 717 112 663 q 404 770 261 770 q 636 711 552 770 q 720 527 720 652 l 720 221 q 754 149 720 163 q 852 144 788 135 l 852 1 q 694 7 760 -18 q 611 120 628 32 l 580 120 q 471 27 542 66 q 313 -13 400 -13 m 534 896 q 450 918 481 896 q 396 963 419 939 q 357 1008 375 987 q 314 1029 338 1029 q 276 1008 293 1029 q 260 922 259 987 l 260 909 l 131 909 l 131 928 q 179 1095 131 1028 q 313 1162 226 1162 q 400 1141 367 1162 q 453 1096 432 1120 q 492 1051 475 1072 q 532 1029 510 1029 q 571 1050 554 1029 q 587 1136 588 1071 l 587 1149 l 716 1149 l 716 1130 q 668 963 716 1030 q 534 896 620 896 z "},"ä":{"ha":884,"x_min":69,"x_max":852,"o":"m 355 117 q 453 134 408 117 q 537 188 499 152 l 537 311 l 347 311 q 273 290 301 311 q 246 212 246 270 q 271 142 246 167 q 355 117 297 117 m 313 -13 q 140 43 210 -13 q 69 206 69 98 q 140 366 69 309 q 321 422 211 422 l 537 422 l 537 519 q 503 602 537 576 q 400 629 468 629 q 297 605 331 629 q 245 510 263 582 l 87 542 q 187 717 112 663 q 404 770 261 770 q 636 711 552 770 q 720 527 720 652 l 720 221 q 754 149 720 163 q 852 144 788 135 l 852 1 q 694 7 760 -18 q 611 120 628 32 l 580 120 q 471 27 542 66 q 313 -13 400 -13 m 268 884 q 194 903 222 884 q 165 968 165 922 l 165 982 q 194 1050 165 1030 q 268 1069 222 1069 q 343 1050 314 1069 q 371 982 371 1030 l 371 968 q 342 903 371 922 q 268 884 313 884 m 578 884 q 503 903 532 884 q 475 968 475 922 l 475 982 q 503 1050 475 1030 q 578 1069 532 1069 q 653 1050 625 1069 q 681 982 681 1030 l 681 968 q 652 903 681 922 q 578 884 622 884 z "},"å":{"ha":884,"x_min":69,"x_max":852,"o":"m 355 117 q 453 134 408 117 q 537 188 499 152 l 537 311 l 347 311 q 273 290 301 311 q 246 212 246 270 q 271 142 246 167 q 355 117 297 117 m 313 -13 q 140 43 210 -13 q 69 206 69 98 q 140 366 69 309 q 321 422 211 422 l 537 422 l 537 519 q 503 602 537 576 q 400 629 468 629 q 297 605 331 629 q 245 510 263 582 l 87 542 q 187 717 112 663 q 404 770 261 770 q 636 711 552 770 q 720 527 720 652 l 720 221 q 754 149 720 163 q 852 144 788 135 l 852 1 q 694 7 760 -18 q 611 120 628 32 l 580 120 q 471 27 542 66 q 313 -13 400 -13 m 417 859 q 247 905 312 859 q 183 1048 183 952 l 183 1088 q 247 1234 183 1187 q 417 1282 312 1282 q 586 1234 523 1282 q 650 1088 650 1187 l 650 1048 q 586 905 650 952 q 417 859 521 859 m 417 961 q 489 981 465 961 q 514 1048 514 1001 l 514 1088 q 489 1157 514 1135 q 417 1179 465 1179 q 343 1157 367 1179 q 319 1088 319 1135 l 319 1048 q 343 981 319 1001 q 417 961 367 961 z "},"ā":{"ha":884,"x_min":69,"x_max":852,"o":"m 355 117 q 453 134 408 117 q 537 188 499 152 l 537 311 l 347 311 q 273 290 301 311 q 246 212 246 270 q 271 142 246 167 q 355 117 297 117 m 313 -13 q 140 43 210 -13 q 69 206 69 98 q 140 366 69 309 q 321 422 211 422 l 537 422 l 537 519 q 503 602 537 576 q 400 629 468 629 q 297 605 331 629 q 245 510 263 582 l 87 542 q 187 717 112 663 q 404 770 261 770 q 636 711 552 770 q 720 527 720 652 l 720 221 q 754 149 720 163 q 852 144 788 135 l 852 1 q 694 7 760 -18 q 611 120 628 32 l 580 120 q 471 27 542 66 q 313 -13 400 -13 m 148 934 l 148 1086 l 686 1086 l 686 934 l 148 934 z "},"ă":{"ha":884,"x_min":69,"x_max":852,"o":"m 355 117 q 453 134 408 117 q 537 188 499 152 l 537 311 l 347 311 q 273 290 301 311 q 246 212 246 270 q 271 142 246 167 q 355 117 297 117 m 313 -13 q 140 43 210 -13 q 69 206 69 98 q 140 366 69 309 q 321 422 211 422 l 537 422 l 537 519 q 503 602 537 576 q 400 629 468 629 q 297 605 331 629 q 245 510 263 582 l 87 542 q 187 717 112 663 q 404 770 261 770 q 636 711 552 770 q 720 527 720 652 l 720 221 q 754 149 720 163 q 852 144 788 135 l 852 1 q 694 7 760 -18 q 611 120 628 32 l 580 120 q 471 27 542 66 q 313 -13 400 -13 m 417 875 q 186 942 270 875 q 101 1159 102 1009 l 265 1159 q 302 1036 266 1072 q 417 1000 338 1000 q 531 1036 495 1000 q 568 1159 567 1072 l 732 1159 q 647 942 731 1009 q 417 875 563 875 z "},"ą":{"ha":884,"x_min":69,"x_max":903,"o":"m 355 117 q 453 134 408 117 q 537 188 499 152 l 537 311 l 347 311 q 273 290 301 311 q 246 212 246 270 q 271 142 246 167 q 355 117 297 117 m 313 -13 q 140 43 210 -13 q 69 206 69 98 q 140 366 69 309 q 321 422 211 422 l 537 422 l 537 519 q 503 602 537 576 q 400 629 468 629 q 297 605 331 629 q 245 510 263 582 l 87 542 q 187 717 112 663 q 404 770 261 770 q 636 711 552 770 q 720 527 720 652 l 720 221 q 754 149 720 163 q 852 144 788 135 l 852 1 q 694 7 760 -18 q 611 120 628 32 l 580 120 q 471 27 542 66 q 313 -13 400 -13 m 759 -278 q 607 -237 664 -278 q 549 -121 549 -197 q 605 4 549 -49 q 729 78 662 58 l 763 29 q 707 -25 720 3 q 694 -77 694 -53 q 717 -128 694 -111 q 787 -145 740 -145 q 842 -141 809 -145 q 903 -133 875 -138 l 903 -263 q 830 -274 869 -270 q 759 -278 790 -278 z "},"ǻ":{"ha":884,"x_min":69,"x_max":852,"o":"m 355 117 q 453 134 408 117 q 537 188 499 152 l 537 311 l 347 311 q 273 290 301 311 q 246 212 246 270 q 271 142 246 167 q 355 117 297 117 m 313 -13 q 140 43 210 -13 q 69 206 69 98 q 140 366 69 309 q 321 422 211 422 l 537 422 l 537 519 q 503 602 537 576 q 400 629 468 629 q 297 605 331 629 q 245 510 263 582 l 87 542 q 187 717 112 663 q 404 770 261 770 q 636 711 552 770 q 720 527 720 652 l 720 221 q 754 149 720 163 q 852 144 788 135 l 852 1 q 694 7 760 -18 q 611 120 628 32 l 580 120 q 471 27 542 66 q 313 -13 400 -13 m 417 859 q 247 905 312 859 q 183 1048 183 952 l 183 1088 q 247 1234 183 1187 q 417 1282 312 1282 q 586 1234 523 1282 q 650 1088 650 1187 l 650 1048 q 586 905 650 952 q 417 859 521 859 m 417 961 q 489 981 465 961 q 514 1048 514 1001 l 514 1088 q 489 1157 514 1135 q 417 1179 465 1179 q 343 1157 367 1179 q 319 1088 319 1135 l 319 1048 q 343 981 319 1001 q 417 961 367 961 m 330 1263 l 482 1515 l 735 1515 l 470 1263 l 330 1263 z "},"b":{"ha":884,"x_min":101,"x_max":783,"o":"m 433 -10 q 263 14 350 -10 q 101 82 177 38 l 101 1010 l 290 1010 l 290 625 l 328 625 q 419 732 360 694 q 553 770 477 770 q 722 698 660 770 q 783 500 783 626 l 783 277 q 693 64 783 139 q 433 -10 602 -10 m 439 134 q 555 169 516 134 q 593 279 593 203 l 593 475 q 563 581 593 547 q 473 616 532 616 q 381 592 426 616 q 290 518 336 567 l 290 173 q 362 143 326 153 q 439 134 398 134 z "},"":{"ha":884,"x_min":101,"x_max":783,"o":"m 433 -10 q 263 14 350 -10 q 101 82 177 38 l 101 1010 l 290 1010 l 290 625 l 328 625 q 419 732 360 694 q 553 770 477 770 q 722 698 660 770 q 783 500 783 626 l 783 277 q 693 64 783 139 q 433 -10 602 -10 m 439 134 q 555 169 516 134 q 593 279 593 203 l 593 475 q 563 581 593 547 q 473 616 532 616 q 381 592 426 616 q 290 518 336 567 l 290 173 q 362 143 326 153 q 439 134 398 134 z "},"c":{"ha":884,"x_min":101,"x_max":790,"o":"m 457 -13 q 192 62 283 -13 q 101 280 101 138 l 101 477 q 192 695 101 620 q 456 770 283 770 q 696 699 616 770 q 790 497 777 629 l 607 484 q 565 592 602 559 q 451 625 528 625 q 329 588 367 625 q 290 468 290 552 l 290 287 q 330 169 290 206 q 453 133 369 133 q 566 160 529 133 q 607 249 602 187 l 790 235 q 705 51 782 115 q 457 -13 629 -13 z "},"ç":{"ha":884,"x_min":101,"x_max":790,"o":"m 457 -13 q 192 62 283 -13 q 101 280 101 138 l 101 477 q 192 695 101 620 q 456 770 283 770 q 696 699 616 770 q 790 497 777 629 l 607 484 q 565 592 602 559 q 451 625 528 625 q 329 588 367 625 q 290 468 290 552 l 290 287 q 330 169 290 206 q 453 133 369 133 q 566 160 529 133 q 607 249 602 187 l 790 235 q 705 51 782 115 q 457 -13 629 -13 m 431 0 l 456 53 q 597 6 538 43 q 657 -114 657 -30 q 586 -240 657 -201 q 428 -279 515 -279 q 261 -244 326 -279 q 191 -126 196 -210 l 352 -114 q 369 -147 355 -138 q 419 -157 384 -157 q 473 -142 455 -157 q 492 -85 492 -128 q 479 -28 492 -47 q 431 0 466 -10 z "},"ć":{"ha":884,"x_min":101,"x_max":790,"o":"m 457 -13 q 192 62 283 -13 q 101 280 101 138 l 101 477 q 192 695 101 620 q 456 770 283 770 q 696 699 616 770 q 790 497 777 629 l 607 484 q 565 592 602 559 q 451 625 528 625 q 329 588 367 625 q 290 468 290 552 l 290 287 q 330 169 290 206 q 453 133 369 133 q 566 160 529 133 q 607 249 602 187 l 790 235 q 705 51 782 115 q 457 -13 629 -13 m 318 884 l 471 1136 l 723 1136 l 458 884 l 318 884 z "},"ĉ":{"ha":884,"x_min":101,"x_max":790,"o":"m 457 -13 q 192 62 283 -13 q 101 280 101 138 l 101 477 q 192 695 101 620 q 456 770 283 770 q 696 699 616 770 q 790 497 777 629 l 607 484 q 565 592 602 559 q 451 625 528 625 q 329 588 367 625 q 290 468 290 552 l 290 287 q 330 169 290 206 q 453 133 369 133 q 566 160 529 133 q 607 249 602 187 l 790 235 q 705 51 782 115 q 457 -13 629 -13 m 221 876 l 158 970 l 384 1164 l 525 1164 l 754 970 l 692 878 l 455 1016 l 221 876 z "},"ċ":{"ha":884,"x_min":101,"x_max":790,"o":"m 457 -13 q 192 62 283 -13 q 101 280 101 138 l 101 477 q 192 695 101 620 q 456 770 283 770 q 696 699 616 770 q 790 497 777 629 l 607 484 q 565 592 602 559 q 451 625 528 625 q 329 588 367 625 q 290 468 290 552 l 290 287 q 330 169 290 206 q 453 133 369 133 q 566 160 529 133 q 607 249 602 187 l 790 235 q 705 51 782 115 q 457 -13 629 -13 m 449 884 q 352 903 389 884 q 314 968 314 922 l 314 982 q 352 1050 314 1030 q 449 1069 389 1069 q 547 1050 510 1069 q 585 982 585 1030 l 585 968 q 547 903 585 922 q 449 884 509 884 z "},"č":{"ha":884,"x_min":101,"x_max":790,"o":"m 457 -13 q 192 62 283 -13 q 101 280 101 138 l 101 477 q 192 695 101 620 q 456 770 283 770 q 696 699 616 770 q 790 497 777 629 l 607 484 q 565 592 602 559 q 451 625 528 625 q 329 588 367 625 q 290 468 290 552 l 290 287 q 330 169 290 206 q 453 133 369 133 q 566 160 529 133 q 607 249 602 187 l 790 235 q 705 51 782 115 q 457 -13 629 -13 m 380 889 l 152 1083 l 213 1177 l 451 1037 l 684 1177 l 747 1083 l 521 889 l 380 889 z "},"d":{"ha":884,"x_min":101,"x_max":783,"o":"m 410 143 q 504 167 460 143 q 593 240 548 191 l 593 585 q 524 615 562 605 q 446 625 486 625 q 329 589 367 625 q 290 480 290 553 l 290 283 q 321 177 290 211 q 410 143 352 143 m 556 133 q 465 26 524 64 q 331 -13 407 -13 q 161 63 221 -13 q 101 258 101 139 l 101 481 q 186 692 101 616 q 420 768 270 768 q 510 759 466 768 q 593 736 554 751 l 593 1010 l 783 1010 l 783 0 l 593 0 l 593 133 l 556 133 z "},"ď":{"ha":884,"x_min":101,"x_max":1211,"o":"m 410 143 q 504 167 460 143 q 593 240 548 191 l 593 585 q 524 615 562 605 q 446 625 486 625 q 329 589 367 625 q 290 480 290 553 l 290 283 q 321 177 290 211 q 410 143 352 143 m 556 133 q 465 26 524 64 q 331 -13 407 -13 q 161 63 221 -13 q 101 258 101 139 l 101 481 q 186 692 101 616 q 420 768 270 768 q 510 759 466 768 q 593 736 554 751 l 593 1010 l 783 1010 l 783 0 l 593 0 l 593 133 l 556 133 m 879 890 l 962 1263 l 1211 1263 l 995 890 l 879 890 z "},"e":{"ha":884,"x_min":101,"x_max":793,"o":"m 793 173 q 676 29 751 71 q 446 -13 601 -13 q 196 60 292 -13 q 101 277 101 133 l 101 479 q 194 695 101 620 q 443 770 287 770 q 692 694 601 770 q 783 473 783 619 l 783 341 l 290 341 l 290 268 q 328 157 290 193 q 448 120 366 120 q 561 141 520 120 q 629 218 602 163 l 793 173 m 290 491 l 290 452 l 593 452 l 593 480 q 558 604 593 567 q 442 641 523 641 q 326 606 361 641 q 290 491 290 571 z "},"è":{"ha":884,"x_min":101,"x_max":793,"o":"m 793 173 q 676 29 751 71 q 446 -13 601 -13 q 196 60 292 -13 q 101 277 101 133 l 101 479 q 194 695 101 620 q 443 770 287 770 q 692 694 601 770 q 783 473 783 619 l 783 341 l 290 341 l 290 268 q 328 157 290 193 q 448 120 366 120 q 561 141 520 120 q 629 218 602 163 l 793 173 m 290 491 l 290 452 l 593 452 l 593 480 q 558 604 593 567 q 442 641 523 641 q 326 606 361 641 q 290 491 290 571 m 434 884 l 169 1136 l 422 1136 l 574 884 l 434 884 z "},"é":{"ha":884,"x_min":101,"x_max":793,"o":"m 793 173 q 676 29 751 71 q 446 -13 601 -13 q 196 60 292 -13 q 101 277 101 133 l 101 479 q 194 695 101 620 q 443 770 287 770 q 692 694 601 770 q 783 473 783 619 l 783 341 l 290 341 l 290 268 q 328 157 290 193 q 448 120 366 120 q 561 141 520 120 q 629 218 602 163 l 793 173 m 290 491 l 290 452 l 593 452 l 593 480 q 558 604 593 567 q 442 641 523 641 q 326 606 361 641 q 290 491 290 571 m 302 884 l 455 1136 l 707 1136 l 442 884 l 302 884 z "},"ê":{"ha":884,"x_min":101,"x_max":793,"o":"m 793 173 q 676 29 751 71 q 446 -13 601 -13 q 196 60 292 -13 q 101 277 101 133 l 101 479 q 194 695 101 620 q 443 770 287 770 q 692 694 601 770 q 783 473 783 619 l 783 341 l 290 341 l 290 268 q 328 157 290 193 q 448 120 366 120 q 561 141 520 120 q 629 218 602 163 l 793 173 m 290 491 l 290 452 l 593 452 l 593 480 q 558 604 593 567 q 442 641 523 641 q 326 606 361 641 q 290 491 290 571 m 211 876 l 148 970 l 374 1164 l 515 1164 l 744 970 l 682 878 l 444 1016 l 211 876 z "},"ë":{"ha":884,"x_min":101,"x_max":793,"o":"m 793 173 q 676 29 751 71 q 446 -13 601 -13 q 196 60 292 -13 q 101 277 101 133 l 101 479 q 194 695 101 620 q 443 770 287 770 q 692 694 601 770 q 783 473 783 619 l 783 341 l 290 341 l 290 268 q 328 157 290 193 q 448 120 366 120 q 561 141 520 120 q 629 218 602 163 l 793 173 m 290 491 l 290 452 l 593 452 l 593 480 q 558 604 593 567 q 442 641 523 641 q 326 606 361 641 q 290 491 290 571 m 290 884 q 217 903 245 884 q 188 968 188 922 l 188 982 q 217 1050 188 1030 q 290 1069 245 1069 q 366 1050 337 1069 q 394 982 394 1030 l 394 968 q 365 903 394 922 q 290 884 336 884 m 601 884 q 526 903 554 884 q 497 968 497 922 l 497 982 q 526 1050 497 1030 q 601 1069 554 1069 q 676 1050 648 1069 q 703 982 703 1030 l 703 968 q 674 903 703 922 q 601 884 645 884 z "},"ē":{"ha":884,"x_min":101,"x_max":793,"o":"m 793 173 q 676 29 751 71 q 446 -13 601 -13 q 196 60 292 -13 q 101 277 101 133 l 101 479 q 194 695 101 620 q 443 770 287 770 q 692 694 601 770 q 783 473 783 619 l 783 341 l 290 341 l 290 268 q 328 157 290 193 q 448 120 366 120 q 561 141 520 120 q 629 218 602 163 l 793 173 m 290 491 l 290 452 l 593 452 l 593 480 q 558 604 593 567 q 442 641 523 641 q 326 606 361 641 q 290 491 290 571 m 177 934 l 177 1086 l 715 1086 l 715 934 l 177 934 z "},"ĕ":{"ha":884,"x_min":101,"x_max":793,"o":"m 793 173 q 676 29 751 71 q 446 -13 601 -13 q 196 60 292 -13 q 101 277 101 133 l 101 479 q 194 695 101 620 q 443 770 287 770 q 692 694 601 770 q 783 473 783 619 l 783 341 l 290 341 l 290 268 q 328 157 290 193 q 448 120 366 120 q 561 141 520 120 q 629 218 602 163 l 793 173 m 290 491 l 290 452 l 593 452 l 593 480 q 558 604 593 567 q 442 641 523 641 q 326 606 361 641 q 290 491 290 571 m 439 875 q 209 942 293 875 q 124 1159 125 1009 l 288 1159 q 325 1036 289 1072 q 439 1000 361 1000 q 554 1036 518 1000 q 591 1159 590 1072 l 755 1159 q 670 942 754 1009 q 439 875 586 875 z "},"ė":{"ha":884,"x_min":101,"x_max":793,"o":"m 793 173 q 676 29 751 71 q 446 -13 601 -13 q 196 60 292 -13 q 101 277 101 133 l 101 479 q 194 695 101 620 q 443 770 287 770 q 692 694 601 770 q 783 473 783 619 l 783 341 l 290 341 l 290 268 q 328 157 290 193 q 448 120 366 120 q 561 141 520 120 q 629 218 602 163 l 793 173 m 290 491 l 290 452 l 593 452 l 593 480 q 558 604 593 567 q 442 641 523 641 q 326 606 361 641 q 290 491 290 571 m 446 884 q 348 903 385 884 q 311 968 311 922 l 311 982 q 348 1050 311 1030 q 446 1069 385 1069 q 544 1050 506 1069 q 581 982 581 1030 l 581 968 q 543 903 581 922 q 446 884 505 884 z "},"ę":{"ha":884,"x_min":101,"x_max":793,"o":"m 625 -278 q 473 -237 530 -278 q 415 -121 415 -197 q 472 4 415 -49 q 595 78 528 58 l 629 29 q 573 -25 586 3 q 561 -77 561 -53 q 583 -128 561 -111 q 653 -145 606 -145 q 708 -141 676 -145 q 769 -133 741 -138 l 769 -263 q 696 -274 735 -270 q 625 -278 657 -278 m 793 173 q 676 29 751 71 q 446 -13 601 -13 q 196 60 292 -13 q 101 277 101 133 l 101 479 q 194 695 101 620 q 443 770 287 770 q 692 694 601 770 q 783 473 783 619 l 783 341 l 290 341 l 290 268 q 328 157 290 193 q 448 120 366 120 q 561 141 520 120 q 629 218 602 163 l 793 173 m 290 491 l 290 452 l 593 452 l 593 480 q 558 604 593 567 q 442 641 523 641 q 326 606 361 641 q 290 491 290 571 z "},"ě":{"ha":884,"x_min":101,"x_max":793,"o":"m 793 173 q 676 29 751 71 q 446 -13 601 -13 q 196 60 292 -13 q 101 277 101 133 l 101 479 q 194 695 101 620 q 443 770 287 770 q 692 694 601 770 q 783 473 783 619 l 783 341 l 290 341 l 290 268 q 328 157 290 193 q 448 120 366 120 q 561 141 520 120 q 629 218 602 163 l 793 173 m 290 491 l 290 452 l 593 452 l 593 480 q 558 604 593 567 q 442 641 523 641 q 326 606 361 641 q 290 491 290 571 m 376 889 l 148 1083 l 210 1177 l 447 1037 l 681 1177 l 744 1083 l 518 889 l 376 889 z "},"f":{"ha":884,"x_min":88,"x_max":801,"o":"m 297 0 l 297 612 l 88 612 l 88 758 l 297 758 l 297 803 q 381 979 297 915 q 602 1042 466 1042 q 708 1033 658 1042 q 801 1010 758 1024 l 775 878 q 701 896 740 889 q 619 903 662 903 q 521 876 557 903 q 486 793 486 848 l 486 758 l 783 758 l 783 612 l 486 612 l 486 0 l 297 0 z "},"g":{"ha":884,"x_min":51,"x_max":833,"o":"m 833 -47 q 756 -208 833 -150 q 558 -265 679 -265 l 331 -265 q 124 -217 198 -265 q 51 -85 51 -168 q 87 15 51 -23 q 183 59 124 53 l 183 85 q 107 125 138 96 q 77 215 77 154 q 119 321 77 278 q 239 372 162 365 l 239 396 q 146 454 174 414 q 117 540 117 494 l 117 558 q 197 704 117 650 q 405 758 277 758 l 818 758 l 818 631 l 616 658 l 616 634 q 693 584 664 621 q 721 505 721 547 l 721 486 q 645 343 721 395 q 431 292 568 292 l 299 292 q 241 277 261 292 q 220 225 220 261 q 244 173 220 189 q 313 157 268 157 l 568 157 q 759 107 686 157 q 833 -47 833 58 m 420 396 q 516 422 485 396 q 547 494 547 447 l 547 545 q 515 615 547 591 q 420 639 484 639 q 325 615 356 639 q 294 545 294 591 l 294 494 q 325 422 294 447 q 420 396 356 396 m 331 -145 l 564 -145 q 645 -129 614 -145 q 676 -66 676 -112 q 646 -3 676 -19 q 571 14 617 14 l 232 14 l 232 -59 q 257 -124 232 -102 q 331 -145 282 -145 z "},"ĝ":{"ha":884,"x_min":51,"x_max":833,"o":"m 833 -47 q 756 -208 833 -150 q 558 -265 679 -265 l 331 -265 q 124 -217 198 -265 q 51 -85 51 -168 q 87 15 51 -23 q 183 59 124 53 l 183 85 q 107 125 138 96 q 77 215 77 154 q 119 321 77 278 q 239 372 162 365 l 239 396 q 146 454 174 414 q 117 540 117 494 l 117 558 q 197 704 117 650 q 405 758 277 758 l 818 758 l 818 631 l 616 658 l 616 634 q 693 584 664 621 q 721 505 721 547 l 721 486 q 645 343 721 395 q 431 292 568 292 l 299 292 q 241 277 261 292 q 220 225 220 261 q 244 173 220 189 q 313 157 268 157 l 568 157 q 759 107 686 157 q 833 -47 833 58 m 420 396 q 516 422 485 396 q 547 494 547 447 l 547 545 q 515 615 547 591 q 420 639 484 639 q 325 615 356 639 q 294 545 294 591 l 294 494 q 325 422 294 447 q 420 396 356 396 m 331 -145 l 564 -145 q 645 -129 614 -145 q 676 -66 676 -112 q 646 -3 676 -19 q 571 14 617 14 l 232 14 l 232 -59 q 257 -124 232 -102 q 331 -145 282 -145 m 207 876 l 144 970 l 370 1164 l 511 1164 l 740 970 l 678 878 l 441 1016 l 207 876 z "},"ğ":{"ha":884,"x_min":51,"x_max":833,"o":"m 833 -47 q 756 -208 833 -150 q 558 -265 679 -265 l 331 -265 q 124 -217 198 -265 q 51 -85 51 -168 q 87 15 51 -23 q 183 59 124 53 l 183 85 q 107 125 138 96 q 77 215 77 154 q 119 321 77 278 q 239 372 162 365 l 239 396 q 146 454 174 414 q 117 540 117 494 l 117 558 q 197 704 117 650 q 405 758 277 758 l 818 758 l 818 631 l 616 658 l 616 634 q 693 584 664 621 q 721 505 721 547 l 721 486 q 645 343 721 395 q 431 292 568 292 l 299 292 q 241 277 261 292 q 220 225 220 261 q 244 173 220 189 q 313 157 268 157 l 568 157 q 759 107 686 157 q 833 -47 833 58 m 420 396 q 516 422 485 396 q 547 494 547 447 l 547 545 q 515 615 547 591 q 420 639 484 639 q 325 615 356 639 q 294 545 294 591 l 294 494 q 325 422 294 447 q 420 396 356 396 m 331 -145 l 564 -145 q 645 -129 614 -145 q 676 -66 676 -112 q 646 -3 676 -19 q 571 14 617 14 l 232 14 l 232 -59 q 257 -124 232 -102 q 331 -145 282 -145 m 442 875 q 211 942 295 875 q 126 1159 128 1009 l 290 1159 q 328 1036 292 1072 q 442 1000 364 1000 q 556 1036 520 1000 q 593 1159 592 1072 l 758 1159 q 672 942 756 1009 q 442 875 588 875 z "},"ġ":{"ha":884,"x_min":51,"x_max":833,"o":"m 833 -47 q 756 -208 833 -150 q 558 -265 679 -265 l 331 -265 q 124 -217 198 -265 q 51 -85 51 -168 q 87 15 51 -23 q 183 59 124 53 l 183 85 q 107 125 138 96 q 77 215 77 154 q 119 321 77 278 q 239 372 162 365 l 239 396 q 146 454 174 414 q 117 540 117 494 l 117 558 q 197 704 117 650 q 405 758 277 758 l 818 758 l 818 631 l 616 658 l 616 634 q 693 584 664 621 q 721 505 721 547 l 721 486 q 645 343 721 395 q 431 292 568 292 l 299 292 q 241 277 261 292 q 220 225 220 261 q 244 173 220 189 q 313 157 268 157 l 568 157 q 759 107 686 157 q 833 -47 833 58 m 420 396 q 516 422 485 396 q 547 494 547 447 l 547 545 q 515 615 547 591 q 420 639 484 639 q 325 615 356 639 q 294 545 294 591 l 294 494 q 325 422 294 447 q 420 396 356 396 m 331 -145 l 564 -145 q 645 -129 614 -145 q 676 -66 676 -112 q 646 -3 676 -19 q 571 14 617 14 l 232 14 l 232 -59 q 257 -124 232 -102 q 331 -145 282 -145 m 442 884 q 344 903 381 884 q 307 968 307 922 l 307 982 q 344 1050 307 1030 q 442 1069 381 1069 q 540 1050 503 1069 q 577 982 577 1030 l 577 968 q 539 903 577 922 q 442 884 501 884 z "},"ģ":{"ha":884,"x_min":51,"x_max":833,"o":"m 833 -47 q 756 -208 833 -150 q 558 -265 679 -265 l 331 -265 q 124 -217 198 -265 q 51 -85 51 -168 q 87 15 51 -23 q 183 59 124 53 l 183 85 q 107 125 138 96 q 77 215 77 154 q 119 321 77 278 q 239 372 162 365 l 239 396 q 146 454 174 414 q 117 540 117 494 l 117 558 q 197 704 117 650 q 405 758 277 758 l 818 758 l 818 631 l 616 658 l 616 634 q 693 584 664 621 q 721 505 721 547 l 721 486 q 645 343 721 395 q 431 292 568 292 l 299 292 q 241 277 261 292 q 220 225 220 261 q 244 173 220 189 q 313 157 268 157 l 568 157 q 759 107 686 157 q 833 -47 833 58 m 420 396 q 516 422 485 396 q 547 494 547 447 l 547 545 q 515 615 547 591 q 420 639 484 639 q 325 615 356 639 q 294 545 294 591 l 294 494 q 325 422 294 447 q 420 396 356 396 m 331 -145 l 564 -145 q 645 -129 614 -145 q 676 -66 676 -112 q 646 -3 676 -19 q 571 14 617 14 l 232 14 l 232 -59 q 257 -124 232 -102 q 331 -145 282 -145 m 298 884 l 513 1136 l 653 1136 l 551 884 l 298 884 z "},"h":{"ha":884,"x_min":101,"x_max":783,"o":"m 101 0 l 101 1010 l 290 1010 l 290 625 l 328 625 q 418 732 357 693 q 556 770 479 770 q 722 705 660 770 q 783 528 783 639 l 783 0 l 593 0 l 593 480 q 565 581 593 545 q 482 616 537 616 q 385 585 434 616 q 290 495 336 553 l 290 0 l 101 0 z "},"ĥ":{"ha":884,"x_min":-102,"x_max":783,"o":"m 101 0 l 101 1010 l 290 1010 l 290 625 l 328 625 q 418 732 357 693 q 556 770 479 770 q 722 705 660 770 q 783 528 783 639 l 783 0 l 593 0 l 593 480 q 565 581 593 545 q 482 616 537 616 q 385 585 434 616 q 290 495 336 553 l 290 0 l 101 0 m -39 1129 l -102 1222 l 124 1417 l 265 1417 l 494 1222 l 432 1130 l 194 1269 l -39 1129 z "},"i":{"ha":884,"x_min":107,"x_max":777,"o":"m 107 0 l 107 145 l 347 145 l 347 612 l 107 612 l 107 758 l 537 758 l 537 145 l 777 145 l 777 0 l 107 0 m 449 884 q 352 903 389 884 q 314 968 314 922 l 314 982 q 352 1050 314 1030 q 449 1069 389 1069 q 547 1050 510 1069 q 585 982 585 1030 l 585 968 q 547 903 585 922 q 449 884 509 884 z "},"ì":{"ha":884,"x_min":107,"x_max":777,"o":"m 107 0 l 107 145 l 347 145 l 347 612 l 107 612 l 107 758 l 537 758 l 537 145 l 777 145 l 777 0 l 107 0 m 443 884 l 178 1136 l 431 1136 l 583 884 l 443 884 z "},"í":{"ha":884,"x_min":107,"x_max":777,"o":"m 107 0 l 107 145 l 347 145 l 347 612 l 107 612 l 107 758 l 537 758 l 537 145 l 777 145 l 777 0 l 107 0 m 285 884 l 438 1136 l 691 1136 l 426 884 l 285 884 z "},"î":{"ha":884,"x_min":107,"x_max":777,"o":"m 107 0 l 107 145 l 347 145 l 347 612 l 107 612 l 107 758 l 537 758 l 537 145 l 777 145 l 777 0 l 107 0 m 207 876 l 144 970 l 370 1164 l 511 1164 l 740 970 l 678 878 l 441 1016 l 207 876 z "},"ï":{"ha":884,"x_min":107,"x_max":777,"o":"m 107 0 l 107 145 l 347 145 l 347 612 l 107 612 l 107 758 l 537 758 l 537 145 l 777 145 l 777 0 l 107 0 m 287 884 q 213 903 241 884 q 184 968 184 922 l 184 982 q 213 1050 184 1030 q 287 1069 241 1069 q 362 1050 333 1069 q 390 982 390 1030 l 390 968 q 361 903 390 922 q 287 884 332 884 m 597 884 q 522 903 551 884 q 494 968 494 922 l 494 982 q 522 1050 494 1030 q 597 1069 551 1069 q 672 1050 644 1069 q 699 982 699 1030 l 699 968 q 670 903 699 922 q 597 884 641 884 z "},"ĩ":{"ha":884,"x_min":107,"x_max":777,"o":"m 107 0 l 107 145 l 347 145 l 347 612 l 107 612 l 107 758 l 537 758 l 537 145 l 777 145 l 777 0 l 107 0 m 553 896 q 469 918 500 896 q 415 963 438 939 q 376 1008 394 987 q 333 1029 357 1029 q 295 1008 312 1029 q 279 922 278 987 l 279 909 l 150 909 l 150 928 q 198 1095 150 1028 q 332 1162 245 1162 q 419 1141 386 1162 q 472 1096 451 1120 q 511 1051 494 1072 q 551 1029 529 1029 q 590 1050 573 1029 q 606 1136 607 1071 l 606 1149 l 735 1149 l 735 1130 q 687 963 735 1030 q 553 896 639 896 z "},"ī":{"ha":884,"x_min":107,"x_max":777,"o":"m 107 0 l 107 145 l 347 145 l 347 612 l 107 612 l 107 758 l 537 758 l 537 145 l 777 145 l 777 0 l 107 0 m 173 934 l 173 1086 l 711 1086 l 711 934 l 173 934 z "},"ĭ":{"ha":884,"x_min":107,"x_max":777,"o":"m 107 0 l 107 145 l 347 145 l 347 612 l 107 612 l 107 758 l 537 758 l 537 145 l 777 145 l 777 0 l 107 0 m 442 875 q 211 942 295 875 q 126 1159 128 1009 l 290 1159 q 328 1036 292 1072 q 442 1000 364 1000 q 556 1036 520 1000 q 593 1159 592 1072 l 758 1159 q 672 942 756 1009 q 442 875 588 875 z "},"į":{"ha":884,"x_min":107,"x_max":777,"o":"m 449 884 q 352 903 389 884 q 314 968 314 922 l 314 982 q 352 1050 314 1030 q 449 1069 389 1069 q 547 1050 510 1069 q 585 982 585 1030 l 585 968 q 547 903 585 922 q 449 884 509 884 m 107 0 l 107 145 l 347 145 l 347 612 l 107 612 l 107 758 l 537 758 l 537 145 l 777 145 l 777 0 l 107 0 m 544 -278 q 392 -237 449 -278 q 335 -121 335 -197 q 391 4 335 -49 q 514 78 447 58 l 548 29 q 492 -25 505 3 q 480 -77 480 -53 q 503 -128 480 -111 q 572 -145 525 -145 q 628 -141 595 -145 q 688 -133 660 -138 l 688 -263 q 615 -274 654 -270 q 544 -278 576 -278 z "},"j":{"ha":884,"x_min":96,"x_max":689,"o":"m 313 -264 q 205 -258 259 -264 q 96 -236 152 -253 l 121 -96 q 213 -117 170 -112 q 295 -121 256 -121 q 421 -90 375 -121 q 467 14 467 -58 l 467 612 l 134 612 l 134 758 l 657 758 l 657 -5 q 562 -198 657 -131 q 313 -264 467 -264 m 554 884 q 456 903 494 884 q 419 968 419 922 l 419 982 q 456 1050 419 1030 q 554 1069 494 1069 q 652 1050 615 1069 q 689 982 689 1030 l 689 968 q 652 903 689 922 q 554 884 614 884 z "},"ĵ":{"ha":884,"x_min":96,"x_max":817,"o":"m 313 -264 q 205 -258 259 -264 q 96 -236 152 -253 l 121 -96 q 213 -117 170 -112 q 295 -121 256 -121 q 421 -90 375 -121 q 467 14 467 -58 l 467 612 l 134 612 l 134 758 l 657 758 l 657 -5 q 562 -198 657 -131 q 313 -264 467 -264 m 284 876 l 221 970 l 447 1164 l 588 1164 l 817 970 l 755 878 l 518 1016 l 284 876 z "},"k":{"ha":884,"x_min":139,"x_max":808,"o":"m 328 327 l 328 0 l 139 0 l 139 1010 l 328 1010 l 328 462 l 384 462 l 602 758 l 808 758 l 539 412 l 804 0 l 598 0 l 384 327 l 328 327 z "},"ķ":{"ha":884,"x_min":139,"x_max":808,"o":"m 328 327 l 328 0 l 139 0 l 139 1010 l 328 1010 l 328 462 l 384 462 l 602 758 l 808 758 l 539 412 l 804 0 l 598 0 l 384 327 l 328 327 m 264 -379 l 366 -126 l 619 -126 l 404 -379 l 264 -379 z "},"l":{"ha":884,"x_min":114,"x_max":789,"o":"m 114 0 l 114 145 l 360 145 l 360 865 l 114 865 l 114 1010 l 549 1010 l 549 145 l 789 145 l 789 0 l 114 0 z "},"ĺ":{"ha":884,"x_min":114,"x_max":789,"o":"m 114 0 l 114 145 l 360 145 l 360 865 l 114 865 l 114 1010 l 549 1010 l 549 145 l 789 145 l 789 0 l 114 0 m 292 1136 l 444 1389 l 697 1389 l 432 1136 l 292 1136 z "},"ļ":{"ha":884,"x_min":114,"x_max":789,"o":"m 114 0 l 114 145 l 360 145 l 360 865 l 114 865 l 114 1010 l 549 1010 l 549 145 l 789 145 l 789 0 l 114 0 m 229 -379 l 331 -126 l 583 -126 l 369 -379 l 229 -379 z "},"ľ":{"ha":884,"x_min":114,"x_max":990,"o":"m 114 0 l 114 145 l 360 145 l 360 865 l 114 865 l 114 1010 l 549 1010 l 549 145 l 789 145 l 789 0 l 114 0 m 658 890 l 741 1263 l 990 1263 l 774 890 l 658 890 z "},"m":{"ha":884,"x_min":62,"x_max":823,"o":"m 222 539 l 222 0 l 62 0 l 62 758 l 221 758 l 221 657 l 253 657 q 312 739 277 710 q 390 768 347 768 q 468 739 436 768 q 514 657 501 711 l 545 657 q 607 739 568 710 q 696 768 646 768 q 789 719 754 768 q 823 587 823 670 l 823 0 l 663 0 l 663 554 q 652 619 663 597 q 619 641 640 641 q 572 614 598 641 q 521 539 545 587 l 521 0 l 364 0 l 364 554 q 352 619 364 597 q 319 641 340 641 q 273 616 299 641 q 222 539 247 590 z "},"n":{"ha":884,"x_min":101,"x_max":783,"o":"m 101 0 l 101 758 l 290 758 l 290 625 l 328 625 q 420 732 357 693 q 562 770 482 770 q 724 705 665 770 q 783 527 783 640 l 783 0 l 593 0 l 593 492 q 565 585 593 553 q 482 616 537 616 q 384 589 434 616 q 290 508 333 562 l 290 0 l 101 0 z "},"ñ":{"ha":884,"x_min":101,"x_max":783,"o":"m 101 0 l 101 758 l 290 758 l 290 625 l 328 625 q 420 732 357 693 q 562 770 482 770 q 724 705 665 770 q 783 527 783 640 l 783 0 l 593 0 l 593 492 q 565 585 593 553 q 482 616 537 616 q 384 589 434 616 q 290 508 333 562 l 290 0 l 101 0 m 578 896 q 494 918 525 896 q 441 963 463 939 q 401 1008 419 987 q 359 1029 383 1029 q 320 1008 337 1029 q 304 922 303 987 l 304 909 l 176 909 l 176 928 q 223 1095 176 1028 q 357 1162 270 1162 q 444 1141 412 1162 q 497 1096 476 1120 q 537 1051 519 1072 q 576 1029 554 1029 q 616 1050 598 1029 q 631 1136 633 1071 l 631 1149 l 760 1149 l 760 1130 q 712 963 760 1030 q 578 896 664 896 z "},"ń":{"ha":884,"x_min":101,"x_max":783,"o":"m 101 0 l 101 758 l 290 758 l 290 625 l 328 625 q 420 732 357 693 q 562 770 482 770 q 724 705 665 770 q 783 527 783 640 l 783 0 l 593 0 l 593 492 q 565 585 593 553 q 482 616 537 616 q 384 589 434 616 q 290 508 333 562 l 290 0 l 101 0 m 311 884 l 463 1136 l 716 1136 l 451 884 l 311 884 z "},"ņ":{"ha":884,"x_min":101,"x_max":783,"o":"m 254 -379 l 356 -126 l 609 -126 l 394 -379 l 254 -379 m 101 0 l 101 758 l 290 758 l 290 625 l 328 625 q 420 732 357 693 q 562 770 482 770 q 724 705 665 770 q 783 527 783 640 l 783 0 l 593 0 l 593 492 q 565 585 593 553 q 482 616 537 616 q 384 589 434 616 q 290 508 333 562 l 290 0 l 101 0 z "},"ň":{"ha":884,"x_min":101,"x_max":783,"o":"m 101 0 l 101 758 l 290 758 l 290 625 l 328 625 q 420 732 357 693 q 562 770 482 770 q 724 705 665 770 q 783 527 783 640 l 783 0 l 593 0 l 593 492 q 565 585 593 553 q 482 616 537 616 q 384 589 434 616 q 290 508 333 562 l 290 0 l 101 0 m 398 889 l 169 1083 l 231 1177 l 468 1037 l 702 1177 l 765 1083 l 539 889 l 398 889 z "},"o":{"ha":884,"x_min":101,"x_max":783,"o":"m 442 -13 q 191 62 280 -13 q 101 274 101 138 l 101 479 q 191 694 101 617 q 443 770 282 770 q 694 693 605 770 q 783 476 783 615 l 783 271 q 693 62 783 136 q 442 -13 604 -13 m 442 133 q 557 169 520 133 q 593 280 593 205 l 593 473 q 557 588 593 552 q 442 625 520 625 q 327 588 364 625 q 290 475 290 552 l 290 284 q 327 169 290 206 q 442 133 364 133 z "},"ò":{"ha":884,"x_min":101,"x_max":783,"o":"m 442 -13 q 191 62 280 -13 q 101 274 101 138 l 101 479 q 191 694 101 617 q 443 770 282 770 q 694 693 605 770 q 783 476 783 615 l 783 271 q 693 62 783 136 q 442 -13 604 -13 m 442 133 q 557 169 520 133 q 593 280 593 205 l 593 473 q 557 588 593 552 q 442 625 520 625 q 327 588 364 625 q 290 475 290 552 l 290 284 q 327 169 290 206 q 442 133 364 133 m 431 884 l 165 1136 l 418 1136 l 571 884 l 431 884 z "},"ó":{"ha":884,"x_min":101,"x_max":783,"o":"m 442 -13 q 191 62 280 -13 q 101 274 101 138 l 101 479 q 191 694 101 617 q 443 770 282 770 q 694 693 605 770 q 783 476 783 615 l 783 271 q 693 62 783 136 q 442 -13 604 -13 m 442 133 q 557 169 520 133 q 593 280 593 205 l 593 473 q 557 588 593 552 q 442 625 520 625 q 327 588 364 625 q 290 475 290 552 l 290 284 q 327 169 290 206 q 442 133 364 133 m 285 884 l 438 1136 l 691 1136 l 426 884 l 285 884 z "},"ô":{"ha":884,"x_min":101,"x_max":783,"o":"m 442 -13 q 191 62 280 -13 q 101 274 101 138 l 101 479 q 191 694 101 617 q 443 770 282 770 q 694 693 605 770 q 783 476 783 615 l 783 271 q 693 62 783 136 q 442 -13 604 -13 m 442 133 q 557 169 520 133 q 593 280 593 205 l 593 473 q 557 588 593 552 q 442 625 520 625 q 327 588 364 625 q 290 475 290 552 l 290 284 q 327 169 290 206 q 442 133 364 133 m 207 876 l 144 970 l 370 1164 l 511 1164 l 740 970 l 678 878 l 441 1016 l 207 876 z "},"õ":{"ha":884,"x_min":101,"x_max":783,"o":"m 442 -13 q 191 62 280 -13 q 101 274 101 138 l 101 479 q 191 694 101 617 q 443 770 282 770 q 694 693 605 770 q 783 476 783 615 l 783 271 q 693 62 783 136 q 442 -13 604 -13 m 442 133 q 557 169 520 133 q 593 280 593 205 l 593 473 q 557 588 593 552 q 442 625 520 625 q 327 588 364 625 q 290 475 290 552 l 290 284 q 327 169 290 206 q 442 133 364 133 m 553 896 q 469 918 500 896 q 415 963 438 939 q 376 1008 394 987 q 333 1029 357 1029 q 295 1008 312 1029 q 279 922 278 987 l 279 909 l 150 909 l 150 928 q 198 1095 150 1028 q 332 1162 245 1162 q 419 1141 386 1162 q 472 1096 451 1120 q 511 1051 494 1072 q 551 1029 529 1029 q 590 1050 573 1029 q 606 1136 607 1071 l 606 1149 l 735 1149 l 735 1130 q 687 963 735 1030 q 553 896 639 896 z "},"ö":{"ha":884,"x_min":101,"x_max":783,"o":"m 442 -13 q 191 62 280 -13 q 101 274 101 138 l 101 479 q 191 694 101 617 q 443 770 282 770 q 694 693 605 770 q 783 476 783 615 l 783 271 q 693 62 783 136 q 442 -13 604 -13 m 442 133 q 557 169 520 133 q 593 280 593 205 l 593 473 q 557 588 593 552 q 442 625 520 625 q 327 588 364 625 q 290 475 290 552 l 290 284 q 327 169 290 206 q 442 133 364 133 m 287 884 q 213 903 241 884 q 184 968 184 922 l 184 982 q 213 1050 184 1030 q 287 1069 241 1069 q 362 1050 333 1069 q 390 982 390 1030 l 390 968 q 361 903 390 922 q 287 884 332 884 m 597 884 q 522 903 551 884 q 494 968 494 922 l 494 982 q 522 1050 494 1030 q 597 1069 551 1069 q 672 1050 644 1069 q 699 982 699 1030 l 699 968 q 670 903 699 922 q 597 884 641 884 z "},"ō":{"ha":884,"x_min":101,"x_max":783,"o":"m 442 -13 q 191 62 280 -13 q 101 274 101 138 l 101 479 q 191 694 101 617 q 443 770 282 770 q 694 693 605 770 q 783 476 783 615 l 783 271 q 693 62 783 136 q 442 -13 604 -13 m 442 133 q 557 169 520 133 q 593 280 593 205 l 593 473 q 557 588 593 552 q 442 625 520 625 q 327 588 364 625 q 290 475 290 552 l 290 284 q 327 169 290 206 q 442 133 364 133 m 173 934 l 173 1086 l 711 1086 l 711 934 l 173 934 z "},"ŏ":{"ha":884,"x_min":101,"x_max":783,"o":"m 442 -13 q 191 62 280 -13 q 101 274 101 138 l 101 479 q 191 694 101 617 q 443 770 282 770 q 694 693 605 770 q 783 476 783 615 l 783 271 q 693 62 783 136 q 442 -13 604 -13 m 442 133 q 557 169 520 133 q 593 280 593 205 l 593 473 q 557 588 593 552 q 442 625 520 625 q 327 588 364 625 q 290 475 290 552 l 290 284 q 327 169 290 206 q 442 133 364 133 m 448 875 q 218 942 302 875 q 133 1159 134 1009 l 297 1159 q 334 1036 298 1072 q 448 1000 370 1000 q 563 1036 527 1000 q 600 1159 598 1072 l 764 1159 q 679 942 763 1009 q 448 875 595 875 z "},"ő":{"ha":884,"x_min":101,"x_max":783,"o":"m 442 -13 q 191 62 280 -13 q 101 274 101 138 l 101 479 q 191 694 101 617 q 443 770 282 770 q 694 693 605 770 q 783 476 783 615 l 783 271 q 693 62 783 136 q 442 -13 604 -13 m 442 133 q 557 169 520 133 q 593 280 593 205 l 593 473 q 557 588 593 552 q 442 625 520 625 q 327 588 364 625 q 290 475 290 552 l 290 284 q 327 169 290 206 q 442 133 364 133 m 506 884 l 571 1136 l 779 1136 l 615 884 l 506 884 m 216 884 l 280 1136 l 489 1136 l 324 884 l 216 884 z "},"p":{"ha":884,"x_min":101,"x_max":783,"o":"m 439 134 q 556 168 519 134 q 593 279 593 202 l 593 476 q 563 582 593 548 q 473 616 533 616 q 381 592 424 616 q 290 518 337 568 l 290 174 q 360 144 326 154 q 439 134 394 134 m 463 -10 q 375 -2 420 -10 q 290 23 330 6 l 290 -253 l 101 -253 l 101 758 l 290 758 l 290 625 l 328 625 q 419 731 359 692 q 553 770 480 770 q 721 698 659 770 q 783 500 783 625 l 783 277 q 697 68 783 145 q 463 -10 611 -10 z "},"q":{"ha":884,"x_min":101,"x_max":783,"o":"m 593 -253 l 593 133 l 556 133 q 471 28 528 69 q 331 -13 414 -13 q 160 62 218 -13 q 101 258 101 136 l 101 481 q 196 694 101 620 q 452 768 292 768 q 629 748 537 768 q 783 693 721 729 l 783 -253 l 593 -253 m 410 143 q 504 167 460 143 q 593 240 548 191 l 593 585 q 525 614 562 604 q 446 625 489 625 q 334 590 378 625 q 290 480 290 556 l 290 289 q 321 178 290 213 q 410 143 352 143 z "},"r":{"ha":884,"x_min":145,"x_max":793,"o":"m 145 0 l 145 758 l 335 758 l 335 625 l 372 625 q 458 735 400 701 q 595 770 515 770 q 739 714 686 770 q 793 556 793 658 l 793 428 l 619 428 l 619 497 q 593 586 619 556 q 509 616 567 616 q 414 592 458 616 q 335 511 369 567 l 335 0 l 145 0 z "},"ŕ":{"ha":884,"x_min":145,"x_max":793,"o":"m 145 0 l 145 758 l 335 758 l 335 625 l 372 625 q 458 735 400 701 q 595 770 515 770 q 739 714 686 770 q 793 556 793 658 l 793 428 l 619 428 l 619 497 q 593 586 619 556 q 509 616 567 616 q 414 592 458 616 q 335 511 369 567 l 335 0 l 145 0 m 327 884 l 480 1136 l 732 1136 l 467 884 l 327 884 z "},"ŗ":{"ha":884,"x_min":62,"x_max":793,"o":"m 145 0 l 145 758 l 335 758 l 335 625 l 372 625 q 458 735 400 701 q 595 770 515 770 q 739 714 686 770 q 793 556 793 658 l 793 428 l 619 428 l 619 497 q 593 586 619 556 q 509 616 567 616 q 414 592 458 616 q 335 511 369 567 l 335 0 l 145 0 m 62 -379 l 164 -126 l 417 -126 l 202 -379 l 62 -379 z "},"ř":{"ha":884,"x_min":145,"x_max":793,"o":"m 145 0 l 145 758 l 335 758 l 335 625 l 372 625 q 458 735 400 701 q 595 770 515 770 q 739 714 686 770 q 793 556 793 658 l 793 428 l 619 428 l 619 497 q 593 586 619 556 q 509 616 567 616 q 414 592 458 616 q 335 511 369 567 l 335 0 l 145 0 m 414 889 l 186 1083 l 247 1177 l 485 1037 l 718 1177 l 782 1083 l 556 889 l 414 889 z "},"s":{"ha":884,"x_min":88,"x_max":783,"o":"m 448 -10 q 256 17 350 -10 q 88 97 162 44 l 145 222 q 295 149 213 174 q 451 124 376 124 q 554 142 513 124 q 595 211 595 160 q 557 278 595 258 q 422 311 519 298 q 193 374 271 327 q 114 530 114 422 q 201 707 114 644 q 423 770 289 770 q 591 744 506 770 q 745 670 676 717 l 694 551 q 562 614 630 592 q 428 636 494 636 q 338 617 374 636 q 302 551 302 597 q 344 485 302 504 q 492 453 386 466 q 711 382 639 436 q 783 230 783 328 q 689 51 783 112 q 448 -10 595 -10 z "},"":{"ha":884,"x_min":88,"x_max":783,"o":"m 448 -10 q 256 17 350 -10 q 88 97 162 44 l 145 222 q 295 149 213 174 q 451 124 376 124 q 554 142 513 124 q 595 211 595 160 q 557 278 595 258 q 422 311 519 298 q 193 374 271 327 q 114 530 114 422 q 201 707 114 644 q 423 770 289 770 q 591 744 506 770 q 745 670 676 717 l 694 551 q 562 614 630 592 q 428 636 494 636 q 338 617 374 636 q 302 551 302 597 q 344 485 302 504 q 492 453 386 466 q 711 382 639 436 q 783 230 783 328 q 689 51 783 112 q 448 -10 595 -10 z "},"ś":{"ha":884,"x_min":88,"x_max":783,"o":"m 448 -10 q 256 17 350 -10 q 88 97 162 44 l 145 222 q 295 149 213 174 q 451 124 376 124 q 554 142 513 124 q 595 211 595 160 q 557 278 595 258 q 422 311 519 298 q 193 374 271 327 q 114 530 114 422 q 201 707 114 644 q 423 770 289 770 q 591 744 506 770 q 745 670 676 717 l 694 551 q 562 614 630 592 q 428 636 494 636 q 338 617 374 636 q 302 551 302 597 q 344 485 302 504 q 492 453 386 466 q 711 382 639 436 q 783 230 783 328 q 689 51 783 112 q 448 -10 595 -10 m 289 884 l 442 1136 l 694 1136 l 429 884 l 289 884 z "},"ŝ":{"ha":884,"x_min":88,"x_max":783,"o":"m 448 -10 q 256 17 350 -10 q 88 97 162 44 l 145 222 q 295 149 213 174 q 451 124 376 124 q 554 142 513 124 q 595 211 595 160 q 557 278 595 258 q 422 311 519 298 q 193 374 271 327 q 114 530 114 422 q 201 707 114 644 q 423 770 289 770 q 591 744 506 770 q 745 670 676 717 l 694 551 q 562 614 630 592 q 428 636 494 636 q 338 617 374 636 q 302 551 302 597 q 344 485 302 504 q 492 453 386 466 q 711 382 639 436 q 783 230 783 328 q 689 51 783 112 q 448 -10 595 -10 m 205 876 l 141 970 l 367 1164 l 509 1164 l 737 970 l 676 878 l 438 1016 l 205 876 z "},"ş":{"ha":884,"x_min":88,"x_max":783,"o":"m 448 -10 q 256 17 350 -10 q 88 97 162 44 l 145 222 q 295 149 213 174 q 451 124 376 124 q 554 142 513 124 q 595 211 595 160 q 557 278 595 258 q 422 311 519 298 q 193 374 271 327 q 114 530 114 422 q 201 707 114 644 q 423 770 289 770 q 591 744 506 770 q 745 670 676 717 l 694 551 q 562 614 630 592 q 428 636 494 636 q 338 617 374 636 q 302 551 302 597 q 344 485 302 504 q 492 453 386 466 q 711 382 639 436 q 783 230 783 328 q 689 51 783 112 q 448 -10 595 -10 m 395 0 l 420 53 q 562 6 503 43 q 621 -114 621 -30 q 551 -240 621 -201 q 393 -279 480 -279 q 225 -244 290 -279 q 155 -126 160 -210 l 317 -114 q 334 -147 319 -138 q 384 -157 348 -157 q 438 -142 419 -157 q 457 -85 457 -128 q 444 -28 457 -47 q 395 0 431 -10 z "},"š":{"ha":884,"x_min":88,"x_max":783,"o":"m 448 -10 q 256 17 350 -10 q 88 97 162 44 l 145 222 q 295 149 213 174 q 451 124 376 124 q 554 142 513 124 q 595 211 595 160 q 557 278 595 258 q 422 311 519 298 q 193 374 271 327 q 114 530 114 422 q 201 707 114 644 q 423 770 289 770 q 591 744 506 770 q 745 670 676 717 l 694 551 q 562 614 630 592 q 428 636 494 636 q 338 617 374 636 q 302 551 302 597 q 344 485 302 504 q 492 453 386 466 q 711 382 639 436 q 783 230 783 328 q 689 51 783 112 q 448 -10 595 -10 m 370 889 l 141 1083 l 203 1177 l 441 1037 l 674 1177 l 737 1083 l 511 889 l 370 889 z "},"ș":{"ha":884,"x_min":88,"x_max":783,"o":"m 448 -10 q 256 17 350 -10 q 88 97 162 44 l 145 222 q 295 149 213 174 q 451 124 376 124 q 554 142 513 124 q 595 211 595 160 q 557 278 595 258 q 422 311 519 298 q 193 374 271 327 q 114 530 114 422 q 201 707 114 644 q 423 770 289 770 q 591 744 506 770 q 745 670 676 717 l 694 551 q 562 614 630 592 q 428 636 494 636 q 338 617 374 636 q 302 551 302 597 q 344 485 302 504 q 492 453 386 466 q 711 382 639 436 q 783 230 783 328 q 689 51 783 112 q 448 -10 595 -10 m 235 -379 l 337 -126 l 590 -126 l 375 -379 l 235 -379 z "},"t":{"ha":884,"x_min":82,"x_max":782,"o":"m 574 -13 q 355 54 433 -13 q 278 251 278 121 l 278 612 l 82 612 l 82 758 l 278 758 l 278 1010 l 467 1010 l 467 758 l 770 758 l 770 612 l 467 612 l 467 275 q 501 170 467 203 q 597 136 535 136 q 677 142 636 136 q 756 162 717 148 l 782 18 q 694 -4 747 5 q 574 -13 640 -13 z "},"ţ":{"ha":884,"x_min":82,"x_max":782,"o":"m 574 -13 q 355 54 433 -13 q 278 251 278 121 l 278 612 l 82 612 l 82 758 l 278 758 l 278 1010 l 467 1010 l 467 758 l 770 758 l 770 612 l 467 612 l 467 275 q 501 170 467 203 q 597 136 535 136 q 677 142 636 136 q 756 162 717 148 l 782 18 q 694 -4 747 5 q 574 -13 640 -13 m 472 0 l 497 53 q 639 6 580 43 q 698 -114 698 -30 q 628 -240 698 -201 q 470 -279 557 -279 q 302 -244 367 -279 q 232 -126 237 -210 l 394 -114 q 411 -147 396 -138 q 461 -157 426 -157 q 515 -142 496 -157 q 534 -85 534 -128 q 521 -28 534 -47 q 472 0 508 -10 z "},"ť":{"ha":884,"x_min":82,"x_max":920,"o":"m 574 -13 q 355 54 433 -13 q 278 251 278 121 l 278 612 l 82 612 l 82 758 l 278 758 l 278 1010 l 467 1010 l 467 758 l 770 758 l 770 612 l 467 612 l 467 275 q 501 170 467 203 q 597 136 535 136 q 677 142 636 136 q 756 162 717 148 l 782 18 q 694 -4 747 5 q 574 -13 640 -13 m 588 890 l 672 1263 l 920 1263 l 705 890 l 588 890 z "},"ț":{"ha":884,"x_min":82,"x_max":782,"o":"m 574 -13 q 355 54 433 -13 q 278 251 278 121 l 278 612 l 82 612 l 82 758 l 278 758 l 278 1010 l 467 1010 l 467 758 l 770 758 l 770 612 l 467 612 l 467 275 q 501 170 467 203 q 597 136 535 136 q 677 142 636 136 q 756 162 717 148 l 782 18 q 694 -4 747 5 q 574 -13 640 -13 m 273 -379 l 375 -126 l 628 -126 l 413 -379 l 273 -379 z "},"u":{"ha":884,"x_min":101,"x_max":783,"o":"m 330 -13 q 166 52 231 -13 q 101 231 101 117 l 101 758 l 290 758 l 290 279 q 319 177 290 211 q 403 143 347 143 q 499 174 452 143 q 593 263 547 205 l 593 758 l 783 758 l 783 0 l 593 0 l 593 133 l 556 133 q 461 24 525 61 q 330 -13 396 -13 z "},"ù":{"ha":884,"x_min":101,"x_max":783,"o":"m 330 -13 q 166 52 231 -13 q 101 231 101 117 l 101 758 l 290 758 l 290 279 q 319 177 290 211 q 403 143 347 143 q 499 174 452 143 q 593 263 547 205 l 593 758 l 783 758 l 783 0 l 593 0 l 593 133 l 556 133 q 461 24 525 61 q 330 -13 396 -13 m 418 884 l 153 1136 l 405 1136 l 558 884 l 418 884 z "},"ú":{"ha":884,"x_min":101,"x_max":783,"o":"m 330 -13 q 166 52 231 -13 q 101 231 101 117 l 101 758 l 290 758 l 290 279 q 319 177 290 211 q 403 143 347 143 q 499 174 452 143 q 593 263 547 205 l 593 758 l 783 758 l 783 0 l 593 0 l 593 133 l 556 133 q 461 24 525 61 q 330 -13 396 -13 m 342 884 l 495 1136 l 747 1136 l 482 884 l 342 884 z "},"û":{"ha":884,"x_min":101,"x_max":783,"o":"m 330 -13 q 166 52 231 -13 q 101 231 101 117 l 101 758 l 290 758 l 290 279 q 319 177 290 211 q 403 143 347 143 q 499 174 452 143 q 593 263 547 205 l 593 758 l 783 758 l 783 0 l 593 0 l 593 133 l 556 133 q 461 24 525 61 q 330 -13 396 -13 m 213 876 l 150 970 l 376 1164 l 518 1164 l 746 970 l 684 878 l 447 1016 l 213 876 z "},"ü":{"ha":884,"x_min":101,"x_max":783,"o":"m 330 -13 q 166 52 231 -13 q 101 231 101 117 l 101 758 l 290 758 l 290 279 q 319 177 290 211 q 403 143 347 143 q 499 174 452 143 q 593 263 547 205 l 593 758 l 783 758 l 783 0 l 593 0 l 593 133 l 556 133 q 461 24 525 61 q 330 -13 396 -13 m 293 884 q 219 903 247 884 q 191 968 191 922 l 191 982 q 219 1050 191 1030 q 293 1069 247 1069 q 368 1050 340 1069 q 396 982 396 1030 l 396 968 q 367 903 396 922 q 293 884 338 884 m 604 884 q 528 903 557 884 q 500 968 500 922 l 500 982 q 528 1050 500 1030 q 604 1069 557 1069 q 678 1050 650 1069 q 706 982 706 1030 l 706 968 q 677 903 706 922 q 604 884 648 884 z "},"ũ":{"ha":884,"x_min":101,"x_max":783,"o":"m 330 -13 q 166 52 231 -13 q 101 231 101 117 l 101 758 l 290 758 l 290 279 q 319 177 290 211 q 403 143 347 143 q 499 174 452 143 q 593 263 547 205 l 593 758 l 783 758 l 783 0 l 593 0 l 593 133 l 556 133 q 461 24 525 61 q 330 -13 396 -13 m 553 896 q 469 918 500 896 q 415 963 438 939 q 376 1008 394 987 q 333 1029 357 1029 q 295 1008 312 1029 q 279 922 278 987 l 279 909 l 150 909 l 150 928 q 198 1095 150 1028 q 332 1162 245 1162 q 419 1141 386 1162 q 472 1096 451 1120 q 511 1051 494 1072 q 551 1029 529 1029 q 590 1050 573 1029 q 606 1136 607 1071 l 606 1149 l 735 1149 l 735 1130 q 687 963 735 1030 q 553 896 639 896 z "},"ū":{"ha":884,"x_min":101,"x_max":783,"o":"m 330 -13 q 166 52 231 -13 q 101 231 101 117 l 101 758 l 290 758 l 290 279 q 319 177 290 211 q 403 143 347 143 q 499 174 452 143 q 593 263 547 205 l 593 758 l 783 758 l 783 0 l 593 0 l 593 133 l 556 133 q 461 24 525 61 q 330 -13 396 -13 m 173 934 l 173 1086 l 711 1086 l 711 934 l 173 934 z "},"ŭ":{"ha":884,"x_min":101,"x_max":783,"o":"m 330 -13 q 166 52 231 -13 q 101 231 101 117 l 101 758 l 290 758 l 290 279 q 319 177 290 211 q 403 143 347 143 q 499 174 452 143 q 593 263 547 205 l 593 758 l 783 758 l 783 0 l 593 0 l 593 133 l 556 133 q 461 24 525 61 q 330 -13 396 -13 m 448 875 q 218 942 302 875 q 133 1159 134 1009 l 297 1159 q 334 1036 298 1072 q 448 1000 370 1000 q 563 1036 527 1000 q 600 1159 598 1072 l 764 1159 q 679 942 763 1009 q 448 875 595 875 z "},"ů":{"ha":884,"x_min":101,"x_max":783,"o":"m 330 -13 q 166 52 231 -13 q 101 231 101 117 l 101 758 l 290 758 l 290 279 q 319 177 290 211 q 403 143 347 143 q 499 174 452 143 q 593 263 547 205 l 593 758 l 783 758 l 783 0 l 593 0 l 593 133 l 556 133 q 461 24 525 61 q 330 -13 396 -13 m 448 859 q 279 905 343 859 q 215 1048 215 952 l 215 1088 q 279 1234 215 1187 q 448 1282 343 1282 q 618 1234 554 1282 q 682 1088 682 1187 l 682 1048 q 617 905 682 952 q 448 859 553 859 m 448 961 q 521 981 496 961 q 545 1048 545 1001 l 545 1088 q 521 1157 545 1135 q 448 1179 496 1179 q 375 1157 399 1179 q 351 1088 351 1135 l 351 1048 q 375 981 351 1001 q 448 961 399 961 z "},"ű":{"ha":884,"x_min":101,"x_max":792,"o":"m 330 -13 q 166 52 231 -13 q 101 231 101 117 l 101 758 l 290 758 l 290 279 q 319 177 290 211 q 403 143 347 143 q 499 174 452 143 q 593 263 547 205 l 593 758 l 783 758 l 783 0 l 593 0 l 593 133 l 556 133 q 461 24 525 61 q 330 -13 396 -13 m 519 884 l 583 1136 l 792 1136 l 628 884 l 519 884 m 229 884 l 293 1136 l 501 1136 l 337 884 l 229 884 z "},"ų":{"ha":884,"x_min":101,"x_max":871,"o":"m 727 -278 q 575 -237 633 -278 q 518 -121 518 -197 q 574 4 518 -49 q 697 78 630 58 l 731 29 q 676 -25 688 3 q 663 -77 663 -53 q 686 -128 663 -111 q 755 -145 708 -145 q 811 -141 778 -145 q 871 -133 843 -138 l 871 -263 q 798 -274 837 -270 q 727 -278 759 -278 m 330 -13 q 166 52 231 -13 q 101 231 101 117 l 101 758 l 290 758 l 290 279 q 319 177 290 211 q 403 143 347 143 q 499 174 452 143 q 593 263 547 205 l 593 758 l 783 758 l 783 0 l 593 0 l 593 133 l 556 133 q 461 24 525 61 q 330 -13 396 -13 z "},"v":{"ha":884,"x_min":74,"x_max":808,"o":"m 564 0 l 318 0 l 74 758 l 263 758 l 444 148 l 628 758 l 808 758 l 564 0 z "},"w":{"ha":884,"x_min":30,"x_max":854,"o":"m 547 0 l 442 426 l 342 0 l 160 0 l 30 758 l 198 758 l 275 182 l 366 625 l 513 625 l 614 197 l 687 758 l 854 758 l 723 0 l 547 0 z "},"":{"ha":884,"x_min":30,"x_max":854,"o":"m 547 0 l 442 426 l 342 0 l 160 0 l 30 758 l 198 758 l 275 182 l 366 625 l 513 625 l 614 197 l 687 758 l 854 758 l 723 0 l 547 0 z "},"ŵ":{"ha":884,"x_min":30,"x_max":854,"o":"m 547 0 l 442 426 l 342 0 l 160 0 l 30 758 l 198 758 l 275 182 l 366 625 l 513 625 l 614 197 l 687 758 l 854 758 l 723 0 l 547 0 m 213 876 l 150 970 l 376 1164 l 518 1164 l 746 970 l 684 878 l 447 1016 l 213 876 z "},"ẁ":{"ha":884,"x_min":30,"x_max":854,"o":"m 547 0 l 442 426 l 342 0 l 160 0 l 30 758 l 198 758 l 275 182 l 366 625 l 513 625 l 614 197 l 687 758 l 854 758 l 723 0 l 547 0 m 431 884 l 165 1136 l 418 1136 l 571 884 l 431 884 z "},"ẃ":{"ha":884,"x_min":30,"x_max":854,"o":"m 547 0 l 442 426 l 342 0 l 160 0 l 30 758 l 198 758 l 275 182 l 366 625 l 513 625 l 614 197 l 687 758 l 854 758 l 723 0 l 547 0 m 317 884 l 470 1136 l 722 1136 l 457 884 l 317 884 z "},"ẅ":{"ha":884,"x_min":30,"x_max":854,"o":"m 547 0 l 442 426 l 342 0 l 160 0 l 30 758 l 198 758 l 275 182 l 366 625 l 513 625 l 614 197 l 687 758 l 854 758 l 723 0 l 547 0 m 293 884 q 219 903 247 884 q 191 968 191 922 l 191 982 q 219 1050 191 1030 q 293 1069 247 1069 q 368 1050 340 1069 q 396 982 396 1030 l 396 968 q 367 903 396 922 q 293 884 338 884 m 604 884 q 528 903 557 884 q 500 968 500 922 l 500 982 q 528 1050 500 1030 q 604 1069 557 1069 q 678 1050 650 1069 q 706 982 706 1030 l 706 968 q 677 903 706 922 q 604 884 648 884 z "},"x":{"ha":884,"x_min":77,"x_max":804,"o":"m 606 0 l 433 256 l 271 0 l 77 0 l 346 384 l 92 758 l 288 758 l 448 521 l 601 758 l 795 758 l 538 391 l 804 0 l 606 0 z "},"y":{"ha":884,"x_min":62,"x_max":821,"o":"m 232 -264 q 156 -260 196 -264 q 73 -250 116 -256 l 90 -105 q 169 -118 134 -114 q 232 -122 205 -122 q 336 -92 297 -122 q 400 16 376 -62 l 403 25 l 299 25 l 62 758 l 259 758 l 442 152 l 631 758 l 821 758 l 566 -3 q 441 -205 519 -145 q 232 -264 362 -264 z "},"":{"ha":884,"x_min":62,"x_max":821,"o":"m 232 -264 q 156 -260 196 -264 q 73 -250 116 -256 l 90 -105 q 169 -118 134 -114 q 232 -122 205 -122 q 336 -92 297 -122 q 400 16 376 -62 l 403 25 l 299 25 l 62 758 l 259 758 l 442 152 l 631 758 l 821 758 l 566 -3 q 441 -205 519 -145 q 232 -264 362 -264 z "},"ý":{"ha":884,"x_min":62,"x_max":821,"o":"m 232 -264 q 156 -260 196 -264 q 73 -250 116 -256 l 90 -105 q 169 -118 134 -114 q 232 -122 205 -122 q 336 -92 297 -122 q 400 16 376 -62 l 403 25 l 299 25 l 62 758 l 259 758 l 442 152 l 631 758 l 821 758 l 566 -3 q 441 -205 519 -145 q 232 -264 362 -264 m 285 884 l 438 1136 l 691 1136 l 426 884 l 285 884 z "},"ÿ":{"ha":884,"x_min":62,"x_max":821,"o":"m 232 -264 q 156 -260 196 -264 q 73 -250 116 -256 l 90 -105 q 169 -118 134 -114 q 232 -122 205 -122 q 336 -92 297 -122 q 400 16 376 -62 l 403 25 l 299 25 l 62 758 l 259 758 l 442 152 l 631 758 l 821 758 l 566 -3 q 441 -205 519 -145 q 232 -264 362 -264 m 287 884 q 213 903 241 884 q 184 968 184 922 l 184 982 q 213 1050 184 1030 q 287 1069 241 1069 q 362 1050 333 1069 q 390 982 390 1030 l 390 968 q 361 903 390 922 q 287 884 332 884 m 597 884 q 522 903 551 884 q 494 968 494 922 l 494 982 q 522 1050 494 1030 q 597 1069 551 1069 q 672 1050 644 1069 q 699 982 699 1030 l 699 968 q 670 903 699 922 q 597 884 641 884 z "},"ŷ":{"ha":884,"x_min":62,"x_max":821,"o":"m 232 -264 q 156 -260 196 -264 q 73 -250 116 -256 l 90 -105 q 169 -118 134 -114 q 232 -122 205 -122 q 336 -92 297 -122 q 400 16 376 -62 l 403 25 l 299 25 l 62 758 l 259 758 l 442 152 l 631 758 l 821 758 l 566 -3 q 441 -205 519 -145 q 232 -264 362 -264 m 207 876 l 144 970 l 370 1164 l 511 1164 l 740 970 l 678 878 l 441 1016 l 207 876 z "},"ỳ":{"ha":884,"x_min":62,"x_max":821,"o":"m 232 -264 q 156 -260 196 -264 q 73 -250 116 -256 l 90 -105 q 169 -118 134 -114 q 232 -122 205 -122 q 336 -92 297 -122 q 400 16 376 -62 l 403 25 l 299 25 l 62 758 l 259 758 l 442 152 l 631 758 l 821 758 l 566 -3 q 441 -205 519 -145 q 232 -264 362 -264 m 431 884 l 165 1136 l 418 1136 l 571 884 l 431 884 z "},"z":{"ha":884,"x_min":120,"x_max":764,"o":"m 764 0 l 120 0 l 120 145 l 557 612 l 120 612 l 120 758 l 764 758 l 764 612 l 330 145 l 764 145 l 764 0 z "},"ź":{"ha":884,"x_min":120,"x_max":764,"o":"m 764 0 l 120 0 l 120 145 l 557 612 l 120 612 l 120 758 l 764 758 l 764 612 l 330 145 l 764 145 l 764 0 m 317 884 l 470 1136 l 722 1136 l 457 884 l 317 884 z "},"ż":{"ha":884,"x_min":120,"x_max":764,"o":"m 764 0 l 120 0 l 120 145 l 557 612 l 120 612 l 120 758 l 764 758 l 764 612 l 330 145 l 764 145 l 764 0 m 436 884 q 338 903 375 884 q 301 968 301 922 l 301 982 q 338 1050 301 1030 q 436 1069 375 1069 q 533 1050 496 1069 q 571 982 571 1030 l 571 968 q 533 903 571 922 q 436 884 495 884 z "},"ž":{"ha":884,"x_min":120,"x_max":764,"o":"m 764 0 l 120 0 l 120 145 l 557 612 l 120 612 l 120 758 l 764 758 l 764 612 l 330 145 l 764 145 l 764 0 m 372 889 l 144 1083 l 206 1177 l 443 1037 l 677 1177 l 740 1083 l 514 889 l 372 889 z "},"ª":{"ha":884,"x_min":111,"x_max":806,"o":"m 365 492 q 449 507 409 492 q 520 553 489 521 l 520 640 l 359 640 q 292 624 316 640 q 268 564 268 609 q 290 511 268 529 q 365 492 312 492 m 330 381 q 181 422 250 381 q 111 554 111 463 q 174 689 111 643 q 335 736 236 736 l 520 736 l 520 797 q 491 878 520 851 q 404 904 462 904 q 318 886 348 904 q 270 808 288 867 l 126 835 q 212 978 146 933 q 407 1023 278 1023 q 607 972 533 1023 q 682 804 682 922 l 682 592 q 711 520 682 533 q 806 515 741 508 l 806 393 q 667 396 726 380 q 590 490 609 412 l 563 490 q 468 412 532 443 q 330 381 405 381 z "},"º":{"ha":884,"x_min":145,"x_max":739,"o":"m 442 381 q 230 440 314 381 q 145 620 145 499 l 145 779 q 230 963 145 903 q 443 1023 314 1023 q 655 963 571 1023 q 739 779 739 903 l 739 620 q 655 440 739 499 q 442 381 571 381 m 442 505 q 545 534 513 505 q 577 629 577 563 l 577 777 q 545 869 577 838 q 442 899 513 899 q 339 868 371 899 q 307 775 307 837 l 307 629 q 339 534 307 563 q 442 505 371 505 z "},"ß":{"ha":884,"x_min":57,"x_max":854,"o":"m 578 -8 q 437 17 509 -8 q 318 86 366 42 l 379 206 q 472 145 423 168 q 573 121 520 121 q 651 141 619 121 q 683 203 683 160 q 652 265 683 246 q 532 309 621 284 q 379 386 429 335 q 330 514 330 437 q 393 667 330 609 q 558 735 456 726 q 506 842 552 811 q 398 874 461 874 q 289 835 338 874 q 240 705 240 795 l 240 0 l 57 0 l 57 722 q 153 945 57 870 q 399 1020 249 1020 q 643 934 551 1020 q 736 711 736 847 l 736 634 q 557 614 615 635 q 499 542 499 592 q 539 479 499 499 q 668 433 578 460 q 808 356 763 408 q 854 221 854 304 q 773 51 854 110 q 578 -8 692 -8 z "},"æ":{"ha":884,"x_min":32,"x_max":852,"o":"m 852 187 q 777 37 832 87 q 622 -13 721 -13 q 508 16 557 -13 q 433 101 460 44 l 403 101 q 336 19 380 51 q 226 -13 292 -13 q 89 41 146 -13 q 32 201 32 95 q 92 366 32 309 q 247 422 153 422 l 379 422 l 379 513 q 357 605 379 574 q 288 635 335 635 q 227 613 246 635 q 188 523 208 591 l 49 554 q 128 717 73 663 q 284 770 183 770 q 382 749 340 770 q 448 678 424 727 q 525 747 479 725 q 626 770 571 770 q 789 703 726 770 q 852 495 852 635 l 852 341 l 524 341 l 524 245 q 545 147 524 181 q 612 114 566 114 q 678 135 657 114 q 710 208 699 157 l 852 187 m 524 514 l 524 446 l 707 446 l 707 506 q 686 615 707 582 q 617 648 664 648 q 548 616 572 648 q 524 514 524 585 m 379 176 l 379 317 l 288 317 q 216 294 242 317 q 189 212 189 271 q 208 138 189 164 q 266 111 226 111 q 326 129 299 111 q 379 176 352 146 z "},"ǽ":{"ha":884,"x_min":32,"x_max":852,"o":"m 852 187 q 777 37 832 87 q 622 -13 721 -13 q 508 16 557 -13 q 433 101 460 44 l 403 101 q 336 19 380 51 q 226 -13 292 -13 q 89 41 146 -13 q 32 201 32 95 q 92 366 32 309 q 247 422 153 422 l 379 422 l 379 513 q 357 605 379 574 q 288 635 335 635 q 227 613 246 635 q 188 523 208 591 l 49 554 q 128 717 73 663 q 284 770 183 770 q 382 749 340 770 q 448 678 424 727 q 525 747 479 725 q 626 770 571 770 q 789 703 726 770 q 852 495 852 635 l 852 341 l 524 341 l 524 245 q 545 147 524 181 q 612 114 566 114 q 678 135 657 114 q 710 208 699 157 l 852 187 m 524 514 l 524 446 l 707 446 l 707 506 q 686 615 707 582 q 617 648 664 648 q 548 616 572 648 q 524 514 524 585 m 379 176 l 379 317 l 288 317 q 216 294 242 317 q 189 212 189 271 q 208 138 189 164 q 266 111 226 111 q 326 129 299 111 q 379 176 352 146 m 375 884 l 528 1136 l 780 1136 l 515 884 l 375 884 z "},"ð":{"ha":884,"x_min":95,"x_max":789,"o":"m 442 -13 q 191 61 287 -13 q 95 284 95 134 l 95 362 q 175 559 95 486 q 383 631 255 631 q 513 604 462 631 q 583 538 563 576 l 611 538 q 580 676 605 617 q 508 777 554 734 l 284 676 l 284 789 l 402 842 q 314 879 362 862 q 207 912 265 896 l 303 1037 q 457 985 389 1014 q 577 922 525 957 l 789 1016 l 789 903 l 667 847 q 760 685 731 779 q 789 470 789 591 l 789 292 q 693 61 789 134 q 442 -13 597 -13 m 443 133 q 564 168 529 133 q 600 275 600 203 l 600 355 q 564 453 600 420 q 443 485 529 485 q 322 453 357 485 q 287 355 287 420 l 287 275 q 322 168 287 203 q 443 133 357 133 z "},"ø":{"ha":884,"x_min":95,"x_max":789,"o":"m 271 284 q 277 227 271 253 q 294 184 283 202 l 514 624 q 480 629 499 628 q 442 631 462 631 q 311 592 351 631 q 271 475 271 553 l 271 284 m 442 126 q 573 164 533 126 q 612 284 612 201 l 612 476 q 607 531 612 506 q 590 573 601 556 l 370 134 q 403 128 385 130 q 442 126 422 126 m 442 -13 q 381 -9 412 -13 q 322 1 350 -6 l 259 -126 l 120 -126 l 207 48 q 124 142 154 83 q 95 274 95 201 l 95 479 q 189 696 95 621 q 443 770 284 770 q 504 767 473 770 q 562 758 534 764 l 625 884 l 764 884 l 677 710 q 759 614 730 674 q 789 479 789 554 l 789 274 q 695 61 789 135 q 442 -13 601 -13 z "},"ǿ":{"ha":884,"x_min":95,"x_max":789,"o":"m 271 284 q 277 227 271 253 q 294 184 283 202 l 514 624 q 480 629 499 628 q 442 631 462 631 q 311 592 351 631 q 271 475 271 553 l 271 284 m 442 126 q 573 164 533 126 q 612 284 612 201 l 612 476 q 607 531 612 506 q 590 573 601 556 l 370 134 q 403 128 385 130 q 442 126 422 126 m 442 -13 q 381 -9 412 -13 q 322 1 350 -6 l 259 -126 l 120 -126 l 207 48 q 124 142 154 83 q 95 274 95 201 l 95 479 q 189 696 95 621 q 443 770 284 770 q 504 767 473 770 q 562 758 534 764 l 625 884 l 764 884 l 677 710 q 759 614 730 674 q 789 479 789 554 l 789 274 q 695 61 789 135 q 442 -13 601 -13 m 317 884 l 470 1136 l 722 1136 l 457 884 l 317 884 z "},"þ":{"ha":884,"x_min":101,"x_max":783,"o":"m 439 134 q 556 169 518 134 q 593 279 593 203 l 593 476 q 563 582 593 548 q 473 616 533 616 q 381 592 424 616 q 290 518 337 568 l 290 174 q 362 144 327 154 q 439 134 396 134 m 463 -10 q 373 -1 418 -10 q 290 23 328 8 l 290 -253 l 101 -253 l 101 1010 l 290 1010 l 290 625 l 328 625 q 418 732 359 693 q 553 770 477 770 q 720 697 658 770 q 783 500 783 624 l 783 277 q 696 68 783 145 q 463 -10 610 -10 z "},"đ":{"ha":884,"x_min":101,"x_max":909,"o":"m 410 143 q 504 167 460 143 q 593 240 548 191 l 593 508 q 521 539 558 528 q 439 549 484 549 q 329 515 366 549 q 292 404 292 480 l 292 289 q 322 178 292 213 q 410 143 352 143 m 556 133 q 470 29 528 71 q 331 -13 413 -13 q 162 64 222 -13 q 101 258 101 140 l 101 405 q 188 614 101 537 q 420 692 274 692 q 510 684 466 692 q 593 659 554 676 l 593 777 l 366 777 l 366 890 l 593 890 l 593 1010 l 783 1010 l 783 890 l 909 890 l 909 777 l 783 777 l 783 0 l 593 0 l 593 133 l 556 133 z "},"ħ":{"ha":884,"x_min":-25,"x_max":783,"o":"m 290 419 l 290 0 l 101 0 l 101 777 l -25 777 l -25 890 l 101 890 l 101 1010 l 290 1010 l 290 890 l 518 890 l 518 777 l 290 777 l 290 549 l 328 549 q 420 656 357 617 q 561 694 482 694 q 722 631 660 694 q 783 466 783 568 l 783 0 l 593 0 l 593 415 q 565 509 593 477 q 482 540 537 540 q 385 509 433 540 q 290 419 337 477 z "},"ı":{"ha":884,"x_min":107,"x_max":777,"o":"m 107 0 l 107 145 l 347 145 l 347 612 l 107 612 l 107 758 l 537 758 l 537 145 l 777 145 l 777 0 l 107 0 z "},"ĳ":{"ha":884,"x_min":68,"x_max":814,"o":"m 197 884 q 104 903 139 884 q 68 968 68 922 l 68 982 q 104 1050 68 1030 q 197 1069 139 1069 q 290 1050 255 1069 q 324 982 324 1030 l 324 968 q 289 903 324 922 q 197 884 253 884 m 686 884 q 593 903 629 884 q 558 968 558 922 l 558 982 q 593 1050 558 1030 q 686 1069 629 1069 q 779 1050 744 1069 q 814 982 814 1030 l 814 968 q 778 903 814 922 q 686 884 742 884 m 290 0 l 114 0 l 114 758 l 290 758 l 290 0 m 484 -264 q 391 -258 437 -264 q 298 -236 345 -251 l 323 -96 q 398 -115 364 -109 q 465 -121 433 -121 q 568 -90 529 -121 q 606 14 606 -58 l 606 612 l 442 612 l 442 758 l 783 758 l 783 -5 q 700 -198 783 -131 q 484 -264 617 -264 z "},"ĸ":{"ha":884,"x_min":139,"x_max":808,"o":"m 328 327 l 328 0 l 139 0 l 139 758 l 328 758 l 328 462 l 384 462 l 602 758 l 808 758 l 539 412 l 804 0 l 598 0 l 384 327 l 328 327 z "},"ŀ":{"ha":884,"x_min":114,"x_max":1004,"o":"m 114 0 l 114 145 l 360 145 l 360 865 l 114 865 l 114 1010 l 549 1010 l 549 145 l 789 145 l 789 0 l 114 0 m 869 404 q 771 423 808 404 q 734 489 734 442 l 734 503 q 771 570 734 551 q 869 590 808 590 q 967 570 929 590 q 1004 503 1004 551 l 1004 489 q 966 423 1004 442 q 869 404 928 404 z "},"ł":{"ha":884,"x_min":114,"x_max":789,"o":"m 114 0 l 114 145 l 360 145 l 360 426 l 164 372 l 164 499 l 360 552 l 360 865 l 114 865 l 114 1010 l 549 1010 l 549 602 l 701 644 l 701 518 l 549 476 l 549 145 l 789 145 l 789 0 l 114 0 z "},"ŉ":{"ha":884,"x_min":-30,"x_max":783,"o":"m 101 0 l 101 758 l 290 758 l 290 625 l 328 625 q 420 732 357 693 q 562 770 482 770 q 724 705 665 770 q 783 527 783 640 l 783 0 l 593 0 l 593 492 q 565 585 593 553 q 482 616 537 616 q 384 589 434 616 q 290 508 333 562 l 290 0 l 101 0 m -30 884 l 122 1136 l 375 1136 l 110 884 l -30 884 z "},"ŋ":{"ha":884,"x_min":101,"x_max":783,"o":"m 503 -264 q 421 -256 463 -264 q 336 -236 379 -249 l 361 -96 q 427 -114 396 -107 q 485 -121 457 -121 q 564 -90 535 -121 q 593 14 593 -58 l 593 504 q 565 588 593 559 q 482 616 537 616 q 384 589 433 616 q 290 508 335 562 l 290 0 l 101 0 l 101 758 l 290 758 l 290 625 l 328 625 q 426 734 360 697 q 566 770 491 770 q 724 711 665 770 q 783 542 783 652 l 783 -5 q 699 -202 783 -140 q 503 -264 616 -264 z "},"œ":{"ha":884,"x_min":43,"x_max":848,"o":"m 848 181 q 777 31 832 74 q 621 -13 722 -13 q 511 10 559 -13 q 436 80 463 33 q 364 10 408 33 q 265 -13 319 -13 q 105 52 168 -13 q 43 249 43 116 l 43 504 q 106 705 43 639 q 266 770 169 770 q 364 747 321 770 q 434 678 407 725 q 509 747 462 725 q 614 770 556 770 q 778 709 715 770 q 842 520 842 648 l 842 341 l 518 341 l 518 220 q 539 140 518 165 q 606 114 559 114 q 678 131 653 114 q 710 202 703 148 l 848 181 m 518 539 l 518 446 l 682 446 l 682 528 q 662 620 682 592 q 600 648 643 648 q 537 622 557 648 q 518 539 518 596 m 284 126 q 347 157 327 126 q 366 259 366 188 l 366 501 q 347 599 366 567 q 284 631 327 631 q 222 598 242 631 q 202 500 202 566 l 202 259 q 222 157 202 188 q 284 126 242 126 z "},"ŧ":{"ha":884,"x_min":82,"x_max":782,"o":"m 574 -13 q 355 54 433 -13 q 278 251 278 121 l 278 335 l 120 335 l 120 467 l 278 467 l 278 612 l 82 612 l 82 758 l 278 758 l 278 1010 l 467 1010 l 467 758 l 770 758 l 770 612 l 467 612 l 467 467 l 739 467 l 739 335 l 467 335 l 467 275 q 501 170 467 203 q 597 136 535 136 q 677 142 636 136 q 756 162 717 148 l 782 18 q 694 -4 747 5 q 574 -13 640 -13 z "},"ſ":{"ha":884,"x_min":196,"x_max":801,"o":"m 347 0 l 347 612 l 196 612 l 196 758 l 347 758 l 347 803 q 425 979 347 917 q 628 1042 503 1042 q 716 1032 669 1042 q 801 1010 763 1023 l 775 878 q 712 896 744 889 q 650 903 681 903 q 567 877 597 903 q 537 793 537 851 l 537 0 l 347 0 z "},"ȷ":{"ha":884,"x_min":96,"x_max":657,"o":"m 313 -264 q 205 -258 259 -264 q 96 -236 152 -253 l 121 -96 q 213 -117 170 -112 q 295 -121 256 -121 q 421 -90 375 -121 q 467 14 467 -58 l 467 612 l 134 612 l 134 758 l 657 758 l 657 -5 q 562 -198 657 -131 q 313 -264 467 -264 z "},"":{"ha":884,"x_min":96,"x_max":657,"o":"m 313 -264 q 205 -258 259 -264 q 96 -236 152 -253 l 121 -96 q 213 -117 170 -112 q 295 -121 256 -121 q 421 -90 375 -121 q 467 14 467 -58 l 467 612 l 134 612 l 134 758 l 657 758 l 657 -5 q 562 -198 657 -131 q 313 -264 467 -264 z "},"α":{"ha":884,"x_min":95,"x_max":846,"o":"m 391 143 q 473 168 436 143 q 549 241 511 193 l 549 519 q 473 592 510 566 q 389 617 436 617 q 313 581 340 617 q 285 471 285 544 l 285 284 q 313 177 285 211 q 391 143 341 143 m 606 153 l 568 153 q 470 30 533 73 q 324 -13 408 -13 q 157 59 220 -13 q 95 259 95 131 l 95 487 q 155 694 95 616 q 312 771 216 771 q 430 735 380 771 q 511 626 480 698 l 549 626 l 549 758 l 739 758 l 739 234 q 764 153 739 170 q 846 144 789 135 l 846 1 q 682 16 742 -19 q 606 153 622 51 z "},"ά":{"ha":884,"x_min":95,"x_max":846,"o":"m 391 143 q 473 168 436 143 q 549 241 511 193 l 549 519 q 473 592 510 566 q 389 617 436 617 q 313 581 340 617 q 285 471 285 544 l 285 284 q 313 177 285 211 q 391 143 341 143 m 606 153 l 568 153 q 470 30 533 73 q 324 -13 408 -13 q 157 59 220 -13 q 95 259 95 131 l 95 487 q 155 694 95 616 q 312 771 216 771 q 430 735 380 771 q 511 626 480 698 l 549 626 l 549 758 l 739 758 l 739 234 q 764 153 739 170 q 846 144 789 135 l 846 1 q 682 16 742 -19 q 606 153 622 51 m 412 884 l 489 1136 l 729 1136 l 539 884 l 412 884 z "},"β":{"ha":884,"x_min":101,"x_max":783,"o":"m 437 136 q 549 172 506 136 q 591 292 591 208 l 591 332 q 552 443 591 410 q 436 476 513 476 l 385 476 l 385 600 l 428 600 q 524 628 492 600 q 556 716 556 655 l 556 739 q 523 840 556 809 q 422 871 490 871 q 322 833 354 871 q 290 715 290 794 l 290 178 q 358 147 322 158 q 437 136 394 136 m 463 -13 q 372 -4 415 -13 q 290 18 328 4 l 290 -253 l 101 -253 l 101 723 q 189 948 101 874 q 422 1023 277 1023 q 653 957 564 1023 q 742 774 742 891 l 742 747 q 701 629 742 676 q 573 566 660 582 l 573 529 q 727 464 672 520 q 783 322 782 408 l 783 270 q 689 57 783 128 q 463 -13 595 -13 z "},"γ":{"ha":884,"x_min":62,"x_max":821,"o":"m 556 -253 l 328 -253 l 347 25 l 62 758 l 258 758 l 444 196 l 629 758 l 821 758 l 537 25 l 556 -253 z "},"δ":{"ha":884,"x_min":101,"x_max":783,"o":"m 442 -13 q 193 60 284 -13 q 101 274 101 133 l 101 390 q 143 518 101 462 q 271 610 186 573 q 169 684 199 643 q 139 789 139 726 q 215 956 139 903 q 438 1010 290 1010 l 684 1010 l 684 865 l 438 865 q 349 850 379 865 q 319 789 319 836 q 354 734 319 755 q 524 669 389 713 q 725 562 667 622 q 783 390 783 501 l 783 274 q 691 60 783 133 q 442 -13 600 -13 m 442 133 q 556 165 518 133 q 593 274 593 198 l 593 390 q 554 491 593 456 q 394 562 515 525 q 318 494 345 537 q 290 390 290 452 l 290 274 q 329 165 290 198 q 442 133 367 133 z "},"ε":{"ha":884,"x_min":90,"x_max":807,"o":"m 453 -13 q 179 40 268 -13 q 90 203 90 93 l 90 222 q 139 330 90 284 q 287 381 188 375 l 287 409 q 159 449 206 414 q 112 545 112 484 l 112 569 q 200 723 112 676 q 453 770 288 770 q 693 713 612 770 q 784 530 774 655 l 609 520 q 567 613 601 585 q 453 641 533 641 q 336 622 370 641 q 302 557 302 602 l 302 539 q 336 475 302 492 q 449 457 370 457 l 520 457 l 520 343 l 449 343 q 314 319 348 343 q 279 241 279 294 l 279 229 q 316 148 279 174 q 453 122 354 122 q 588 154 553 122 q 631 251 622 186 l 807 242 q 718 51 797 115 q 453 -13 640 -13 z "},"έ":{"ha":884,"x_min":90,"x_max":807,"o":"m 453 -13 q 179 40 268 -13 q 90 203 90 93 l 90 222 q 139 330 90 284 q 287 381 188 375 l 287 409 q 159 449 206 414 q 112 545 112 484 l 112 569 q 200 723 112 676 q 453 770 288 770 q 693 713 612 770 q 784 530 774 655 l 609 520 q 567 613 601 585 q 453 641 533 641 q 336 622 370 641 q 302 557 302 602 l 302 539 q 336 475 302 492 q 449 457 370 457 l 520 457 l 520 343 l 449 343 q 314 319 348 343 q 279 241 279 294 l 279 229 q 316 148 279 174 q 453 122 354 122 q 588 154 553 122 q 631 251 622 186 l 807 242 q 718 51 797 115 q 453 -13 640 -13 m 348 884 l 426 1136 l 665 1136 l 476 884 l 348 884 z "},"ζ":{"ha":884,"x_min":47,"x_max":793,"o":"m 511 -253 l 354 -253 l 354 -114 l 518 -114 q 586 -99 561 -114 q 612 -38 612 -85 q 586 25 612 9 q 518 42 561 42 l 423 42 q 178 119 258 42 q 98 322 98 197 q 136 484 98 415 q 249 633 174 553 l 390 785 l 383 804 q 175 838 258 780 q 47 1008 92 895 l 165 1063 q 289 941 208 972 q 497 941 370 909 l 751 1044 l 793 862 l 577 818 l 389 585 q 315 467 342 521 q 288 338 288 413 q 321 222 288 263 q 423 181 355 181 l 535 181 q 717 129 652 181 q 783 -33 783 77 q 710 -198 783 -143 q 511 -253 636 -253 z "},"η":{"ha":884,"x_min":101,"x_max":783,"o":"m 593 -253 l 593 504 q 565 588 593 559 q 482 616 537 616 q 384 589 433 616 q 290 508 335 562 l 290 0 l 101 0 l 101 758 l 290 758 l 290 625 l 328 625 q 421 732 357 693 q 567 770 485 770 q 725 709 668 770 q 783 542 783 648 l 783 -253 l 593 -253 z "},"ή":{"ha":884,"x_min":101,"x_max":783,"o":"m 593 -253 l 593 504 q 565 588 593 559 q 482 616 537 616 q 384 589 433 616 q 290 508 335 562 l 290 0 l 101 0 l 101 758 l 290 758 l 290 625 l 328 625 q 421 732 357 693 q 567 770 485 770 q 725 709 668 770 q 783 542 783 648 l 783 -253 l 593 -253 m 386 884 l 463 1136 l 703 1136 l 514 884 l 386 884 z "},"θ":{"ha":884,"x_min":101,"x_max":783,"o":"m 442 -13 q 194 61 288 -13 q 101 274 101 135 l 101 731 q 194 948 101 872 q 443 1023 288 1023 q 690 948 597 1023 q 783 731 783 872 l 783 274 q 690 61 783 135 q 442 -13 597 -13 m 284 727 l 284 578 l 600 578 l 600 729 q 563 840 600 803 q 442 878 525 878 q 321 840 359 878 q 284 727 284 802 m 442 133 q 563 169 525 133 q 600 284 600 206 l 600 446 l 284 446 l 284 284 q 321 169 284 206 q 442 133 359 133 z "},"ι":{"ha":884,"x_min":95,"x_max":801,"o":"m 620 -9 q 412 62 489 -9 q 335 249 335 133 l 335 612 l 95 612 l 95 758 l 524 758 l 524 273 q 555 175 524 207 q 644 143 586 143 q 711 150 677 143 q 769 168 745 158 l 801 27 q 711 1 758 10 q 620 -9 665 -9 z "},"ΐ":{"ha":884,"x_min":86,"x_max":801,"o":"m 620 -9 q 412 62 489 -9 q 335 249 335 133 l 335 612 l 95 612 l 95 758 l 524 758 l 524 273 q 555 175 524 207 q 644 143 586 143 q 711 150 677 143 q 769 168 745 158 l 801 27 q 711 1 758 10 q 620 -9 665 -9 m 332 884 l 390 1136 l 574 1136 l 442 884 l 332 884 m 177 878 q 111 896 136 878 q 86 962 86 915 l 86 976 q 111 1044 86 1024 q 177 1063 136 1063 q 242 1044 217 1063 q 266 976 266 1024 l 266 962 q 241 896 266 915 q 177 878 216 878 m 682 878 q 617 896 643 878 q 592 962 592 915 l 592 976 q 617 1044 592 1024 q 682 1063 643 1063 q 747 1044 722 1063 q 773 976 773 1024 l 773 962 q 747 896 773 915 q 682 878 721 878 z "},"ί":{"ha":884,"x_min":95,"x_max":801,"o":"m 620 -9 q 412 62 489 -9 q 335 249 335 133 l 335 612 l 95 612 l 95 758 l 524 758 l 524 273 q 555 175 524 207 q 644 143 586 143 q 711 150 677 143 q 769 168 745 158 l 801 27 q 711 1 758 10 q 620 -9 665 -9 m 336 884 l 413 1136 l 653 1136 l 463 884 l 336 884 z "},"ϊ":{"ha":884,"x_min":95,"x_max":801,"o":"m 620 -9 q 412 62 489 -9 q 335 249 335 133 l 335 612 l 95 612 l 95 758 l 524 758 l 524 273 q 555 175 524 207 q 644 143 586 143 q 711 150 677 143 q 769 168 745 158 l 801 27 q 711 1 758 10 q 620 -9 665 -9 m 280 884 q 206 903 235 884 q 178 968 178 922 l 178 982 q 206 1050 178 1030 q 280 1069 235 1069 q 355 1050 327 1069 q 384 982 384 1030 l 384 968 q 355 903 384 922 q 280 884 326 884 m 591 884 q 516 903 544 884 q 487 968 487 922 l 487 982 q 516 1050 487 1030 q 591 1069 544 1069 q 665 1050 638 1069 q 693 982 693 1030 l 693 968 q 664 903 693 922 q 591 884 635 884 z "},"κ":{"ha":884,"x_min":139,"x_max":808,"o":"m 328 327 l 328 0 l 139 0 l 139 758 l 328 758 l 328 462 l 384 462 l 602 758 l 808 758 l 539 412 l 804 0 l 598 0 l 384 327 l 328 327 z "},"λ":{"ha":884,"x_min":62,"x_max":821,"o":"m 626 0 l 437 605 l 254 0 l 62 0 l 288 701 l 407 701 l 396 731 q 335 839 374 806 q 217 872 295 872 q 167 870 194 872 q 109 862 140 867 l 86 1008 q 156 1015 121 1013 q 222 1018 191 1018 q 432 967 352 1018 q 553 795 513 917 l 821 0 l 626 0 z "},"μ":{"ha":884,"x_min":95,"x_max":840,"o":"m 297 25 l 309 -253 l 95 -253 l 107 25 l 107 758 l 297 758 l 297 266 q 329 174 297 202 q 408 145 361 145 q 485 165 453 145 q 549 221 518 186 l 549 758 l 739 758 l 739 234 q 762 153 739 170 q 840 144 785 136 l 840 1 q 700 11 750 -16 q 630 114 650 38 l 598 114 q 531 25 574 63 q 417 -13 487 -13 q 348 2 378 -13 q 297 44 318 16 l 297 25 z "},"ν":{"ha":884,"x_min":62,"x_max":821,"o":"m 539 0 l 343 0 l 62 758 l 255 758 l 463 158 q 580 463 537 304 q 634 758 622 622 l 821 758 q 720 354 797 544 q 539 0 643 163 z "},"ξ":{"ha":884,"x_min":21,"x_max":795,"o":"m 795 -33 q 724 -197 795 -141 q 518 -253 653 -253 l 372 -253 l 372 -114 l 524 -114 q 598 -99 571 -114 q 625 -38 625 -85 q 598 25 625 9 q 524 42 571 42 l 410 42 q 189 104 270 42 q 107 274 107 165 l 107 302 q 163 434 107 378 q 331 499 218 490 l 331 528 q 221 565 259 528 q 183 654 183 602 q 215 740 183 705 q 312 790 247 775 l 312 819 q 124 871 196 821 q 21 1008 53 920 l 140 1063 q 266 954 182 984 q 472 947 350 924 l 732 1044 l 774 862 l 500 812 l 446 782 q 390 732 408 761 q 372 664 372 702 q 396 600 372 619 q 453 581 419 581 l 682 581 l 682 442 l 449 442 q 333 407 369 442 q 297 321 297 371 l 297 293 q 333 211 297 242 q 448 181 369 181 l 542 181 q 730 129 665 181 q 795 -33 795 77 z "},"ο":{"ha":884,"x_min":101,"x_max":783,"o":"m 442 -13 q 191 62 280 -13 q 101 274 101 138 l 101 479 q 191 694 101 617 q 443 770 282 770 q 694 693 605 770 q 783 476 783 615 l 783 271 q 693 62 783 136 q 442 -13 604 -13 m 442 133 q 557 169 520 133 q 593 280 593 205 l 593 473 q 557 588 593 552 q 442 625 520 625 q 327 588 364 625 q 290 475 290 552 l 290 284 q 327 169 290 206 q 442 133 364 133 z "},"ό":{"ha":884,"x_min":101,"x_max":783,"o":"m 442 -13 q 191 62 280 -13 q 101 274 101 138 l 101 479 q 191 694 101 617 q 443 770 282 770 q 694 693 605 770 q 783 476 783 615 l 783 271 q 693 62 783 136 q 442 -13 604 -13 m 442 133 q 557 169 520 133 q 593 280 593 205 l 593 473 q 557 588 593 552 q 442 625 520 625 q 327 588 364 625 q 290 475 290 552 l 290 284 q 327 169 290 206 q 442 133 364 133 m 336 884 l 413 1136 l 653 1136 l 463 884 l 336 884 z "},"π":{"ha":884,"x_min":32,"x_max":821,"o":"m 808 758 l 808 612 l 682 612 l 682 234 q 711 153 682 172 q 821 144 741 135 l 821 1 q 585 25 665 -23 q 505 188 505 72 l 505 612 l 316 612 l 316 0 l 139 0 l 139 612 l 32 612 l 32 758 l 808 758 z "},"ρ":{"ha":884,"x_min":101,"x_max":783,"o":"m 473 143 q 563 180 533 143 q 593 289 593 217 l 593 480 q 556 589 593 554 q 444 624 519 624 q 330 589 369 624 q 290 480 290 554 l 290 240 q 383 167 337 191 q 473 143 428 143 m 101 -253 l 101 480 q 190 696 101 624 q 438 768 279 768 q 693 696 602 768 q 783 480 783 624 l 783 264 q 715 62 783 136 q 534 -13 646 -13 q 405 26 458 -13 q 328 133 352 64 l 290 133 l 290 -253 l 101 -253 z "},"ς":{"ha":884,"x_min":101,"x_max":785,"o":"m 350 -253 l 350 -107 l 514 -107 q 583 -93 557 -107 q 609 -35 609 -80 q 583 27 609 11 q 514 42 557 42 l 405 42 q 177 120 253 42 q 101 341 101 198 l 101 476 q 188 694 101 617 q 446 770 274 770 q 682 699 606 770 q 771 491 758 629 l 591 477 q 552 592 586 558 q 442 625 518 625 q 325 589 360 625 q 290 471 290 553 l 290 341 q 324 223 290 259 q 438 187 359 187 l 552 187 q 723 133 662 187 q 785 -29 785 78 q 706 -194 785 -135 q 489 -253 628 -253 l 350 -253 z "},"σ":{"ha":884,"x_min":101,"x_max":884,"o":"m 417 133 q 513 167 482 133 q 543 278 543 201 l 543 463 q 513 580 543 542 q 417 619 482 619 q 321 583 352 619 q 290 475 290 547 l 290 278 q 321 167 290 201 q 417 133 352 133 m 417 -13 q 187 61 273 -13 q 101 274 101 135 l 101 472 q 188 682 101 607 q 418 758 274 758 l 884 758 l 884 600 l 663 616 q 715 536 697 583 q 732 428 732 489 l 732 274 q 647 61 732 135 q 417 -13 562 -13 z "},"τ":{"ha":884,"x_min":95,"x_max":802,"o":"m 688 1 q 433 21 519 -25 q 347 188 347 68 l 347 606 l 95 606 l 95 758 l 802 758 l 802 606 l 537 606 l 537 234 q 569 153 537 172 q 688 144 602 134 l 688 1 z "},"υ":{"ha":884,"x_min":101,"x_max":783,"o":"m 443 -13 q 190 68 279 -13 q 101 295 101 149 l 101 758 l 290 758 l 290 301 q 326 177 290 215 q 442 139 362 139 q 557 177 521 139 q 593 298 593 215 l 593 758 l 783 758 l 783 295 q 694 68 783 149 q 443 -13 606 -13 z "},"ΰ":{"ha":884,"x_min":98,"x_max":785,"o":"m 443 -13 q 190 68 279 -13 q 101 295 101 149 l 101 758 l 290 758 l 290 301 q 326 177 290 215 q 442 139 362 139 q 557 177 521 139 q 593 298 593 215 l 593 758 l 783 758 l 783 295 q 694 68 783 149 q 443 -13 606 -13 m 345 884 l 403 1136 l 587 1136 l 455 884 l 345 884 m 189 878 q 124 896 149 878 q 98 962 98 915 l 98 976 q 124 1044 98 1024 q 189 1063 149 1063 q 254 1044 230 1063 q 279 976 279 1024 l 279 962 q 254 896 279 915 q 189 878 229 878 m 694 878 q 630 896 655 878 q 605 962 605 915 l 605 976 q 630 1044 605 1024 q 694 1063 655 1063 q 760 1044 735 1063 q 785 976 785 1024 l 785 962 q 759 896 785 915 q 694 878 734 878 z "},"ϋ":{"ha":884,"x_min":101,"x_max":783,"o":"m 443 -13 q 190 68 279 -13 q 101 295 101 149 l 101 758 l 290 758 l 290 301 q 326 177 290 215 q 442 139 362 139 q 557 177 521 139 q 593 298 593 215 l 593 758 l 783 758 l 783 295 q 694 68 783 149 q 443 -13 606 -13 m 287 884 q 213 903 241 884 q 184 968 184 922 l 184 982 q 213 1050 184 1030 q 287 1069 241 1069 q 362 1050 333 1069 q 390 982 390 1030 l 390 968 q 361 903 390 922 q 287 884 332 884 m 597 884 q 522 903 551 884 q 494 968 494 922 l 494 982 q 522 1050 494 1030 q 597 1069 551 1069 q 672 1050 644 1069 q 699 982 699 1030 l 699 968 q 670 903 699 922 q 597 884 641 884 z "},"ύ":{"ha":884,"x_min":101,"x_max":783,"o":"m 443 -13 q 190 68 279 -13 q 101 295 101 149 l 101 758 l 290 758 l 290 301 q 326 177 290 215 q 442 139 362 139 q 557 177 521 139 q 593 298 593 215 l 593 758 l 783 758 l 783 295 q 694 68 783 149 q 443 -13 606 -13 m 330 884 l 407 1136 l 646 1136 l 457 884 l 330 884 z "},"φ":{"ha":884,"x_min":62,"x_max":823,"o":"m 521 -253 l 362 -253 l 362 -6 q 143 112 223 15 q 62 369 62 208 l 62 453 q 80 633 62 552 q 134 773 98 715 l 288 732 q 241 610 260 682 q 222 453 222 539 l 222 369 q 259 205 222 261 q 375 133 295 148 l 375 758 l 495 758 q 734 665 645 758 q 823 396 823 573 l 823 337 q 742 102 823 191 q 521 -8 660 13 l 521 -253 m 509 619 l 509 131 q 636 193 596 143 q 676 337 676 242 l 676 396 q 633 566 676 513 q 509 619 591 619 z "},"χ":{"ha":884,"x_min":77,"x_max":807,"o":"m 588 -253 l 429 78 l 263 -253 l 77 -253 l 346 247 l 98 758 l 287 758 l 451 422 l 621 758 l 807 758 l 533 253 l 779 -253 l 588 -253 z "},"ψ":{"ha":884,"x_min":62,"x_max":823,"o":"m 521 -253 l 362 -253 l 362 -15 q 136 88 210 3 q 62 312 62 173 l 62 758 l 222 758 l 222 331 q 257 194 222 242 q 369 134 292 146 l 369 758 l 515 758 l 515 134 q 627 194 592 146 q 662 331 662 242 l 662 758 l 823 758 l 823 312 q 749 88 823 173 q 521 -15 674 3 l 521 -253 z "},"ω":{"ha":884,"x_min":62,"x_max":823,"o":"m 250 -13 q 114 69 165 -13 q 62 306 62 150 l 62 453 q 80 636 62 553 q 128 779 97 720 l 282 739 q 240 599 258 673 q 222 453 222 525 l 222 306 q 241 181 222 222 q 294 139 259 139 q 350 168 332 139 q 369 261 369 197 l 369 568 l 515 568 l 515 261 q 534 168 515 197 q 591 139 553 139 q 644 181 626 139 q 662 306 662 222 l 662 453 q 644 599 662 525 q 602 739 626 673 l 758 779 q 806 636 788 720 q 823 453 823 553 l 823 306 q 770 69 823 150 q 630 -13 717 -13 q 524 24 572 -13 q 455 154 476 61 l 428 154 q 361 24 412 61 q 250 -13 311 -13 z "},"ώ":{"ha":884,"x_min":62,"x_max":823,"o":"m 250 -13 q 114 69 165 -13 q 62 306 62 150 l 62 453 q 80 636 62 553 q 128 779 97 720 l 282 739 q 240 599 258 673 q 222 453 222 525 l 222 306 q 241 181 222 222 q 294 139 259 139 q 350 168 332 139 q 369 261 369 197 l 369 568 l 515 568 l 515 261 q 534 168 515 197 q 591 139 553 139 q 644 181 626 139 q 662 306 662 222 l 662 453 q 644 599 662 525 q 602 739 626 673 l 758 779 q 806 636 788 720 q 823 453 823 553 l 823 306 q 770 69 823 150 q 630 -13 717 -13 q 524 24 572 -13 q 455 154 476 61 l 428 154 q 361 24 412 61 q 250 -13 311 -13 m 346 884 l 423 1136 l 663 1136 l 473 884 l 346 884 z "},"а":{"ha":884,"x_min":69,"x_max":852,"o":"m 355 117 q 453 134 408 117 q 537 188 499 152 l 537 311 l 347 311 q 273 290 301 311 q 246 212 246 270 q 271 142 246 167 q 355 117 297 117 m 313 -13 q 140 43 210 -13 q 69 206 69 98 q 140 366 69 309 q 321 422 211 422 l 537 422 l 537 519 q 503 602 537 576 q 400 629 468 629 q 297 605 331 629 q 245 510 263 582 l 87 542 q 187 717 112 663 q 404 770 261 770 q 636 711 552 770 q 720 527 720 652 l 720 221 q 754 149 720 163 q 852 144 788 135 l 852 1 q 694 7 760 -18 q 611 120 628 32 l 580 120 q 471 27 542 66 q 313 -13 400 -13 z "},"б":{"ha":884,"x_min":101,"x_max":783,"o":"m 442 -13 q 191 66 282 -13 q 101 304 101 144 l 101 598 q 189 879 101 787 q 437 992 278 972 l 722 1029 l 741 878 l 466 841 q 326 780 372 828 q 279 631 280 732 l 278 569 l 307 569 q 386 651 333 620 q 525 682 438 682 q 713 612 644 682 q 783 426 783 543 l 783 284 q 693 62 783 136 q 442 -13 604 -13 m 441 133 q 557 168 523 133 q 591 275 591 203 l 591 405 q 557 503 591 471 q 441 535 523 535 q 324 503 359 535 q 290 405 290 471 l 290 275 q 324 168 290 203 q 441 133 359 133 z "},"в":{"ha":884,"x_min":101,"x_max":807,"o":"m 101 0 l 101 758 l 443 758 q 696 713 607 758 q 784 569 784 668 l 784 545 q 737 447 784 484 q 610 405 691 410 l 610 378 q 758 326 708 371 q 807 220 807 282 l 807 201 q 721 51 807 102 q 443 0 635 0 l 101 0 m 284 451 l 453 451 q 568 467 535 451 q 601 529 601 482 l 601 547 q 568 611 601 593 q 449 629 535 629 l 284 629 l 284 451 m 284 135 l 449 135 q 586 158 548 135 q 624 232 624 182 l 624 245 q 588 316 624 295 q 453 337 552 337 l 284 337 l 284 135 z "},"г":{"ha":884,"x_min":158,"x_max":777,"o":"m 158 0 l 158 758 l 777 758 l 777 606 l 347 606 l 347 0 l 158 0 z "},"ѓ":{"ha":884,"x_min":158,"x_max":777,"o":"m 158 0 l 158 758 l 777 758 l 777 606 l 347 606 l 347 0 l 158 0 m 336 884 l 489 1136 l 741 1136 l 476 884 l 336 884 z "},"д":{"ha":884,"x_min":38,"x_max":846,"o":"m 307 182 l 307 152 l 556 152 l 556 606 l 361 606 l 357 352 q 343 256 356 297 q 307 182 331 215 m 215 0 l 215 -189 l 38 -189 l 38 152 l 125 152 q 169 221 154 174 q 186 359 184 268 l 191 758 l 732 758 l 732 152 l 846 152 l 846 -189 l 669 -189 l 669 0 l 215 0 z "},"е":{"ha":884,"x_min":101,"x_max":793,"o":"m 793 173 q 676 29 751 71 q 446 -13 601 -13 q 196 60 292 -13 q 101 277 101 133 l 101 479 q 194 695 101 620 q 443 770 287 770 q 692 694 601 770 q 783 473 783 619 l 783 341 l 290 341 l 290 268 q 328 157 290 193 q 448 120 366 120 q 561 141 520 120 q 629 218 602 163 l 793 173 m 290 491 l 290 452 l 593 452 l 593 480 q 558 604 593 567 q 442 641 523 641 q 326 606 361 641 q 290 491 290 571 z "},"ѐ":{"ha":884,"x_min":101,"x_max":793,"o":"m 793 173 q 676 29 751 71 q 446 -13 601 -13 q 196 60 292 -13 q 101 277 101 133 l 101 479 q 194 695 101 620 q 443 770 287 770 q 692 694 601 770 q 783 473 783 619 l 783 341 l 290 341 l 290 268 q 328 157 290 193 q 448 120 366 120 q 561 141 520 120 q 629 218 602 163 l 793 173 m 290 491 l 290 452 l 593 452 l 593 480 q 558 604 593 567 q 442 641 523 641 q 326 606 361 641 q 290 491 290 571 m 434 884 l 169 1136 l 422 1136 l 574 884 l 434 884 z "},"ё":{"ha":884,"x_min":101,"x_max":793,"o":"m 793 173 q 676 29 751 71 q 446 -13 601 -13 q 196 60 292 -13 q 101 277 101 133 l 101 479 q 194 695 101 620 q 443 770 287 770 q 692 694 601 770 q 783 473 783 619 l 783 341 l 290 341 l 290 268 q 328 157 290 193 q 448 120 366 120 q 561 141 520 120 q 629 218 602 163 l 793 173 m 290 491 l 290 452 l 593 452 l 593 480 q 558 604 593 567 q 442 641 523 641 q 326 606 361 641 q 290 491 290 571 m 288 884 q 214 903 242 884 q 186 968 186 922 l 186 982 q 214 1050 186 1030 q 288 1069 242 1069 q 363 1050 335 1069 q 391 982 391 1030 l 391 968 q 362 903 391 922 q 288 884 333 884 m 598 884 q 523 903 552 884 q 495 968 495 922 l 495 982 q 523 1050 495 1030 q 598 1069 552 1069 q 673 1050 645 1069 q 701 982 701 1030 l 701 968 q 672 903 701 922 q 598 884 643 884 z "},"ж":{"ha":884,"x_min":14,"x_max":869,"o":"m 322 338 l 182 0 l 18 0 l 208 420 l 14 758 l 179 758 l 332 465 l 370 465 l 370 758 l 515 758 l 515 465 l 549 465 l 699 758 l 869 758 l 676 422 l 866 0 l 699 0 l 559 338 l 515 338 l 515 0 l 370 0 l 370 338 l 322 338 z "},"з":{"ha":884,"x_min":90,"x_max":807,"o":"m 443 -13 q 183 48 266 -13 q 90 242 100 109 l 265 251 q 314 144 275 172 q 443 116 352 116 q 581 142 545 116 q 617 229 617 168 l 617 241 q 583 321 617 298 q 447 343 549 343 l 383 343 l 383 457 l 447 457 q 561 473 527 457 q 595 539 595 490 l 595 557 q 561 623 595 605 q 443 641 527 641 q 330 617 364 641 q 288 520 297 592 l 112 530 q 199 714 121 658 q 443 770 278 770 q 697 723 610 770 q 784 569 784 676 l 784 545 q 737 449 784 484 q 610 409 691 414 l 610 381 q 758 330 708 375 q 807 222 807 284 l 807 203 q 722 42 807 97 q 443 -13 638 -13 z "},"и":{"ha":884,"x_min":101,"x_max":783,"o":"m 616 0 l 616 540 l 313 0 l 101 0 l 101 758 l 269 758 l 269 196 l 585 758 l 783 758 l 783 0 l 616 0 z "},"й":{"ha":884,"x_min":101,"x_max":783,"o":"m 616 0 l 616 540 l 313 0 l 101 0 l 101 758 l 269 758 l 269 196 l 585 758 l 783 758 l 783 0 l 616 0 m 442 875 q 230 936 319 875 q 143 1146 141 996 l 313 1159 q 341 1037 313 1073 q 442 1000 369 1000 q 543 1037 515 1000 q 571 1159 571 1073 l 741 1146 q 653 936 742 996 q 442 875 564 875 z "},"ѝ":{"ha":884,"x_min":101,"x_max":783,"o":"m 616 0 l 616 540 l 313 0 l 101 0 l 101 758 l 269 758 l 269 196 l 585 758 l 783 758 l 783 0 l 616 0 m 443 884 l 178 1136 l 431 1136 l 583 884 l 443 884 z "},"к":{"ha":884,"x_min":139,"x_max":808,"o":"m 328 327 l 328 0 l 139 0 l 139 758 l 328 758 l 328 462 l 384 462 l 602 758 l 808 758 l 539 412 l 804 0 l 598 0 l 384 327 l 328 327 z "},"ќ":{"ha":884,"x_min":139,"x_max":808,"o":"m 328 327 l 328 0 l 139 0 l 139 758 l 328 758 l 328 462 l 384 462 l 602 758 l 808 758 l 539 412 l 804 0 l 598 0 l 384 327 l 328 327 m 365 884 l 518 1136 l 770 1136 l 505 884 l 365 884 z "},"л":{"ha":884,"x_min":18,"x_max":789,"o":"m 600 0 l 600 612 l 375 612 l 372 292 q 309 59 371 134 q 131 -15 247 -15 q 74 -9 104 -15 q 18 4 45 -4 l 42 149 q 74 140 61 144 q 101 136 88 136 q 170 173 148 136 q 193 308 192 210 l 197 758 l 789 758 l 789 0 l 600 0 z "},"м":{"ha":884,"x_min":88,"x_max":795,"o":"m 370 189 l 240 529 l 253 0 l 88 0 l 88 758 l 303 758 l 446 356 l 587 758 l 795 758 l 795 0 l 631 0 l 644 528 l 516 189 l 370 189 z "},"н":{"ha":884,"x_min":101,"x_max":783,"o":"m 101 0 l 101 758 l 290 758 l 290 499 l 593 499 l 593 758 l 783 758 l 783 0 l 593 0 l 593 347 l 290 347 l 290 0 l 101 0 z "},"о":{"ha":884,"x_min":101,"x_max":783,"o":"m 442 -13 q 191 62 280 -13 q 101 274 101 138 l 101 479 q 191 694 101 617 q 443 770 282 770 q 694 693 605 770 q 783 476 783 615 l 783 271 q 693 62 783 136 q 442 -13 604 -13 m 442 133 q 557 169 520 133 q 593 280 593 205 l 593 473 q 557 588 593 552 q 442 625 520 625 q 327 588 364 625 q 290 475 290 552 l 290 284 q 327 169 290 206 q 442 133 364 133 z "},"п":{"ha":884,"x_min":101,"x_max":783,"o":"m 101 0 l 101 758 l 783 758 l 783 0 l 593 0 l 593 606 l 290 606 l 290 0 l 101 0 z "},"р":{"ha":884,"x_min":101,"x_max":783,"o":"m 439 134 q 556 168 519 134 q 593 279 593 202 l 593 476 q 563 582 593 548 q 473 616 533 616 q 381 592 424 616 q 290 518 337 568 l 290 174 q 360 144 326 154 q 439 134 394 134 m 463 -10 q 375 -2 420 -10 q 290 23 330 6 l 290 -253 l 101 -253 l 101 758 l 290 758 l 290 625 l 328 625 q 419 731 359 692 q 553 770 480 770 q 721 698 659 770 q 783 500 783 625 l 783 277 q 697 68 783 145 q 463 -10 611 -10 z "},"с":{"ha":884,"x_min":101,"x_max":790,"o":"m 457 -13 q 192 62 283 -13 q 101 280 101 138 l 101 477 q 192 695 101 620 q 456 770 283 770 q 696 699 616 770 q 790 497 777 629 l 607 484 q 565 592 602 559 q 451 625 528 625 q 329 588 367 625 q 290 468 290 552 l 290 287 q 330 169 290 206 q 453 133 369 133 q 566 160 529 133 q 607 249 602 187 l 790 235 q 705 51 782 115 q 457 -13 629 -13 z "},"т":{"ha":884,"x_min":76,"x_max":808,"o":"m 347 0 l 347 606 l 76 606 l 76 758 l 808 758 l 808 606 l 537 606 l 537 0 l 347 0 z "},"у":{"ha":884,"x_min":62,"x_max":821,"o":"m 232 -264 q 156 -260 196 -264 q 73 -250 116 -256 l 90 -105 q 169 -118 134 -114 q 232 -122 205 -122 q 336 -92 297 -122 q 400 16 376 -62 l 403 25 l 299 25 l 62 758 l 259 758 l 442 152 l 631 758 l 821 758 l 566 -3 q 441 -205 519 -145 q 232 -264 362 -264 z "},"ў":{"ha":884,"x_min":62,"x_max":821,"o":"m 232 -264 q 156 -260 196 -264 q 73 -250 116 -256 l 90 -105 q 169 -118 134 -114 q 232 -122 205 -122 q 336 -92 297 -122 q 400 16 376 -62 l 403 25 l 299 25 l 62 758 l 259 758 l 442 152 l 631 758 l 821 758 l 566 -3 q 441 -205 519 -145 q 232 -264 362 -264 m 442 875 q 230 936 319 875 q 143 1146 141 996 l 313 1159 q 341 1037 313 1073 q 442 1000 369 1000 q 543 1037 515 1000 q 571 1159 571 1073 l 741 1146 q 653 936 742 996 q 442 875 564 875 z "},"ф":{"ha":884,"x_min":62,"x_max":823,"o":"m 553 0 l 521 0 l 521 -253 l 362 -253 l 362 0 l 332 0 q 133 74 205 0 q 62 278 62 148 l 62 482 q 133 684 62 611 q 332 758 205 758 l 362 758 l 362 1010 l 521 1010 l 521 758 l 553 758 q 751 684 679 758 q 823 482 823 611 l 823 277 q 751 74 823 148 q 553 0 679 0 m 346 129 l 375 129 l 375 629 l 346 629 q 254 593 288 629 q 220 477 220 557 l 220 279 q 254 164 220 199 q 346 129 288 129 m 539 629 l 509 629 l 509 129 l 539 129 q 631 164 597 129 q 665 279 665 199 l 665 477 q 631 593 665 557 q 539 629 597 629 z "},"х":{"ha":884,"x_min":77,"x_max":804,"o":"m 606 0 l 433 256 l 271 0 l 77 0 l 346 384 l 92 758 l 288 758 l 448 521 l 601 758 l 795 758 l 538 391 l 804 0 l 606 0 z "},"ц":{"ha":884,"x_min":101,"x_max":850,"o":"m 669 -189 l 669 0 l 101 0 l 101 758 l 290 758 l 290 152 l 553 152 l 553 758 l 742 758 l 742 152 l 850 152 l 850 -189 l 669 -189 z "},"ч":{"ha":884,"x_min":82,"x_max":745,"o":"m 745 758 l 745 0 l 556 0 l 556 245 q 489 228 527 235 q 400 221 451 221 q 162 296 242 221 q 82 519 82 371 l 82 758 l 271 758 l 271 521 q 311 403 271 436 q 418 370 351 371 q 496 378 461 370 q 556 399 532 386 l 556 758 l 745 758 z "},"ш":{"ha":884,"x_min":62,"x_max":823,"o":"m 62 0 l 62 758 l 220 758 l 220 140 l 364 140 l 364 758 l 520 758 l 520 140 l 665 140 l 665 758 l 823 758 l 823 0 l 62 0 z "},"щ":{"ha":884,"x_min":62,"x_max":881,"o":"m 881 -189 l 723 -189 l 723 0 l 62 0 l 62 758 l 220 758 l 220 140 l 364 140 l 364 758 l 520 758 l 520 140 l 665 140 l 665 758 l 823 758 l 823 145 l 881 145 l 881 -189 z "},"ъ":{"ha":884,"x_min":0,"x_max":827,"o":"m 539 0 l 189 0 l 189 606 l 0 606 l 0 758 l 379 758 l 379 529 l 539 529 q 751 467 674 529 q 827 293 827 404 l 827 235 q 751 62 827 125 q 539 0 674 0 m 379 145 l 505 145 q 605 169 573 145 q 638 245 638 192 l 638 292 q 605 365 638 343 q 505 386 573 386 l 379 386 l 379 145 z "},"ы":{"ha":884,"x_min":74,"x_max":811,"o":"m 74 0 l 74 758 l 235 758 l 235 542 l 306 542 q 489 484 423 542 q 556 324 556 427 l 556 229 q 489 61 556 121 q 306 0 423 0 l 74 0 m 649 0 l 649 758 l 811 758 l 811 0 l 649 0 m 235 136 l 290 136 q 376 160 348 136 q 404 241 404 183 l 404 308 q 376 385 404 362 q 290 408 348 408 l 235 408 l 235 136 z "},"ь":{"ha":884,"x_min":95,"x_max":808,"o":"m 95 0 l 95 758 l 284 758 l 284 529 l 508 529 q 729 467 650 529 q 808 293 808 404 l 808 235 q 729 62 808 124 q 508 0 650 0 l 95 0 m 284 145 l 473 145 q 583 167 548 145 q 619 241 619 189 l 619 289 q 583 364 619 341 q 473 386 548 386 l 284 386 l 284 145 z "},"э":{"ha":884,"x_min":87,"x_max":783,"o":"m 424 -13 q 179 47 261 -13 q 87 232 96 107 l 271 246 q 311 152 277 181 q 428 124 345 124 q 555 160 516 124 q 593 278 593 197 l 593 332 l 351 332 l 351 452 l 593 452 l 593 481 q 556 597 593 561 q 431 634 518 634 q 314 605 351 634 q 271 509 277 576 l 87 523 q 183 709 100 648 q 426 770 266 770 q 689 697 595 770 q 783 477 783 624 l 783 280 q 691 62 783 138 q 424 -13 600 -13 z "},"ю":{"ha":884,"x_min":62,"x_max":823,"o":"m 574 -13 q 389 56 449 -13 q 328 242 328 125 l 328 347 l 227 347 l 227 0 l 62 0 l 62 758 l 227 758 l 227 486 l 328 486 l 328 510 q 390 701 328 631 q 576 770 451 770 q 763 701 702 770 q 823 510 823 631 l 823 242 q 762 56 823 125 q 574 -13 701 -13 m 574 126 q 644 155 625 126 q 663 242 663 184 l 663 510 q 644 602 663 572 q 574 631 625 631 q 506 602 525 631 q 486 510 486 572 l 486 242 q 506 155 486 184 q 574 126 525 126 z "},"я":{"ha":884,"x_min":90,"x_max":783,"o":"m 404 384 l 593 384 l 593 619 l 404 619 q 328 597 354 619 q 303 518 303 576 l 303 490 q 328 406 303 428 q 404 384 354 384 m 593 246 l 495 246 l 302 0 l 90 0 l 293 260 q 160 335 206 277 q 114 486 114 393 l 114 520 q 181 696 114 634 q 371 758 249 758 l 783 758 l 783 0 l 593 0 l 593 246 z "},"ђ":{"ha":884,"x_min":-25,"x_max":783,"o":"m 496 -264 q 415 -256 457 -264 q 330 -236 372 -249 l 355 -96 q 420 -114 390 -107 q 479 -121 451 -121 q 563 -90 532 -121 q 593 14 593 -58 l 593 415 q 565 508 593 476 q 482 540 537 540 q 385 508 434 540 q 290 419 336 476 l 290 0 l 101 0 l 101 777 l -25 777 l -25 890 l 101 890 l 101 1010 l 290 1010 l 290 890 l 518 890 l 518 777 l 290 777 l 290 549 l 328 549 q 419 656 357 617 q 561 694 481 694 q 721 633 659 694 q 783 466 783 572 l 783 -5 q 698 -202 783 -140 q 496 -264 614 -264 z "},"є":{"ha":884,"x_min":101,"x_max":797,"o":"m 797 232 q 705 47 788 107 q 460 -13 621 -13 q 193 62 284 -13 q 101 280 101 138 l 101 477 q 195 697 101 624 q 458 770 289 770 q 701 709 619 770 q 797 523 784 648 l 614 509 q 571 605 609 576 q 455 634 534 634 q 329 597 367 634 q 290 481 290 561 l 290 448 l 548 448 l 548 335 l 290 335 l 290 278 q 330 160 290 197 q 457 124 369 124 q 574 152 540 124 q 614 246 609 181 l 797 232 z "},"ѕ":{"ha":884,"x_min":88,"x_max":783,"o":"m 448 -10 q 256 17 350 -10 q 88 97 162 44 l 145 222 q 295 149 213 174 q 451 124 376 124 q 554 142 513 124 q 595 211 595 160 q 557 278 595 258 q 422 311 519 298 q 193 374 271 327 q 114 530 114 422 q 201 707 114 644 q 423 770 289 770 q 591 744 506 770 q 745 670 676 717 l 694 551 q 562 614 630 592 q 428 636 494 636 q 338 617 374 636 q 302 551 302 597 q 344 485 302 504 q 492 453 386 466 q 711 382 639 436 q 783 230 783 328 q 689 51 783 112 q 448 -10 595 -10 z "},"і":{"ha":884,"x_min":107,"x_max":777,"o":"m 107 0 l 107 145 l 347 145 l 347 612 l 107 612 l 107 758 l 537 758 l 537 145 l 777 145 l 777 0 l 107 0 m 449 884 q 352 903 389 884 q 314 968 314 922 l 314 982 q 352 1050 314 1030 q 449 1069 389 1069 q 547 1050 510 1069 q 585 982 585 1030 l 585 968 q 547 903 585 922 q 449 884 509 884 z "},"ї":{"ha":884,"x_min":107,"x_max":777,"o":"m 107 0 l 107 145 l 347 145 l 347 612 l 107 612 l 107 758 l 537 758 l 537 145 l 777 145 l 777 0 l 107 0 m 287 884 q 213 903 241 884 q 184 968 184 922 l 184 982 q 213 1050 184 1030 q 287 1069 241 1069 q 362 1050 333 1069 q 390 982 390 1030 l 390 968 q 361 903 390 922 q 287 884 332 884 m 597 884 q 522 903 551 884 q 494 968 494 922 l 494 982 q 522 1050 494 1030 q 597 1069 551 1069 q 672 1050 644 1069 q 699 982 699 1030 l 699 968 q 670 903 699 922 q 597 884 641 884 z "},"ј":{"ha":884,"x_min":96,"x_max":689,"o":"m 313 -264 q 205 -258 259 -264 q 96 -236 152 -253 l 121 -96 q 213 -117 170 -112 q 295 -121 256 -121 q 421 -90 375 -121 q 467 14 467 -58 l 467 612 l 134 612 l 134 758 l 657 758 l 657 -5 q 562 -198 657 -131 q 313 -264 467 -264 m 554 884 q 456 903 494 884 q 419 968 419 922 l 419 982 q 456 1050 419 1030 q 554 1069 494 1069 q 652 1050 615 1069 q 689 982 689 1030 l 689 968 q 652 903 689 922 q 554 884 614 884 z "},"љ":{"ha":884,"x_min":-16,"x_max":830,"o":"m 269 625 l 261 176 q 209 38 260 85 q 76 -9 158 -9 q 31 -5 54 -9 q -16 5 8 -1 l 10 149 q 33 143 21 145 q 54 140 44 140 q 93 155 77 140 q 110 215 109 170 l 120 758 l 533 758 l 533 529 l 622 529 q 775 472 720 529 q 830 316 830 415 l 830 226 q 775 60 830 120 q 622 0 720 0 l 380 0 l 380 625 l 269 625 m 533 130 l 590 130 q 656 157 635 131 q 677 239 677 182 l 677 304 q 656 378 677 355 q 590 402 635 402 l 533 402 l 533 130 z "},"њ":{"ha":884,"x_min":62,"x_max":823,"o":"m 527 130 l 583 130 q 650 153 629 130 q 670 226 670 176 l 670 317 q 650 391 670 367 q 583 414 629 414 l 527 414 l 527 130 m 215 369 l 215 0 l 62 0 l 62 758 l 215 758 l 215 505 l 374 505 l 374 758 l 527 758 l 527 542 l 616 542 q 768 487 713 542 q 823 335 823 432 l 823 213 q 768 57 823 114 q 616 0 713 0 l 374 0 l 374 369 l 215 369 z "},"ћ":{"ha":884,"x_min":-25,"x_max":783,"o":"m 290 419 l 290 0 l 101 0 l 101 777 l -25 777 l -25 890 l 101 890 l 101 1010 l 290 1010 l 290 890 l 518 890 l 518 777 l 290 777 l 290 549 l 328 549 q 420 656 357 617 q 561 694 482 694 q 722 631 660 694 q 783 466 783 568 l 783 0 l 593 0 l 593 415 q 565 509 593 477 q 482 540 537 540 q 385 509 433 540 q 290 419 337 477 z "},"џ":{"ha":884,"x_min":101,"x_max":783,"o":"m 352 -189 l 352 0 l 101 0 l 101 758 l 290 758 l 290 152 l 593 152 l 593 758 l 783 758 l 783 0 l 533 0 l 533 -189 l 352 -189 z "},"ґ":{"ha":884,"x_min":158,"x_max":777,"o":"m 158 0 l 158 758 l 597 758 l 597 947 l 777 947 l 777 606 l 347 606 l 347 0 l 158 0 z "},"ⁿ":{"ha":884,"x_min":158,"x_max":726,"o":"m 158 381 l 158 1011 l 318 1011 l 318 903 l 352 903 q 386 956 366 933 q 429 994 405 980 q 480 1016 453 1009 q 537 1023 508 1023 q 614 1006 580 1023 q 674 960 649 990 q 713 883 699 928 q 726 783 726 838 l 726 381 l 567 381 l 567 769 q 561 823 567 799 q 542 861 554 846 q 514 884 530 876 q 477 891 497 891 q 435 883 456 891 q 394 861 414 875 q 357 826 375 846 q 318 782 338 807 l 318 381 l 158 381 z "},"̀":{"ha":0,"x_min":-277,"x_max":129,"o":"m -11 884 l -277 1136 l -24 1136 l 129 884 l -11 884 z "},"́":{"ha":0,"x_min":-157,"x_max":249,"o":"m -157 884 l -4 1136 l 249 1136 l -16 884 l -157 884 z "},"̂":{"ha":0,"x_min":-298,"x_max":298,"o":"m -235 876 l -298 970 l -72 1164 l 69 1164 l 298 970 l 236 878 l -1 1016 l -235 876 z "},"̃":{"ha":0,"x_min":-292,"x_max":293,"o":"m 111 896 q 27 918 58 896 q -27 963 -4 939 q -66 1008 -48 987 q -109 1029 -85 1029 q -147 1008 -130 1029 q -163 922 -164 987 l -163 909 l -292 909 l -292 928 q -244 1095 -292 1028 q -110 1162 -197 1162 q -23 1141 -56 1162 q 30 1096 9 1120 q 69 1051 52 1072 q 109 1029 87 1029 q 148 1050 131 1029 q 164 1136 165 1071 l 164 1149 l 293 1149 l 293 1130 q 245 963 293 1030 q 111 896 197 896 z "},"̄":{"ha":0,"x_min":-269,"x_max":269,"o":"m -269 934 l -269 1086 l 269 1086 l 269 934 l -269 934 z "},"̆":{"ha":0,"x_min":-316,"x_max":316,"o":"m 0 875 q -230 942 -146 875 q -316 1159 -314 1009 l -152 1159 q -114 1036 -150 1072 q 0 1000 -78 1000 q 114 1036 78 1000 q 152 1159 150 1072 l 316 1159 q 230 942 314 1009 q 0 875 146 875 z "},"̇":{"ha":0,"x_min":-135,"x_max":135,"o":"m 0 884 q -98 903 -61 884 q -135 968 -135 922 l -135 982 q -98 1050 -135 1030 q 0 1069 -61 1069 q 98 1050 61 1069 q 135 982 135 1030 l 135 968 q 97 903 135 922 q 0 884 59 884 z "},"̈":{"ha":0,"x_min":-258,"x_max":258,"o":"m -155 884 q -229 903 -201 884 q -258 968 -258 922 l -258 982 q -229 1050 -258 1030 q -155 1069 -201 1069 q -80 1050 -109 1069 q -52 982 -52 1030 l -52 968 q -81 903 -52 922 q -155 884 -110 884 m 155 884 q 80 903 109 884 q 52 968 52 922 l 52 982 q 80 1050 52 1030 q 155 1069 109 1069 q 230 1050 202 1069 q 258 982 258 1030 l 258 968 q 229 903 258 922 q 155 884 199 884 z "},"̊":{"ha":0,"x_min":-234,"x_max":234,"o":"m 0 859 q -169 905 -105 859 q -234 1048 -234 952 l -234 1088 q -169 1234 -234 1187 q 0 1282 -105 1282 q 170 1234 106 1282 q 234 1088 234 1187 l 234 1048 q 169 905 234 952 q 0 859 105 859 m 0 961 q 73 981 48 961 q 97 1048 97 1001 l 97 1088 q 73 1157 97 1135 q 0 1179 48 1179 q -73 1157 -49 1179 q -97 1088 -97 1135 l -97 1048 q -73 981 -97 1001 q 0 961 -49 961 z "},"̋":{"ha":0,"x_min":-220,"x_max":343,"o":"m 71 884 l 135 1136 l 343 1136 l 179 884 l 71 884 m -220 884 l -155 1136 l 53 1136 l -111 884 l -220 884 z "},"̌":{"ha":0,"x_min":-298,"x_max":298,"o":"m -69 889 l -298 1083 l -236 1177 l 1 1037 l 235 1177 l 298 1083 l 72 889 l -69 889 z "},"̒":{"ha":0,"x_min":-182,"x_max":173,"o":"m -182 884 l 33 1136 l 173 1136 l 71 884 l -182 884 z "},"̦":{"ha":0,"x_min":-188,"x_max":167,"o":"m -188 -379 l -86 -126 l 167 -126 l -48 -379 l -188 -379 z "},"̧":{"ha":0,"x_min":-278,"x_max":188,"o":"m -38 0 l -13 53 q 129 6 69 43 q 188 -114 188 -30 q 117 -240 188 -201 q -40 -279 47 -279 q -208 -244 -143 -279 q -278 -126 -273 -210 l -116 -114 q -99 -147 -114 -138 q -49 -157 -85 -157 q 5 -142 -14 -157 q 24 -85 24 -128 q 11 -28 24 -47 q -38 0 -3 -10 z "},"̨":{"ha":0,"x_min":-164,"x_max":189,"o":"m 45 -278 q -107 -237 -49 -278 q -164 -121 -164 -197 q -108 4 -164 -49 q 15 78 -52 58 l 49 29 q -6 -25 6 3 q -19 -77 -19 -53 q 4 -128 -19 -111 q 73 -145 27 -145 q 129 -141 96 -145 q 189 -133 162 -138 l 189 -263 q 116 -274 155 -270 q 45 -278 77 -278 z "},"¼":{"ha":884,"x_min":0,"x_max":884,"o":"m 221 519 l 221 621 l 393 621 l 393 879 l 370 879 q 348 833 364 854 q 312 797 333 812 q 265 773 290 782 q 212 763 240 764 l 205 876 q 263 889 234 879 q 318 917 292 899 q 365 960 345 934 q 395 1019 385 986 l 545 1019 l 545 621 l 702 621 l 702 519 l 221 519 m 0 312 l 0 457 l 402 432 l 402 337 l 0 312 m 500 337 l 500 432 l 884 457 l 884 312 l 500 337 m 754 -144 l 636 -144 l 636 -265 l 484 -265 l 484 -144 l 163 -144 l 163 -37 l 448 273 l 636 273 l 636 -37 l 754 -37 l 754 -144 m 285 -37 l 484 -37 l 484 177 l 285 -37 z "},"½":{"ha":884,"x_min":0,"x_max":884,"o":"m 221 519 l 221 621 l 393 621 l 393 879 l 370 879 q 348 833 364 854 q 312 797 333 812 q 265 773 290 782 q 212 763 240 764 l 205 876 q 263 889 234 879 q 318 917 292 899 q 365 960 345 934 q 395 1019 385 986 l 545 1019 l 545 621 l 702 621 l 702 519 l 221 519 m 0 312 l 0 457 l 402 432 l 402 337 l 0 312 m 500 337 l 500 432 l 884 457 l 884 312 l 500 337 m 170 -265 l 170 -150 q 179 -93 170 -119 q 205 -47 187 -67 q 251 -11 222 -25 q 318 13 279 4 l 472 44 q 511 54 496 49 q 535 64 527 58 q 550 80 545 71 q 554 102 554 88 l 554 116 q 547 140 554 130 q 527 155 540 150 q 492 164 513 162 q 442 167 471 167 q 392 164 412 167 q 359 153 372 160 q 339 130 346 144 q 331 95 332 116 l 178 104 q 196 176 181 145 q 242 227 212 207 q 323 258 274 247 q 442 268 372 268 q 561 258 511 268 q 644 229 611 247 q 691 181 676 210 q 706 116 706 153 l 706 83 q 696 32 706 54 q 667 -8 686 9 q 621 -35 648 -24 q 562 -53 595 -47 l 408 -85 q 370 -94 385 -90 q 345 -105 355 -98 q 330 -123 335 -112 q 323 -150 324 -134 l 715 -150 l 715 -265 l 170 -265 z "},"¾":{"ha":884,"x_min":0,"x_max":884,"o":"m 444 510 q 320 520 372 510 q 234 551 268 530 q 182 602 199 571 q 163 674 165 633 l 314 682 q 324 647 317 660 q 345 625 331 634 q 383 614 360 617 q 443 611 407 611 q 500 614 477 611 q 537 622 523 616 q 556 636 551 628 q 562 657 562 644 l 562 677 q 556 699 562 691 q 535 715 549 708 q 498 723 521 721 q 442 726 475 726 l 338 726 l 338 826 l 442 826 q 491 828 471 826 q 523 835 510 830 q 541 848 535 840 q 547 871 547 857 l 547 888 q 540 907 547 899 q 519 918 533 914 q 484 924 504 922 q 434 926 463 926 q 386 923 405 926 q 356 915 367 920 q 338 900 343 909 q 331 876 332 891 l 178 884 q 197 948 181 920 q 245 991 213 975 q 323 1017 277 1009 q 434 1025 370 1025 q 546 1019 497 1025 q 629 997 595 1013 q 681 961 663 984 q 698 907 698 938 l 698 891 q 689 852 698 869 q 665 822 681 835 q 629 802 650 809 q 583 790 609 794 l 583 768 q 633 758 609 765 q 674 737 657 750 q 704 706 693 723 q 715 665 715 688 l 715 652 q 698 588 715 615 q 648 544 682 562 q 564 518 615 527 q 444 510 514 510 m 0 312 l 0 457 l 402 432 l 402 337 l 0 312 m 500 337 l 500 432 l 884 457 l 884 312 l 500 337 m 754 -144 l 636 -144 l 636 -265 l 484 -265 l 484 -144 l 163 -144 l 163 -37 l 448 273 l 636 273 l 636 -37 l 754 -37 l 754 -144 m 285 -37 l 484 -37 l 484 177 l 285 -37 z "},"⅛":{"ha":884,"x_min":0,"x_max":884,"o":"m 221 519 l 221 621 l 393 621 l 393 879 l 370 879 q 348 833 364 854 q 312 797 333 812 q 265 773 290 782 q 212 763 240 764 l 205 876 q 263 889 234 879 q 318 917 292 899 q 365 960 345 934 q 395 1019 385 986 l 545 1019 l 545 621 l 702 621 l 702 519 l 221 519 m 0 312 l 0 457 l 402 432 l 402 337 l 0 312 m 500 337 l 500 432 l 884 457 l 884 312 l 500 337 m 451 -271 q 321 -261 374 -271 q 237 -232 269 -251 q 193 -186 207 -213 q 179 -122 179 -159 l 179 -105 q 188 -63 179 -82 q 213 -29 197 -44 q 254 -6 230 -15 q 309 5 279 3 l 309 28 q 263 37 284 30 q 227 56 242 44 q 203 81 211 66 q 194 115 194 96 l 194 140 q 211 199 194 174 q 260 239 229 223 q 341 263 293 255 q 451 270 389 270 q 561 263 514 270 q 641 240 609 255 q 691 199 674 225 q 707 140 707 174 l 707 115 q 699 81 707 96 q 674 56 691 66 q 638 37 659 44 q 592 28 617 30 l 592 5 q 647 -6 622 3 q 688 -30 672 -15 q 715 -63 706 -44 q 723 -105 723 -82 l 723 -122 q 710 -186 723 -159 q 664 -232 696 -213 q 580 -261 633 -251 q 451 -271 528 -271 m 451 57 q 497 59 477 57 q 529 67 516 62 q 549 81 542 72 q 556 102 556 90 l 556 125 q 549 146 556 138 q 529 160 542 155 q 497 167 516 165 q 451 169 477 169 q 405 167 424 169 q 374 160 386 165 q 354 146 361 155 q 347 125 347 138 l 347 102 q 354 81 347 90 q 374 67 361 72 q 406 59 386 62 q 451 57 426 57 m 451 -170 q 511 -167 487 -170 q 548 -155 534 -163 q 566 -138 561 -148 q 571 -114 571 -128 l 571 -98 q 566 -73 571 -83 q 548 -54 561 -62 q 511 -43 534 -47 q 451 -39 487 -39 q 391 -43 414 -39 q 355 -54 367 -47 q 337 -73 342 -62 q 332 -98 332 -83 l 332 -114 q 337 -138 332 -128 q 355 -155 342 -149 q 391 -167 367 -163 q 451 -170 414 -170 z "},"⅜":{"ha":884,"x_min":0,"x_max":884,"o":"m 444 510 q 321 520 374 510 q 235 551 269 530 q 183 602 201 571 q 163 674 165 633 l 314 682 q 324 647 317 660 q 345 625 331 634 q 383 614 360 617 q 443 611 407 611 q 500 614 477 611 q 537 622 523 616 q 556 636 551 628 q 562 657 562 644 l 562 677 q 556 699 562 691 q 535 715 549 708 q 498 723 521 721 q 442 726 475 726 l 338 726 l 338 826 l 442 826 q 491 828 471 826 q 523 835 510 830 q 541 848 535 840 q 547 871 547 857 l 547 888 q 540 907 547 899 q 519 918 533 914 q 484 924 504 922 q 434 926 463 926 q 386 923 405 926 q 356 915 367 920 q 338 900 343 909 q 331 876 332 891 l 178 884 q 198 950 181 923 q 249 994 216 977 q 326 1018 280 1010 q 434 1025 372 1025 q 542 1020 495 1025 q 625 1000 590 1014 q 679 964 660 987 q 698 907 698 941 l 698 891 q 689 852 698 869 q 665 822 681 835 q 629 802 650 809 q 583 790 609 794 l 583 768 q 633 758 609 765 q 674 737 657 750 q 704 706 693 723 q 715 665 715 688 l 715 652 q 697 585 715 612 q 644 542 679 558 q 560 518 610 525 q 444 510 510 510 m 0 312 l 0 457 l 402 432 l 402 337 l 0 312 m 500 337 l 500 432 l 884 457 l 884 312 l 500 337 m 451 -271 q 321 -261 374 -271 q 237 -232 269 -251 q 193 -186 207 -213 q 179 -122 179 -159 l 179 -105 q 188 -63 179 -82 q 213 -29 197 -44 q 254 -6 230 -15 q 309 5 279 3 l 309 28 q 263 37 284 30 q 227 56 242 44 q 203 81 211 66 q 194 115 194 96 l 194 140 q 211 199 194 174 q 260 239 229 223 q 341 263 293 255 q 451 270 389 270 q 561 263 514 270 q 641 240 609 255 q 691 199 674 225 q 707 140 707 174 l 707 115 q 699 81 707 96 q 674 56 691 66 q 638 37 659 44 q 592 28 617 30 l 592 5 q 647 -6 622 3 q 688 -30 672 -15 q 715 -63 706 -44 q 723 -105 723 -82 l 723 -122 q 710 -186 723 -159 q 664 -232 696 -213 q 580 -261 633 -251 q 451 -271 528 -271 m 451 57 q 497 59 477 57 q 529 67 516 62 q 549 81 542 72 q 556 102 556 90 l 556 125 q 549 146 556 138 q 529 160 542 155 q 497 167 516 165 q 451 169 477 169 q 405 167 424 169 q 374 160 386 165 q 354 146 361 155 q 347 125 347 138 l 347 102 q 354 81 347 90 q 374 67 361 72 q 406 59 386 62 q 451 57 426 57 m 451 -170 q 511 -167 487 -170 q 548 -155 534 -163 q 566 -138 561 -148 q 571 -114 571 -128 l 571 -98 q 566 -73 571 -83 q 548 -54 561 -62 q 511 -43 534 -47 q 451 -39 487 -39 q 391 -43 414 -39 q 355 -54 367 -47 q 337 -73 342 -62 q 332 -98 332 -83 l 332 -114 q 337 -138 332 -128 q 355 -155 342 -149 q 391 -167 367 -163 q 451 -170 414 -170 z "},"⅝":{"ha":884,"x_min":0,"x_max":884,"o":"m 446 505 q 318 514 370 505 q 232 542 265 523 q 182 592 198 561 q 163 670 165 624 l 314 678 q 324 643 317 657 q 347 621 332 629 q 385 610 361 614 q 447 606 409 606 q 504 609 482 606 q 539 620 527 612 q 557 639 552 628 q 562 667 562 650 l 562 689 q 556 714 562 705 q 535 729 551 723 q 493 738 520 735 q 423 741 466 741 l 186 741 l 186 1019 l 691 1019 l 691 918 l 338 918 l 338 843 l 477 843 q 581 835 537 843 q 655 808 625 826 q 699 763 684 790 q 715 699 715 736 l 715 657 q 699 596 715 624 q 650 548 683 568 q 566 516 617 528 q 446 505 515 505 m 0 312 l 0 457 l 402 432 l 402 337 l 0 312 m 500 337 l 500 432 l 884 457 l 884 312 l 500 337 m 451 -271 q 321 -261 374 -271 q 237 -232 269 -251 q 193 -186 207 -213 q 179 -122 179 -159 l 179 -105 q 188 -63 179 -82 q 213 -29 197 -44 q 254 -6 230 -15 q 309 5 279 3 l 309 28 q 263 37 284 30 q 227 56 242 44 q 203 82 212 67 q 194 116 194 97 l 194 141 q 211 199 194 176 q 260 240 229 223 q 341 263 293 255 q 451 270 389 270 q 561 263 514 270 q 641 241 609 256 q 691 200 674 225 q 707 141 707 176 l 707 116 q 698 82 707 97 q 674 56 689 67 q 638 37 659 44 q 592 28 617 30 l 592 5 q 647 -6 622 3 q 688 -30 672 -15 q 715 -63 706 -44 q 723 -105 723 -82 l 723 -122 q 710 -186 723 -159 q 664 -232 696 -213 q 580 -261 633 -251 q 451 -271 528 -271 m 451 57 q 497 59 477 57 q 529 67 516 62 q 549 81 542 72 q 556 102 556 90 l 556 125 q 549 146 556 138 q 529 160 542 155 q 497 167 516 165 q 451 169 477 169 q 405 167 424 169 q 374 160 386 165 q 354 146 361 155 q 347 125 347 138 l 347 102 q 354 81 347 90 q 374 67 361 72 q 406 59 386 62 q 451 57 426 57 m 451 -170 q 511 -167 487 -170 q 548 -155 534 -163 q 566 -138 561 -148 q 571 -114 571 -128 l 571 -98 q 566 -73 571 -83 q 548 -54 561 -62 q 511 -43 534 -47 q 451 -39 487 -39 q 391 -43 414 -39 q 355 -54 367 -47 q 337 -73 342 -62 q 332 -98 332 -83 l 332 -114 q 337 -138 332 -128 q 355 -155 342 -149 q 391 -167 367 -163 q 451 -170 414 -170 z "},"⅞":{"ha":884,"x_min":0,"x_max":884,"o":"m 345 519 q 384 631 362 580 q 433 729 405 682 q 497 817 461 774 q 580 904 533 860 l 188 904 l 188 1019 l 732 1019 l 732 904 q 650 811 687 857 q 586 717 614 765 q 538 621 558 670 q 505 519 518 572 l 345 519 m 0 312 l 0 457 l 402 432 l 402 337 l 0 312 m 500 337 l 500 432 l 884 457 l 884 312 l 500 337 m 451 -271 q 321 -261 374 -271 q 237 -232 269 -251 q 193 -186 207 -213 q 179 -122 179 -159 l 179 -105 q 188 -63 179 -82 q 213 -29 197 -44 q 254 -6 230 -15 q 309 5 279 3 l 309 28 q 263 37 284 30 q 227 56 242 44 q 203 81 211 66 q 194 115 194 96 l 194 140 q 211 199 194 174 q 260 239 229 223 q 341 263 293 255 q 451 270 389 270 q 561 263 514 270 q 641 240 609 255 q 691 199 674 225 q 707 140 707 174 l 707 115 q 699 81 707 96 q 674 56 691 66 q 638 37 659 44 q 592 28 617 30 l 592 5 q 647 -6 622 3 q 688 -30 672 -15 q 715 -63 706 -44 q 723 -105 723 -82 l 723 -122 q 710 -186 723 -159 q 664 -232 696 -213 q 580 -261 633 -251 q 451 -271 528 -271 m 451 57 q 497 59 477 57 q 529 67 516 62 q 549 81 542 72 q 556 102 556 90 l 556 125 q 549 146 556 138 q 529 160 542 155 q 497 167 516 165 q 451 169 477 169 q 405 167 424 169 q 374 160 386 165 q 354 146 361 155 q 347 125 347 138 l 347 102 q 354 81 347 90 q 374 67 361 72 q 406 59 386 62 q 451 57 426 57 m 451 -170 q 511 -167 487 -170 q 548 -155 534 -163 q 566 -138 561 -148 q 571 -114 571 -128 l 571 -98 q 566 -73 571 -83 q 548 -54 561 -62 q 511 -43 534 -47 q 451 -39 487 -39 q 391 -43 414 -39 q 355 -54 367 -47 q 337 -73 342 -62 q 332 -98 332 -83 l 332 -114 q 337 -138 332 -128 q 355 -155 342 -149 q 391 -167 367 -163 q 451 -170 414 -170 z "},"_":{"ha":884,"x_min":82,"x_max":802,"o":"m 82 -253 l 82 -82 l 802 -82 l 802 -253 l 82 -253 z "},"-":{"ha":884,"x_min":82,"x_max":802,"o":"m 82 360 l 82 530 l 802 530 l 802 360 l 82 360 z "},"­":{"ha":884,"x_min":82,"x_max":802,"o":"m 82 360 l 82 530 l 802 530 l 802 360 l 82 360 z "},"‐":{"ha":884,"x_min":82,"x_max":802,"o":"m 82 360 l 82 530 l 802 530 l 802 360 l 82 360 z "},"‑":{"ha":884,"x_min":82,"x_max":802,"o":"m 82 360 l 82 530 l 802 530 l 802 360 l 82 360 z "},"–":{"ha":884,"x_min":88,"x_max":795,"o":"m 88 360 l 88 530 l 795 530 l 795 360 l 88 360 z "},"—":{"ha":884,"x_min":0,"x_max":884,"o":"m 0 360 l 0 530 l 884 530 l 884 360 l 0 360 z "},"―":{"ha":884,"x_min":0,"x_max":884,"o":"m 0 360 l 0 530 l 884 530 l 884 360 l 0 360 z "},"(":{"ha":884,"x_min":221,"x_max":732,"o":"m 713 -265 q 340 -42 460 -218 q 221 379 221 135 q 340 797 221 619 q 713 1023 460 976 l 732 891 q 482 710 553 845 q 410 379 410 574 q 482 51 410 183 q 732 -129 553 -82 l 713 -265 z "},")":{"ha":884,"x_min":152,"x_max":663,"o":"m 170 -265 l 152 -129 q 402 53 331 -82 q 473 379 473 188 q 402 705 473 564 q 152 891 331 845 l 170 1023 q 544 797 424 976 q 663 379 663 617 q 544 -42 663 135 q 170 -265 424 -218 z "},"[":{"ha":884,"x_min":221,"x_max":726,"o":"m 221 -253 l 221 1010 l 726 1010 l 726 865 l 410 865 l 410 -115 l 726 -115 l 726 -253 l 221 -253 z "},"]":{"ha":884,"x_min":158,"x_max":663,"o":"m 158 -253 l 158 -115 l 473 -115 l 473 865 l 158 865 l 158 1010 l 663 1010 l 663 -253 l 158 -253 z "},"{":{"ha":884,"x_min":32,"x_max":726,"o":"m 726 -265 q 290 -221 423 -270 q 158 -56 158 -172 q 179 42 158 3 q 239 119 201 82 q 300 181 278 155 q 322 231 322 206 q 259 315 322 290 q 32 343 197 340 l 32 444 q 259 472 197 448 q 322 554 322 496 q 301 600 322 580 q 241 650 280 621 q 180 716 202 681 q 158 809 158 751 q 290 977 158 927 q 726 1023 423 1028 l 726 878 q 430 859 513 881 q 347 782 347 837 q 366 732 347 756 q 431 672 384 707 q 494 609 476 636 q 511 543 511 582 q 441 435 511 470 q 206 395 370 400 l 206 389 q 441 340 370 376 q 511 231 511 303 q 493 165 511 193 q 428 101 475 138 q 365 41 383 67 q 347 -20 347 15 q 430 -103 347 -80 q 726 -122 513 -126 l 726 -265 z "},"}":{"ha":884,"x_min":158,"x_max":852,"o":"m 726 -56 q 593 -221 726 -172 q 158 -265 461 -270 l 158 -122 q 455 -103 372 -126 q 537 -20 537 -80 q 520 41 537 15 q 456 101 503 67 q 391 165 409 138 q 372 231 372 193 q 444 340 372 303 q 678 389 515 376 l 678 395 q 444 435 515 400 q 372 543 372 470 q 390 609 372 582 q 455 672 408 636 q 519 732 501 707 q 537 782 537 756 q 455 859 537 837 q 158 878 372 881 l 158 1023 q 593 977 461 1028 q 726 809 726 927 q 705 716 726 751 q 644 650 683 681 q 583 600 605 621 q 562 554 562 580 q 625 472 562 496 q 852 444 688 448 l 852 343 q 625 315 688 340 q 562 231 562 290 q 584 181 562 206 q 645 119 606 155 q 705 42 683 82 q 726 -56 726 3 z "},"#":{"ha":884,"x_min":32,"x_max":852,"o":"m 518 372 l 532 638 l 367 638 l 354 372 l 518 372 m 499 0 l 511 234 l 347 234 l 335 0 l 183 0 l 196 234 l 32 234 l 32 372 l 202 372 l 216 638 l 32 638 l 32 777 l 222 777 l 234 1010 l 385 1010 l 374 777 l 538 777 l 549 1010 l 701 1010 l 689 777 l 852 777 l 852 638 l 683 638 l 669 372 l 852 372 l 852 234 l 663 234 l 650 0 l 499 0 z "},"%":{"ha":884,"x_min":38,"x_max":846,"o":"m 244 578 q 95 626 152 578 q 38 774 38 674 l 38 837 q 95 987 38 938 q 244 1035 153 1035 q 391 987 335 1035 q 447 837 447 938 l 447 774 q 391 626 447 674 q 244 578 335 578 m 244 691 q 292 709 274 691 q 309 769 309 727 l 309 843 q 292 905 309 885 q 244 924 274 924 q 194 905 212 924 q 177 843 177 885 l 177 769 q 194 709 177 727 q 244 691 212 691 m 48 229 l 760 879 l 845 787 l 126 134 l 48 229 m 643 -28 q 494 20 551 -28 q 437 168 437 68 l 437 231 q 494 381 437 332 q 643 429 552 429 q 790 381 734 429 q 846 231 846 332 l 846 168 q 790 20 846 68 q 643 -28 734 -28 m 643 81 q 691 99 673 81 q 708 159 708 117 l 708 234 q 691 295 708 275 q 643 314 673 314 q 593 295 611 314 q 576 234 576 275 l 576 159 q 593 99 576 117 q 643 81 611 81 z "},"‰":{"ha":884,"x_min":23,"x_max":859,"o":"m 225 578 q 90 625 141 578 q 38 768 38 672 l 38 843 q 90 989 38 942 q 225 1035 141 1035 q 359 989 308 1035 q 409 843 409 942 l 409 768 q 358 625 409 672 q 225 578 307 578 m 170 763 q 185 707 170 723 q 225 691 199 691 q 263 707 249 691 q 278 763 278 723 l 278 850 q 263 906 278 888 q 225 924 249 924 q 185 906 199 924 q 170 850 170 888 l 170 763 m 832 778 l 87 196 l 23 283 l 764 862 l 832 778 m 712 -28 q 647 -11 676 -28 q 601 39 619 5 q 552 -11 582 5 q 486 -28 523 -28 q 383 19 422 -28 q 343 162 343 66 l 343 231 q 385 376 343 330 q 492 423 427 423 q 556 407 528 423 q 602 357 585 390 q 648 407 619 390 q 712 423 677 423 q 818 376 778 423 q 859 231 859 330 l 859 162 q 818 19 859 66 q 712 -28 777 -28 m 460 150 q 471 95 460 111 q 501 78 482 78 q 532 95 521 78 q 542 150 542 111 l 542 244 q 532 300 542 282 q 501 318 521 318 q 471 300 482 318 q 460 244 460 282 l 460 150 m 660 150 q 672 95 660 111 q 702 78 683 78 q 732 95 722 78 q 742 150 742 111 l 742 244 q 732 300 742 282 q 702 318 722 318 q 672 300 683 318 q 660 244 660 282 l 660 150 z "},"'":{"ha":884,"x_min":316,"x_max":568,"o":"m 357 473 l 316 1010 l 568 1010 l 527 473 l 357 473 z "},"\"":{"ha":884,"x_min":133,"x_max":751,"o":"m 553 473 l 511 1010 l 751 1010 l 710 473 l 553 473 m 174 473 l 133 1010 l 372 1010 l 331 473 l 174 473 z "},"ʻ":{"ha":884,"x_min":227,"x_max":662,"o":"m 227 473 l 528 1010 l 662 1010 l 532 473 l 227 473 z "},"‘":{"ha":884,"x_min":227,"x_max":662,"o":"m 227 473 l 528 1010 l 662 1010 l 532 473 l 227 473 z "},"’":{"ha":884,"x_min":223,"x_max":657,"o":"m 223 473 l 352 1010 l 657 1010 l 356 473 l 223 473 z "},"“":{"ha":884,"x_min":57,"x_max":832,"o":"m 436 473 l 717 1010 l 832 1010 l 715 473 l 436 473 m 57 473 l 345 1010 l 460 1010 l 336 473 l 57 473 z "},"”":{"ha":884,"x_min":53,"x_max":827,"o":"m 426 473 l 548 1010 l 827 1010 l 539 473 l 426 473 m 53 473 l 169 1010 l 448 1010 l 167 473 l 53 473 z "},"‛":{"ha":884,"x_min":198,"x_max":631,"o":"m 499 473 l 198 1010 l 503 1010 l 631 473 l 499 473 z "},"‚":{"ha":884,"x_min":236,"x_max":644,"o":"m 236 -221 l 340 316 l 644 316 l 369 -221 l 236 -221 z "},"„":{"ha":884,"x_min":-10,"x_max":764,"o":"m 362 -221 l 485 316 l 764 316 l 476 -221 l 362 -221 m -10 -221 l 106 316 l 385 316 l 104 -221 l -10 -221 z "},"‹":{"ha":884,"x_min":221,"x_max":663,"o":"m 663 76 l 221 347 l 221 537 l 663 808 l 663 638 l 346 442 l 663 246 l 663 76 z "},"›":{"ha":884,"x_min":221,"x_max":663,"o":"m 221 76 l 221 246 l 539 442 l 221 638 l 221 808 l 663 537 l 663 347 l 221 76 z "},"«":{"ha":884,"x_min":61,"x_max":824,"o":"m 824 76 l 471 347 l 471 537 l 824 808 l 824 638 l 571 442 l 824 246 l 824 76 m 414 76 l 61 347 l 61 537 l 414 808 l 414 638 l 160 442 l 414 246 l 414 76 z "},"»":{"ha":884,"x_min":61,"x_max":824,"o":"m 61 76 l 61 246 l 314 442 l 61 638 l 61 808 l 414 537 l 414 347 l 61 76 m 471 76 l 471 246 l 725 442 l 471 638 l 471 808 l 824 537 l 824 347 l 471 76 z "},"*":{"ha":884,"x_min":69,"x_max":814,"o":"m 725 341 l 482 559 l 530 253 l 352 253 l 400 558 l 159 341 l 69 495 l 372 633 l 69 770 l 159 924 l 400 707 l 352 1010 l 530 1010 l 482 706 l 725 924 l 814 770 l 510 633 l 814 495 l 725 341 z "},"†":{"ha":884,"x_min":69,"x_max":814,"o":"m 357 -253 l 357 612 l 253 612 l 208 341 l 69 341 l 107 758 l 355 758 l 345 1010 l 540 1010 l 529 758 l 777 758 l 814 341 l 676 341 l 631 612 l 528 612 l 528 -253 l 357 -253 z "},"‡":{"ha":884,"x_min":67,"x_max":818,"o":"m 345 -253 l 354 -19 l 105 -19 l 67 290 l 199 290 l 250 126 l 357 126 l 357 631 l 250 631 l 199 467 l 67 467 l 105 777 l 354 777 l 345 1010 l 540 1010 l 532 777 l 780 777 l 818 467 l 686 467 l 635 631 l 528 631 l 528 126 l 635 126 l 686 290 l 818 290 l 780 -19 l 532 -19 l 540 -253 l 345 -253 z "},".":{"ha":884,"x_min":278,"x_max":607,"o":"m 443 -13 q 323 20 369 -13 q 278 117 278 53 l 278 189 q 323 288 278 254 q 443 322 369 322 q 563 288 518 322 q 607 189 607 254 l 607 117 q 561 20 607 53 q 443 -13 515 -13 z "},",":{"ha":884,"x_min":236,"x_max":644,"o":"m 236 -221 l 340 316 l 644 316 l 369 -221 l 236 -221 z "},":":{"ha":884,"x_min":287,"x_max":598,"o":"m 443 490 q 330 519 374 490 q 287 606 287 548 l 287 673 q 330 761 287 731 q 443 792 374 792 q 556 761 513 792 q 598 673 598 731 l 598 606 q 555 519 598 548 q 443 490 511 490 m 443 -9 q 330 20 374 -9 q 287 107 287 49 l 287 174 q 330 263 287 232 q 443 293 374 293 q 556 263 513 293 q 598 174 598 232 l 598 107 q 555 20 598 49 q 443 -9 511 -9 z "},";":{"ha":884,"x_min":247,"x_max":633,"o":"m 443 490 q 330 519 374 490 q 287 606 287 548 l 287 673 q 330 761 287 731 q 443 792 374 792 q 556 761 513 792 q 598 673 598 731 l 598 606 q 555 519 598 548 q 443 490 511 490 m 247 -207 l 346 302 l 633 302 l 372 -207 l 247 -207 z "},"…":{"ha":884,"x_min":44,"x_max":840,"o":"m 744 -11 q 674 15 701 -11 q 648 95 648 40 l 648 213 q 674 295 648 269 q 744 322 701 322 q 813 295 787 322 q 840 213 840 269 l 840 95 q 813 15 840 40 q 744 -11 785 -11 m 442 -11 q 372 15 399 -11 q 346 95 346 40 l 346 213 q 372 295 346 269 q 442 322 399 322 q 511 295 485 322 q 538 213 538 269 l 538 95 q 511 15 538 40 q 442 -11 484 -11 m 141 -11 q 71 15 98 -11 q 44 95 44 40 l 44 213 q 71 295 44 269 q 141 322 98 322 q 210 295 184 322 q 236 213 236 269 l 236 95 q 210 15 236 40 q 141 -11 183 -11 z "},"!":{"ha":884,"x_min":289,"x_max":596,"o":"m 357 379 l 319 1010 l 559 1010 l 521 379 l 357 379 m 443 -13 q 328 13 366 -13 q 289 93 289 39 l 289 129 q 328 211 289 184 q 443 237 366 237 q 558 211 520 237 q 596 129 596 184 l 596 93 q 557 13 596 39 q 443 -13 519 -13 z "},"¡":{"ha":884,"x_min":289,"x_max":596,"o":"m 442 1023 q 557 997 519 1023 q 596 917 596 971 l 596 881 q 557 799 596 826 q 442 773 519 773 q 327 799 365 773 q 289 881 289 826 l 289 917 q 328 997 289 971 q 442 1023 366 1023 m 529 631 l 567 0 l 327 0 l 365 631 l 529 631 z "},"‼":{"ha":884,"x_min":106,"x_max":792,"o":"m 578 379 l 540 1010 l 755 1010 l 717 379 l 578 379 m 174 379 l 136 1010 l 351 1010 l 313 379 l 174 379 m 652 -13 q 590 -6 616 -13 q 545 13 563 0 q 519 46 528 27 q 510 93 510 66 l 510 129 q 519 177 510 157 q 545 211 528 198 q 590 231 563 225 q 652 237 616 237 q 714 231 688 237 q 758 211 740 225 q 783 177 775 198 q 792 129 792 157 l 792 93 q 783 46 792 66 q 756 13 774 27 q 713 -6 739 0 q 652 -13 687 -13 m 247 -13 q 186 -6 212 -13 q 141 13 159 0 q 115 46 124 27 q 106 93 106 66 l 106 129 q 115 177 106 157 q 141 211 124 198 q 186 231 159 225 q 247 237 212 237 q 310 231 284 237 q 354 211 336 225 q 379 177 371 198 q 388 129 388 157 l 388 93 q 379 46 388 66 q 352 13 370 27 q 309 -6 335 0 q 247 -13 283 -13 z "},"?":{"ha":884,"x_min":63,"x_max":808,"o":"m 309 364 l 284 497 q 552 575 486 529 q 619 697 619 621 l 619 729 q 585 837 619 797 q 442 878 551 878 q 294 836 327 878 q 253 693 261 795 l 63 706 q 158 949 72 875 q 441 1023 245 1023 q 720 941 633 1023 q 808 741 808 860 l 808 692 q 689 474 808 545 q 309 364 569 403 m 383 -13 q 268 13 306 -13 q 230 93 230 39 l 230 129 q 268 211 230 184 q 383 237 306 237 q 498 211 460 237 q 537 129 537 184 l 537 93 q 497 13 537 39 q 383 -13 458 -13 z "}}}
